{
.appVersion = "3091";
.formatVersion = 3;
DisplayStrings = (
"¶HH¶H¶H¶©®/registered.ss06 
™TM№₵¢₡¤$₫€₣₲₭₤₺₼₦₧/peseta.ss02 ₱₽₹£₩/won.ss01 ¥",
"¶©®/registered.ss06 ™HhTM№₵¢₡¤$₫€₣₲₭₤₺₼₦₧/peseta.ss02 ₱₽₹£₩/won.ss01 ¥",
"¶©®/registered.ss06 n™NNoi№₵¢₡¤$₫€₣₲₭₤₺₼₦₧/peseta.ss02 ₱₽₹£₩/won.ss01 ¥",
"™",
"™",
"¥Y",
"/peseta.ss02 ₱₽¥",
"₧₽₹¥",
"/peseta.ss02",
"₣₭₦N₩/won.ss01 W",
"€₭₤₺₼£"
);
axes = (
{
name = Weight;
tag = wght;
}
);
classes = (
{
automatic = 1;

glyphs = (
{
glyphname = A;
lastChange = "2021-08-20 20:39:15 +0000";
layers = (
{
anchors = (
{
name = bottom;
pos = (304,0);
},
{
name = ogonek;
pos = (519,0);
},
{
name = top;
pos = (304,700);
}
);
background = {
shapes = (
{
attr = {
strokeWidth = 2;
};
closed = 0;
nodes = (
(48,0,l),
(304,700,l),
(556,0,l)
);
},
{
attr = {
strokeWidth = 2;
};
closed = 0;
nodes = (
(142,238,l),
(470,238,l)
);
}
);
};
layerId = "65988B1E-DCE2-4AC3-A6FF-994A1050067D";
shapes = (
{
closed = 1;
nodes = (
(478,208,l),
(478,284,l),
(124,284,l),
(124,208,l)
);
},
{
closed = 1;
nodes = (
(78,-10,o),
(94,1,o),
(99,16,cs),
(315,620,l),
(294,620,l),
(509,16,ls),
(514,1,o),
(530,-10,o),
(547,-10,cs),
(580,-10,o),
(594,24,o),
(585,47,cs),
(353,664,ls),
(341,695,o),
(323,710,o),
(304,710,cs),
(285,710,o),
(267,695,o),
(255,664,cs),
(23,47,ls),
(14,24,o),
(28,-10,o),
(61,-10,cs)
);
}
);
width = 608;
},
{
anchors = (
{
name = bottom;
pos = (328,0);
},
{
name = ogonek;
pos = (598,10);
},
{
name = top;
pos = (328,700);
}
);
layerId = "6242D68C-0A25-4F05-8F2A-2075F7C4A210";
shapes = (
{
closed = 1;
nodes = (
(484,140,l),
(484,290,l),
(156,290,l),
(156,138,l)
);
},
{
closed = 1;
nodes = (
(132,-10,o),
(164,8,o),
(174,38,cs),
(345,550,l),
(308,550,l),
(481,38,ls),
(491,8,o),
(523,-10,o),
(556,-10,cs),
(616,-10,o),
(648,50,o),
(629,98,cs),
(406,657,ls),
(391,695,o),
(363,709,o),
(328,709,cs),
(296,709,o),
(266,699,o),
(249,657,cs),
(25,98,ls),
(8,55,o),
(35,-10,o),
(99,-10,cs)
);
}
);
width = 654;
},
{
associatedMasterId = "65988B1E-DCE2-4AC3-A6FF-994A1050067D";
background = {
shapes = (
{
attr = {
strokeWidth = 2;
};
closed = 0;
nodes = (
(53,0,l),
(304,700,l),
(566,0,l)
);
},
{
attr = {
strokeWidth = 2;
};
closed = 0;
nodes = (
(142,238,l),
(470,238,l)
);
},
{
closed = 1;
nodes = (
(78,-5,o),
(94,6,o),
(99,21,cs),
(315,620,l),
(294,620,l),
(509,21,ls),
(514,6,o),
(530,-5,o),
(547,-5,cs),
(569,-5,o),
(588,14,o),
(588,36,cs),
(588,42,o),
(587,47,o),
(585,52,cs),
(353,664,ls),
(341,695,o),
(323,710,o),
(304,710,cs),
(285,710,o),
(267,695,o),
(255,664,cs),
(23,52,ls),
(21,47,o),
(20,42,o),
(20,36,cs),
(20,14,o),
(39,-5,o),
(61,-5,cs)
);
},
{
closed = 1;
nodes = (
(478,202,l),
(478,276,l),
(124,276,l),
(124,202,l)
);
}
);
};
layerId = "108E55AC-D5A3-4E4A-9ABE-828C3EE6594E";
name = "Original Skeleton";
shapes = (
{
attr = {
strokeWidth = 2;
};
closed = 0;
nodes = (
(41,0,l),
(302,700,l),
(574,0,l)
);
},
{
attr = {
strokeWidth = 2;
};
closed = 0;
nodes = (
(126,222,l),
(483,222,l)
);
}
);
width = 608;
},
{
anchors = (
{
name = bottom;
pos = (283,0);
},
{
name = ogonek;
pos = (508,0);
},
{
name = top;
pos = (283,700);
}
);
background = {
shapes = (
{
attr = {
strokeWidth = 2;
};
closed = 0;
nodes = (
(46,0,l),
(290,698,l)
);
},
{
attr = {
strokeWidth = 2;
};
closed = 0;
nodes = (
(120,251,l),
(448,251,l)
);
},
{
attr = {
strokeWidth = 2;
};
closed = 0;
nodes = (
(526,0,l),
(282,698,l)
);
},
{
closed = 1;
nodes = (
(133,281,l),
(133,223,l),
(435,223,l),
(435,281,l)
);
},
{
closed = 1;
nodes = (
(64,-10,o),
(74,-2,o),
(78,9,cs),
(299,639,l),
(272,639,l),
(493,9,ls),
(497,-2,o),
(507,-10,o),
(520,-10,cs),
(542,-10,o),
(554,10,o),
(547,29,cs),
(319,681,ls),
(312,701,o),
(299,710,o),
(286,710,cs),
(273,710,o),
(260,701,o),
(253,681,cs),
(25,29,ls),
(18,10,o),
(30,-10,o),
(52,-10,cs)
);
}
);
};
layerId = "3D52442A-254C-4C79-B742-A98FD72DF947";
shapes = (
{
closed = 1;
nodes = (
(444,236,l),
(444,281,l),
(125,281,l),
(125,236,l)
);
},
{
closed = 1;
nodes = (
(53,-10,o),
(62,-4,o),
(65,5,cs),
(288,640,l),
(278,640,l),
(501,5,ls),
(504,-4,o),
(513,-10,o),
(523,-10,cs),
(541,-10,o),
(550,7,o),
(545,21,cs),
(305,695,ls),
(302,703,o),
(293,710,o),
(283,710,cs),
(273,710,o),
(264,703,o),
(261,695,cs),
(21,21,ls),
(16,7,o),
(25,-10,o),
(43,-10,cs)
);
}
);
width = 566;
},
{
anchors = (
{
name = bottom;
pos = (304,0);
},
{
name = ogonek;
pos = (519,0);
},
{
name = top;
pos = (304,700);
}
);
associatedMasterId = "65988B1E-DCE2-4AC3-A6FF-994A1050067D";
background = {
shapes = (
{
attr = {
strokeWidth = 2;
};
closed = 0;
nodes = (
(48,0,l),
(304,700,l),
(556,0,l)
);
},
{
attr = {
strokeWidth = 2;
};
closed = 0;
nodes = (
(142,238,l),
(470,238,l)
);
}
);
};
layerId = "66031ED0-0312-484C-961A-FF787F6FA0DA";
name = "Jul 26, 21, 15:08";
shapes = (
{
closed = 1;
nodes = (
(478,207,l),
(478,283,l),
(124,283,l),
(124,207,l)
);
},
{
closed = 1;
nodes = (
(78,-10,o),
(94,1,o),
(99,16,cs),
(315,620,l),
(294,620,l),
(509,16,ls),
(514,1,o),
(530,-10,o),
(547,-10,cs),
(580,-10,o),
(594,24,o),
(585,47,cs),
(353,664,ls),
(341,695,o),
(323,710,o),
(304,710,cs),
(285,710,o),
(267,695,o),
(255,664,cs),
(23,47,ls),
(14,24,o),
(28,-10,o),
(61,-10,cs)
);
}
);
width = 608;
}
);
unicode = 65;
},
{
glyphname = A.ss02;
lastChange = "2021-08-17 21:15:53 +0000";
layers = (
{
anchors = (
{
name = bottom;
pos = (324,0);
},
{
name = ogonek;
pos = (583,10);
},
{
name = top;
pos = (324,700);
}
);
layerId = "65988B1E-DCE2-4AC3-A6FF-994A1050067D";
shapes = (
{
closed = 1;
nodes = (
(498,190,l),
(498,264,l),
(144,264,l),
(144,190,l)
);
},
{
closed = 1;
nodes = (
(88,-15,o),
(103,-4,o),
(109,11,cs),
(335,620,l),
(314,620,l),
(539,11,ls),
(544,-4,o),
(560,-15,o),
(577,-15,cs),
(610,-15,o),
(624,19,o),
(615,42,cs),
(373,664,ls),
(361,695,o),
(343,710,o),
(324,710,cs),
(305,710,o),
(287,695,o),
(275,664,cs),
(33,42,ls),
(24,19,o),
(38,-15,o),
(71,-15,cs)
);
}
);
width = 648;
},
{
anchors = (
{
name = bottom;
pos = (353,0);
},
{
name = ogonek;
pos = (635,10);
},
{
name = top;
pos = (353,700);
}
);
layerId = "6242D68C-0A25-4F05-8F2A-2075F7C4A210";
shapes = (
{
closed = 1;
nodes = (
(509,143,l),
(509,293,l),
(181,293,l),
(181,143,l)
);
},
{
closed = 1;
nodes = (
(142,-15,o),
(173,3,o),
(184,33,cs),
(370,550,l),
(333,550,l),
(521,33,ls),
(532,3,o),
(563,-15,o),
(596,-15,cs),
(656,-15,o),
(689,45,o),
(669,93,cs),
(431,657,ls),
(415,695,o),
(388,709,o),
(353,709,cs),
(321,709,o),
(292,699,o),
(274,657,cs),
(35,93,ls),
(17,50,o),
(45,-15,o),
(109,-15,cs)
);
}
);
width = 705;
},
{
anchors = (
{
name = bottom;
pos = (298,0);
},
{
name = ogonek;
pos = (536,10);
},
{
name = top;
pos = (298,700);
}
);
layerId = "3D52442A-254C-4C79-B742-A98FD72DF947";
shapes = (
{
closed = 1;
nodes = (
(464,236,l),
(464,281,l),
(135,281,l),
(135,236,l)
);
},
{
closed = 1;
nodes = (
(63,-10,o),
(72,-4,o),
(75,5,cs),
(298,640,l),
(288,640,l),
(521,5,ls),
(524,-4,o),
(533,-10,o),
(543,-10,cs),
(561,-10,o),
(570,7,o),
(565,21,cs),
(315,695,ls),
(312,703,o),
(303,710,o),
(293,710,cs),
(283,710,o),
(274,703,o),
(271,695,cs),
(31,21,ls),
(26,7,o),
(35,-10,o),
(53,-10,cs)
);
}
);
width = 596;
}
);
},
{
glyphname = Aogonek;
lastChange = "2021-08-12 13:20:33 +0000";
layers = (
{
layerId = "65988B1E-DCE2-4AC3-A6FF-994A1050067D";
shapes = (
{
ref = A;
},
{
closed = 1;
nodes = (
(523,-113,o),
(515,-121,o),
(499,-121,cs),
(479,-121,o),
(475,-108,o),
(475,-101,cs),
(475,-59,o),
(608,-16,o),
(585,46,cs),
(582,54,l),
(496,54,l),
(507,21,ls),
(516,-7,o),
(405,-31,o),
(405,-109,cs),
(405,-160,o),
(450,-183,o),
(497,-185,cs),
(523,-186,o),
(559,-181,o),
(589,-146,cs),
(595,-139,o),
(599,-131,o),
(599,-121,cs),
(599,-101,o),
(585,-87,o),
(565,-87,cs),
(554,-87,o),
(545,-91,o),
(538,-98,cs)
);
}
);
width = 619;
},
{
layerId = "6242D68C-0A25-4F05-8F2A-2075F7C4A210";
width = 600;
},
{
layerId = "3D52442A-254C-4C79-B742-A98FD72DF947";
width = 600;
}
);
metricLeft = "=A";
metricRight = "=A";
unicode = 260;
},
{
glyphname = AE;
lastChange = "2021-08-11 20:31:01 +0000";
layers = (
{
anchors = (
{
name = bottom;
pos = (424,0);
},
{
name = top;
pos = (424,700);
}
);
background = {
shapes = (
{
closed = 1;
nodes = (
(58,-5,o),
(74,6,o),
(79,21,cs),
(295,620,l),
(274,620,l),
(489,21,ls),
(494,6,o),
(510,-5,o),
(527,-5,cs),
(549,-5,o),
(568,14,o),
(568,36,cs),
(568,44,o),
(567,46,o),
(565,52,cs),
(333,664,ls),
(321,695,o),
(303,710,o),
(284,710,cs),
(265,710,o),
(247,695,o),
(235,664,cs),
(3,52,ls),
(1,47,o),
(0,42,o),
(0,36,cs),
(0,14,o),
(19,-5,o),
(41,-5,cs)
);
},
{
closed = 1;
nodes = (
(458,249,l),
(458,323,l),
(104,323,l),
(104,249,l)
);
},
{
closed = 1;
nodes = (
(426,700,l),
(426,624,l),
(743,624,ls),
(764,624,o),
(781,641,o),
(781,662,cs),
(781,683,o),
(764,700,o),
(743,700,cs)
);
},
{
closed = 1;
nodes = (
(426,402,l),
(426,326,l),
(722,326,ls),
(743,326,o),
(760,343,o),
(760,364,cs),
(760,385,o),
(743,402,o),
(722,402,cs)
);
},
{
closed = 1;
nodes = (
(426,76,l),
(426,0,l),
(770,0,ls),
(791,0,o),
(808,17,o),
(808,38,cs),
(808,59,o),
(791,76,o),
(770,76,cs)
);
},
{
closed = 1;
nodes = (
(466,700,l),
(425,700,l),
(402,700,o),
(384,682,o),
(384,659,cs),
(384,41,ls),
(384,18,o),
(402,0,o),
(425,0,c),
(466,0,l)
);
},
{
closed = 1;
nodes = (
(1321,695,o),
(1303,710,o),
(1284,710,cs),
(1265,710,o),
(1247,695,o),
(1235,664,cs),
(1003,52,ls),
(1001,47,o),
(1000,42,o),
(1000,36,cs),
(1000,14,o),
(1019,-5,o),
(1041,-5,cs),
(1058,-5,o),
(1074,6,o),
(1079,21,cs),
(1295,620,l),
(1333,664,l)
);
},
{
closed = 1;
nodes = (
(1458,249,l),
(1458,323,l),
(1104,323,l),
(1104,249,l)
);
},
{
closed = 1;
nodes = (
(1426,700,l),
(1426,624,l),
(1743,624,ls),
(1764,624,o),
(1781,641,o),
(1781,662,cs),
(1781,683,o),
(1764,700,o),
(1743,700,cs)
);
},
{
closed = 1;
nodes = (
(1426,402,l),
(1426,326,l),
(1722,326,ls),
(1743,326,o),
(1760,343,o),
(1760,364,cs),
(1760,385,o),
(1743,402,o),
(1722,402,cs)
);
},
{
closed = 1;
nodes = (
(1426,76,l),
(1426,0,l),
(1770,0,ls),
(1791,0,o),
(1808,17,o),
(1808,38,cs),
(1808,59,o),
(1791,76,o),
(1770,76,cs)
);
},
{
closed = 1;
nodes = (
(1466,700,l),
(1425,700,l),
(1402,700,o),
(1384,682,o),
(1384,659,cs),
(1384,41,ls),
(1384,18,o),
(1402,0,o),
(1425,0,c),
(1466,0,l)
);
}
);
};
layerId = "65988B1E-DCE2-4AC3-A6FF-994A1050067D";
shapes = (
{
closed = 1;
nodes = (
(341,700,ls),
(322,700,o),
(306,686,o),
(292,654,cs),
(23,52,ls),
(21,47,o),
(20,42,o),
(20,36,cs),
(20,14,o),
(39,-5,o),
(61,-5,cs),
(78,-5,o),
(93,6,o),
(99,21,cs),
(358,616,ls),
(361,622,o),
(364,624,o),
(369,624,cs),
(723,624,ls),
(744,624,o),
(761,641,o),
(761,662,cs),
(761,683,o),
(744,700,o),
(723,700,cs)
);
},
{
closed = 1;
nodes = (
(458,209,l),
(458,283,l),
(164,283,l),
(164,209,l)
);
},
{
closed = 1;
nodes = (
(426,402,l),
(426,326,l),
(702,326,ls),
(723,326,o),
(740,343,o),
(740,364,cs),
(740,385,o),
(723,402,o),
(702,402,cs)
);
},
{
closed = 1;
nodes = (
(466,76,l),
(466,638,l),
(384,638,l),
(384,41,ls),
(384,18,o),
(402,0,o),
(425,0,cs),
(750,0,ls),
(771,0,o),
(788,17,o),
(788,38,cs),
(788,59,o),
(771,76,o),
(750,76,cs)
);
}
);
width = 843;
},
{
anchors = (
{
name = bottom;
pos = (300,0);
},
{
name = top;
pos = (300,700);
}
);
layerId = "6242D68C-0A25-4F05-8F2A-2075F7C4A210";
width = 600;
},
{
anchors = (
{
name = bottom;
pos = (300,0);
},
{
name = top;
pos = (300,700);
}
);
layerId = "3D52442A-254C-4C79-B742-A98FD72DF947";
width = 600;
}
);
metricLeft = "=A";
metricRight = "=E";
unicode = 198;
},
{
glyphname = B;
lastChange = "2021-08-20 20:34:11 +0000";
layers = (
{
anchors = (
{
name = bottom;
pos = (292,0);
},
{
name = center;
pos = (292,350);
},
{
name = top;
pos = (292,700);
}
);
background = {
shapes = (
{
attr = {
strokeWidth = 2;
};
closed = 0;
nodes = (
(122,665,l),
(122,42,l)
);
},
{
attr = {
strokeWidth = 2;
};
closed = 0;
nodes = (
(124,382,l),
(316,382,l)
);
},
{
attr = {
strokeWidth = 2;
};
closed = 0;
nodes = (
(112,42,l),
(351,42,ls),
(443,42,o),
(510,109,o),
(510,202,cs),
(510,315,o),
(440,381,o),
(319,382,c)
);
},
{
attr = {
strokeWidth = 2;
};
closed = 0;
nodes = (
(323,382,l),
(422,389,o),
(480,441,o),
(480,525,cs),
(480,612,o),
(427,663,o),
(332,663,cs),
(112,663,l)
);
}
);
};
layerId = "65988B1E-DCE2-4AC3-A6FF-994A1050067D";
shapes = (
{
closed = 1;
nodes = (
(353,0,ls),
(469,0,o),
(548,95,o),
(548,209,cs),
(548,290,o),
(496,370,o),
(415,392,c),
(417,372,l),
(474,400,o),
(519,458,o),
(519,522,cs),
(519,622,o),
(440,700,o),
(339,700,cs),
(121,700,ls),
(98,700,o),
(80,682,o),
(80,659,cs),
(80,41,ls),
(80,18,o),
(98,0,o),
(121,0,cs)
);
},
{
closed = 1;
nodes = (
(162,342,l),
(338,342,ls),
(415,342,o),
(467,288,o),
(467,209,cs),
(467,128,o),
(416,76,o),
(334,76,cs),
(162,76,l)
);
},
{
closed = 1;
nodes = (
(162,624,l),
(334,624,ls),
(397,624,o),
(438,584,o),
(438,522,cs),
(438,459,o),
(393,418,o),
(324,418,cs),
(162,418,l)
);
}
);
width = 591;
},
{
anchors = (
{
name = bottom;
pos = (344,0);
},
{
name = center;
pos = (344,350);
},
{
name = top;
pos = (344,700);
}
);
background = {
shapes = (
{
closed = 1;
nodes = (
(444,0,ls),
(571,0,o),
(682,90,o),
(682,216,cs),
(682,275,o),
(651,326,o),
(600,363,c),
(626,396,o),
(640,437,o),
(640,483,cs),
(640,623,o),
(540,700,o),
(403,700,cs),
(155,700,ls),
(108,700,o),
(70,661,o),
(70,615,cs),
(70,84,ls),
(70,38,o),
(108,0,o),
(155,0,cs)
);
},
{
closed = 1;
nodes = (
(240,529,l),
(402,529,ls),
(444,529,o),
(470,512,o),
(470,483,cs),
(470,449,o),
(446,428,o),
(406,428,cs),
(240,427,l)
);
},
{
closed = 1;
nodes = (
(240,278,l),
(448,278,ls),
(488,278,o),
(512,258,o),
(512,224,cs),
(512,190,o),
(488,170,o),
(449,170,cs),
(240,170,l)
);
},
{
attr = {
strokeWidth = 2;
};
closed = 0;
nodes = (
(155,696,l),
(155,0,l)
);
},
{
attr = {
strokeWidth = 2;
};
closed = 0;
nodes = (
(158,376,l),
(435,376,l)
);
},
{
attr = {
strokeWidth = 2;
};
closed = 0;
nodes = (
(155,0,l),
(428,0,ls),
(532,0,o),
(616,85,o),
(616,188,cs),
(616,291,o),
(534,374,o),
(432,376,c),
(516,378,o),
(584,447,o),
(584,532,cs),
(584,618,o),
(514,688,o),
(428,688,cs),
(155,688,l)
);
}
);
};
layerId = "6242D68C-0A25-4F05-8F2A-2075F7C4A210";
shapes = (
{
closed = 1;
nodes = (
(420,0,ls),
(558,0,o),
(648,85,o),
(648,216,cs),
(648,290,o),
(599,352,o),
(523,389,c),
(534,331,l),
(581,368,o),
(606,421,o),
(606,483,cs),
(606,614,o),
(516,700,o),
(379,700,cs),
(165,700,ls),
(118,700,o),
(80,661,o),
(80,615,cs),
(80,84,ls),
(80,38,o),
(118,0,o),
(165,0,cs)
);
},
{
closed = 1;
nodes = (
(236,298,l),
(414,298,ls),
(457,298,o),
(488,268,o),
(488,226,cs),
(488,182,o),
(457,150,o),
(415,150,cs),
(236,150,l)
);
},
{
closed = 1;
nodes = (
(236,560,l),
(368,560,ls),
(412,560,o),
(446,529,o),
(446,490,cs),
(446,440,o),
(414,418,o),
(372,418,cs),
(236,417,l)
);
}
);
width = 691;
},
{
associatedMasterId = "65988B1E-DCE2-4AC3-A6FF-994A1050067D";
background = {
shapes = (
{
attr = {
strokeWidth = 2;
};
closed = 0;
nodes = (
(121,696,l),
(121,0,l)
);
},
{
attr = {
strokeWidth = 2;
};
closed = 0;
nodes = (
(124,376,l),
(401,376,l)
);
},
{
attr = {
strokeWidth = 2;
};
closed = 0;
nodes = (
(121,0,l),
(394,0,ls),
(498,0,o),
(582,85,o),
(582,188,cs),
(582,291,o),
(500,374,o),
(398,376,c),
(482,378,o),
(550,447,o),
(550,532,cs),
(550,618,o),
(480,688,o),
(394,688,cs),
(121,688,l)
);
},
{
closed = 1;
nodes = (
(144,-10,o),
(162,8,o),
(162,31,cs),
(162,332,l),
(514,332,l),
(514,31,ls),
(514,8,o),
(532,-10,o),
(555,-10,cs),
(578,-10,o),
(596,8,o),
(596,31,cs),
(596,669,ls),
(596,692,o),
(578,710,o),
(555,710,cs),
(532,710,o),
(514,692,o),
(514,669,cs),
(514,408,l),
(162,408,l),
(162,669,ls),
(162,692,o),
(144,710,o),
(121,710,cs),
(98,710,o),
(80,692,o),
(80,669,cs),
(80,31,ls),
(80,8,o),
(98,-10,o),
(121,-10,cs)
);
}
);
};
layerId = "0051793E-74D6-4E6E-96B3-3FC0F2D83CCC";
name = "Original Skeleton";
shapes = (
{
attr = {
strokeWidth = 2;
};
closed = 0;
nodes = (
(101,696,l),
(101,0,l)
);
},
{
attr = {
strokeWidth = 2;
};
closed = 0;
nodes = (
(104,376,l),
(381,376,l)
);
},
{
attr = {
strokeWidth = 2;
};
closed = 0;
nodes = (
(101,0,l),
(374,0,ls),
(478,0,o),
(562,85,o),
(562,188,cs),
(562,291,o),
(480,374,o),
(378,376,c),
(462,378,o),
(530,447,o),
(530,532,cs),
(530,618,o),
(460,688,o),
(374,688,cs),
(101,688,l)
);
}
);
width = 583;
},
{
anchors = (
{
name = bottom;
pos = (262,0);
},
{
name = center;
pos = (275,350);
},
{
name = top;
pos = (254,700);
}
);
background = {
shapes = (
{
attr = {
strokeWidth = 2;
};
closed = 0;
nodes = (
(96,679,l),
(96,23,l)
);
},
{
attr = {
strokeWidth = 2;
};
closed = 0;
nodes = (
(98,382,l),
(299,382,l)
);
},
{
attr = {
strokeWidth = 2;
};
closed = 0;
nodes = (
(85,23,l),
(337,23,ls),
(435,23,o),
(505,94,o),
(505,193,cs),
(505,312,o),
(431,381,o),
(302,382,c)
);
},
{
attr = {
strokeWidth = 2;
};
closed = 0;
nodes = (
(307,382,l),
(411,389,o),
(472,443,o),
(472,532,cs),
(472,623,o),
(416,677,o),
(317,677,cs),
(85,677,l)
);
}
);
};
layerId = "3D52442A-254C-4C79-B742-A98FD72DF947";
shapes = (
{
closed = 1;
nodes = (
(344,0,ls),
(458,0,o),
(535,77,o),
(535,193,cs),
(535,282,o),
(487,350,o),
(403,379,c),
(403,368,l),
(465,396,o),
(502,448,o),
(502,526,cs),
(502,627,o),
(427,700,o),
(324,700,cs),
(103,700,ls),
(90,700,o),
(80,690,o),
(80,677,cs),
(80,23,ls),
(80,10,o),
(90,0,o),
(103,0,cs)
);
},
{
closed = 1;
nodes = (
(126,349,l),
(310,349,ls),
(430,349,o),
(489,286,o),
(489,193,cs),
(489,103,o),
(432,45,o),
(344,45,cs),
(126,45,l)
);
},
{
closed = 1;
nodes = (
(126,655,l),
(324,655,ls),
(406,655,o),
(456,600,o),
(456,526,cs),
(456,448,o),
(411,394,o),
(328,394,cs),
(126,394,l)
);
}
);
width = 578;
}
);
metricLeft = H;
unicode = 66;
},
{
glyphname = B.ss02;
lastChange = "2021-08-20 21:20:00 +0000";
layers = (
{
anchors = (
{
name = bottom;
pos = (272,0);
},
{
name = center;
pos = (272,350);
},
{
name = top;
pos = (272,700);
}
);
background = {
shapes = (
{
closed = 0;
nodes = (
(130,0,l),
(130,698,l)
);
},
{
closed = 1;
nodes = (
(332,624,ls),
(395,624,o),
(436,584,o),
(436,522,cs),
(436,459,o),
(391,418,o),
(322,418,cs),
(101,418,l),
(101,342,l),
(336,342,ls),
(413,342,o),
(465,288,o),
(465,209,cs),
(465,128,o),
(414,76,o),
(332,76,cs),
(99,76,l),
(99,0,l),
(351,0,ls),
(467,0,o),
(546,95,o),
(546,209,cs),
(546,282,o),
(504,354,o),
(436,384,c),
(483,415,o),
(517,466,o),
(517,522,cs),
(517,622,o),
(438,700,o),
(337,700,cs),
(99,700,l),
(99,624,l)
);
},
{
closed = 1;
nodes = (
(89,700,ls),
(66,701,o),
(48,682,o),
(48,659,cs),
(48,41,ls),
(48,18,o),
(66,0,o),
(89,0,cs),
(130,0,l),
(130,698,l)
);
}
);
};
layerId = "65988B1E-DCE2-4AC3-A6FF-994A1050067D";
shapes = (
{
closed = 1;
nodes = (
(351,0,ls),
(467,0,o),
(546,95,o),
(546,209,cs),
(546,290,o),
(494,370,o),
(413,392,c),
(415,372,l),
(472,400,o),
(517,458,o),
(517,522,cs),
(517,622,o),
(438,700,o),
(337,700,cs),
(121,700,ls),
(98,700,o),
(80,682,o),
(80,659,cs),
(80,41,ls),
(80,18,o),
(98,0,o),
(121,0,cs)
);
},
{
closed = 1;
nodes = (
(162,342,l),
(336,342,ls),
(413,342,o),
(465,288,o),
(465,209,cs),
(465,128,o),
(414,76,o),
(332,76,cs),
(162,76,l)
);
},
{
closed = 1;
nodes = (
(162,624,l),
(332,624,ls),
(395,624,o),
(436,584,o),
(436,522,cs),
(436,459,o),
(391,418,o),
(322,418,cs),
(162,418,l)
);
}
);
width = 589;
},
{
anchors = (
{
name = bottom;
pos = (319,0);
},
{
name = center;
pos = (319,350);
},
{
name = top;
pos = (319,700);
}
);
background = {
shapes = (
{
closed = 1;
nodes = (
(344,0,ls),
(458,0,o),
(535,77,o),
(535,193,cs),
(535,282,o),
(487,350,o),
(403,379,c),
(403,368,l),
(465,396,o),
(502,448,o),
(502,526,cs),
(502,627,o),
(427,700,o),
(324,700,cs),
(103,700,ls),
(90,700,o),
(80,690,o),
(80,677,cs),
(80,23,ls),
(80,10,o),
(90,0,o),
(103,0,cs)
);
},
{
closed = 1;
nodes = (
(126,349,l),
(310,349,ls),
(430,349,o),
(489,286,o),
(489,193,cs),
(489,103,o),
(432,45,o),
(344,45,cs),
(126,45,l)
);
},
{
closed = 1;
nodes = (
(126,655,l),
(324,655,ls),
(406,655,o),
(456,600,o),
(456,526,cs),
(456,448,o),
(411,394,o),
(328,394,cs),
(126,394,l)
);
}
);
};
layerId = "6242D68C-0A25-4F05-8F2A-2075F7C4A210";
shapes = (
{
closed = 1;
nodes = (
(380,0,ls),
(518,0,o),
(608,85,o),
(608,216,cs),
(608,290,o),
(559,352,o),
(483,389,c),
(494,331,l),
(541,368,o),
(566,421,o),
(566,483,cs),
(566,614,o),
(476,700,o),
(339,700,cs),
(165,700,ls),
(118,700,o),
(80,661,o),
(80,615,cs),
(80,84,ls),
(80,38,o),
(118,0,o),
(165,0,cs)
);
},
{
closed = 1;
nodes = (
(236,298,l),
(374,298,ls),
(417,298,o),
(448,268,o),
(448,226,cs),
(448,182,o),
(417,150,o),
(375,150,cs),
(236,150,l)
);
},
{
closed = 1;
nodes = (
(236,560,l),
(328,560,ls),
(372,560,o),
(406,529,o),
(406,490,cs),
(406,440,o),
(374,418,o),
(332,418,cs),
(236,417,l)
);
}
);
width = 651;
},
{
anchors = (
{
name = bottom;
pos = (255,0);
},
{
name = center;
pos = (255,350);
},
{
name = top;
pos = (255,700);
}
);
layerId = "3D52442A-254C-4C79-B742-A98FD72DF947";
shapes = (
{
closed = 1;
nodes = (
(299,0,ls),
(413,0,o),
(490,77,o),
(490,193,cs),
(490,282,o),
(442,350,o),
(358,379,c),
(358,368,l),
(420,396,o),
(457,448,o),
(457,526,cs),
(457,627,o),
(382,700,o),
(279,700,cs),
(103,700,ls),
(90,700,o),
(80,690,o),
(80,677,cs),
(80,23,ls),
(80,10,o),
(90,0,o),
(103,0,cs)
);
},
{
closed = 1;
nodes = (
(126,349,l),
(265,349,ls),
(385,349,o),
(444,286,o),
(444,193,cs),
(444,103,o),
(387,45,o),
(299,45,cs),
(126,45,l)
);
},
{
closed = 1;
nodes = (
(126,655,l),
(279,655,ls),
(361,655,o),
(411,600,o),
(411,526,cs),
(411,448,o),
(366,394,o),
(283,394,cs),
(126,394,l)
);
}
);
width = 533;
}
);
},
{
glyphname = C;
lastChange = "2021-08-21 19:06:30 +0000";
layers = (
{
anchors = (
{
name = bottom;
pos = (302,0);
},
{
name = top;
pos = (302,700);
}
);
background = {
anchors = (
{
name = bottom;
pos = (328,0);
},
{
name = top;
pos = (326,700);
}
);
shapes = (
{
attr = {
strokeWidth = 2;
};
closed = 0;
nodes = (
(523,513,l),
(523,513,o),
(501,680,o),
(333,680,cs),
(201,680,o),
(95,547,o),
(95,368,cs),
(95,153,o),
(193,28,o),
(335,28,cs),
(519,28,o),
(532,233,o),
(532,233,c)
);
},
{
closed = 1;
nodes = (
(443,-15,o),
(534,63,o),
(561,180,cs),
(568,213,o),
(552,237,o),
(527,237,cs),
(507,237,o),
(493,229,o),
(487,201,cs),
(468,115,o),
(413,60,o),
(335,60,cs),
(216,60,o),
(137,176,o),
(137,350,cs),
(137,523,o),
(217,640,o),
(331,640,cs),
(407,640,o),
(453,591,o),
(465,543,cs),
(471,521,o),
(485,510,o),
(505,510,cs),
(530,510,o),
(546,528,o),
(546,549,cs),
(546,633,o),
(425,715,o),
(326,715,cs),
(163,715,o),
(55,574,o),
(55,348,cs),
(55,131,o),
(162,-15,o),
(328,-15,cs)
);
},
{
closed = 1;
nodes = (
(449,-15,o),
(530,61,o),
(558,183,cs),
(565,213,o),
(549,238,o),
(521,238,cs),
(504,238,o),
(488,229,o),
(483,201,cs),
(468,114,o),
(413,60,o),
(328,60,cs),
(205,60,o),
(137,176,o),
(137,350,cs),
(137,523,o),
(219,640,o),
(327,640,cs),
(406,640,o),
(453,587,o),
(470,544,cs),
(479,521,o),
(493,510,o),
(512,510,cs),
(537,510,o),
(554,528,o),
(548,563,cs),
(538,621,o),
(465,715,o),
(327,715,cs),
(165,715,o),
(55,574,o),
(55,348,cs),
(55,131,o),
(158,-15,o),
(327,-15,cs)
);
}
);
};
layerId = "65988B1E-DCE2-4AC3-A6FF-994A1050067D";
shapes = (
{
closed = 1;
nodes = (
(444,-15,o),
(528,46,o),
(550,146,cs),
(552,154,o),
(552,158,o),
(552,165,cs),
(552,186,o),
(534,203,o),
(512,203,cs),
(489,203,o),
(477,187,o),
(470,157,cs),
(454,93,o),
(397,60,o),
(337,60,cs),
(214,60,o),
(136,182,o),
(136,350,cs),
(136,518,o),
(211,640,o),
(328,640,cs),
(400,640,o),
(449,611,o),
(466,558,cs),
(475,529,o),
(485,512,o),
(508,512,cs),
(530,512,o),
(548,529,o),
(548,550,cs),
(548,557,o),
(548,561,o),
(546,569,cs),
(528,654,o),
(438,715,o),
(328,715,cs),
(167,715,o),
(54,562,o),
(54,351,cs),
(54,139,o),
(165,-15,o),
(337,-15,cs)
);
}
);
width = 604;
},
{
anchors = (
{
name = bottom;
pos = (339,0);
},
{
name = top;
pos = (339,700);
}
);
background = {
shapes = (
{
attr = {
lineCapEnd = "2";
lineCapStart = "2";
strokeWidth = 2;
};
closed = 0;
nodes = (
(562,243,l),
(562,117,o),
(459,62,o),
(373,62,cs),
(220,62,o),
(145,191,o),
(145,347,cs),
(145,503,o),
(206,634,o),
(370,634,cs),
(479,634,o),
(543,565,o),
(543,491,c)
);
},
{
closed = 1;
nodes = (
(456,-15,o),
(526,16,o),
(578,69,cs),
(609,101,o),
(628,136,o),
(628,178,cs),
(628,219,o),
(595,252,o),
(554,252,cs),
(521,252,o),
(492,230,o),
(483,200,cs),
(469,153,o),
(434,125,o),
(374,125,cs),
(273,125,o),
(213,207,o),
(213,349,cs),
(213,486,o),
(273,577,o),
(373,575,cs),
(427,574,o),
(451,547,o),
(462,523,cs),
(474,498,o),
(499,481,o),
(529,481,cs),
(569,481,o),
(602,513,o),
(602,563,cs),
(602,600,o),
(583,632,o),
(549,660,cs),
(504,697,o),
(448,715,o),
(373,715,cs),
(178,715,o),
(56,562,o),
(56,352,cs),
(56,162,o),
(154,-15,o),
(368,-15,cs)
);
}
);
};
layerId = "6242D68C-0A25-4F05-8F2A-2075F7C4A210";
shapes = (
{
closed = 1;
nodes = (
(456,-15,o),
(526,16,o),
(578,69,cs),
(609,101,o),
(628,136,o),
(628,178,cs),
(628,219,o),
(595,252,o),
(554,252,cs),
(521,252,o),
(492,230,o),
(483,200,cs),
(469,153,o),
(434,125,o),
(374,125,cs),
(273,125,o),
(213,207,o),
(213,349,cs),
(213,486,o),
(273,577,o),
(381,576,cs),
(438,575,o),
(455,553,o),
(471,531,cs),
(485,510,o),
(507,490,o),
(541,490,cs),
(582,490,o),
(609,519,o),
(609,560,cs),
(609,606,o),
(574,651,o),
(520,680,cs),
(480,702,o),
(429,715,o),
(373,715,cs),
(178,715,o),
(56,562,o),
(56,352,cs),
(56,162,o),
(154,-15,o),
(368,-15,cs)
);
}
);
width = 673;
},
{
anchors = (
{
name = bottom;
pos = (341,0);
},
{
name = top;
pos = (331,700);
}
);
associatedMasterId = "65988B1E-DCE2-4AC3-A6FF-994A1050067D";
background = {
shapes = (
{
closed = 1;
nodes = (
(554,179,o),
(478,58,o),
(346,58,cs),
(215,58,o),
(139,179,o),
(139,350,cs),
(139,521,o),
(215,643,o),
(346,643,cs),
(478,643,o),
(554,521,o),
(554,350,cs)
);
},
{
closed = 1;
nodes = (
(631,571,o),
(528,715,o),
(346,715,cs),
(175,715,o),
(57,571,o),
(57,350,cs),
(57,130,o),
(165,-14,o),
(346,-14,cs),
(528,-14,o),
(631,130,o),
(631,350,cs)
);
},
{
closed = 1;
nodes = (
(573,216,o),
(554,237,o),
(529,237,cs),
(509,237,o),
(495,222,o),
(491,203,cs),
(473,121,o),
(409,62,o),
(340,62,cs),
(214,62,o),
(141,168,o),
(141,350,cs),
(141,534,o),
(214,640,o),
(338,640,cs),
(407,640,o),
(462,593,o),
(476,541,cs),
(480,523,o),
(496,510,o),
(515,510,cs),
(537,510,o),
(556,529,o),
(556,551,cs),
(556,555,o),
(555,559,o),
(554,563,cs),
(528,648,o),
(437,715,o),
(338,715,cs),
(162,715,o),
(59,581,o),
(59,350,cs),
(59,120,o),
(162,-13,o),
(332,-13,cs),
(445,-13,o),
(540,75,o),
(565,180,c)
);
},
{
closed = 1;
nodes = (
(573,216,o),
(554,237,o),
(529,237,cs),
(509,237,o),
(495,222,o),
(491,203,cs),
(473,121,o),
(409,62,o),
(340,62,cs),
(214,62,o),
(141,168,o),
(141,350,cs),
(141,534,o),
(214,640,o),
(338,640,cs),
(407,640,o),
(462,593,o),
(476,541,cs),
(480,523,o),
(496,510,o),
(515,510,cs),
(537,510,o),
(556,529,o),
(556,551,cs),
(556,555,o),
(555,559,o),
(554,563,cs),
(528,648,o),
(437,715,o),
(338,715,cs),
(162,715,o),
(59,581,o),
(59,350,cs),
(59,120,o),
(162,-13,o),
(332,-13,cs),
(445,-13,o),
(540,75,o),
(565,180,c)
);
},
{
closed = 1;
nodes = (
(573,216,o),
(554,237,o),
(529,237,cs),
(509,237,o),
(495,222,o),
(491,203,cs),
(473,121,o),
(409,62,o),
(340,62,cs),
(214,62,o),
(141,168,o),
(141,350,cs),
(141,534,o),
(214,640,o),
(338,640,cs),
(407,640,o),
(462,593,o),
(476,541,cs),
(480,523,o),
(496,510,o),
(515,510,cs),
(537,510,o),
(556,529,o),
(556,551,cs),
(556,555,o),
(555,559,o),
(554,563,cs),
(528,648,o),
(437,715,o),
(338,715,cs),
(162,715,o),
(59,581,o),
(59,350,cs),
(59,120,o),
(162,-13,o),
(332,-13,cs),
(445,-13,o),
(540,75,o),
(565,180,c)
);
}
);
};
layerId = "E50927C1-70C4-4F90-A1B6-5BCAC655974E";
name = "Original Skeleton";
shapes = (
{
attr = {
strokeWidth = 2;
};
closed = 0;
nodes = (
(535,218,l),
(512,61,o),
(411,-7,o),
(315,-7,cs),
(144,-7,o),
(61,153,o),
(61,346,cs),
(61,539,o),
(129,701,o),
(312,701,cs),
(420,701,o),
(514,616,o),
(514,525,c)
);
}
);
width = 622;
},
{
anchors = (
{
name = bottom;
pos = (291,0);
},
{
name = top;
pos = (291,700);
}
);
background = {
shapes = (
{
attr = {
strokeWidth = 2;
};
closed = 0;
nodes = (
(499,516,l),
(499,516,o),
(468,691,o),
(305,691,cs),
(180,691,o),
(68,552,o),
(68,364,cs),
(68,138,o),
(170,8,o),
(313,8,cs),
(504,8,o),
(517,222,o),
(517,222,c)
);
},
{
pos = (-11,0);
ref = O;
}
);
};
layerId = "3D52442A-254C-4C79-B742-A98FD72DF947";
shapes = (
{
closed = 1;
nodes = (
(454,-15,o),
(516,59,o),
(539,158,cs),
(540,161,o),
(540,165,o),
(541,168,cs),
(543,181,o),
(533,194,o),
(518,194,cs),
(507,194,o),
(498,186,o),
(495,175,cs),
(476,94,o),
(433,29,o),
(326,29,cs),
(174,29,o),
(91,162,o),
(91,354,cs),
(91,533,o),
(174,672,o),
(322,672,cs),
(412,672,o),
(468,619,o),
(490,533,cs),
(493,520,o),
(502,513,o),
(514,513,cs),
(528,513,o),
(535,523,o),
(535,539,cs),
(535,544,o),
(533,559,o),
(530,568,cs),
(509,638,o),
(447,716,o),
(325,716,cs),
(148,716,o),
(45,557,o),
(45,350,cs),
(45,134,o),
(148,-15,o),
(328,-15,cs)
);
}
);
width = 592;
}
);
metricLeft = O;
unicode = 67;
},
{
glyphname = D;
lastChange = "2021-08-20 20:48:54 +0000";
layers = (
{
anchors = (
{
name = bottom;
pos = (286,0);
},
{
name = center;
pos = (306,350);
},
{
name = top;
pos = (286,700);
}
);
background = {
shapes = (
{
closed = 1;
nodes = (
(144,664,ls),
(144,687,o),
(126,705,o),
(103,705,cs),
(80,705,o),
(62,687,o),
(62,664,cs),
(62,36,ls),
(62,13,o),
(80,-5,o),
(103,-5,cs),
(126,-5,o),
(144,13,o),
(144,36,cs)
);
},
{
closed = 1;
nodes = (
(568,664,ls),
(568,687,o),
(550,705,o),
(527,705,cs),
(504,705,o),
(486,687,o),
(486,664,cs),
(486,36,ls),
(486,13,o),
(504,-5,o),
(527,-5,cs),
(550,-5,o),
(568,13,o),
(568,36,cs)
);
},
{
closed = 1;
nodes = (
(103,408,l),
(103,332,l),
(527,332,l),
(527,408,l)
);
},
{
attr = {
strokeWidth = 2;
};
closed = 0;
nodes = (
(103,665,l),
(103,31,l)
);
},
{
attr = {
strokeWidth = 2;
};
closed = 0;
nodes = (
(113,659,l),
(295,659,ls),
(450,659,o),
(527,516,o),
(527,345,cs),
(527,173,o),
(449,31,o),
(275,31,cs),
(113,31,l)
);
}
);
};
layerId = "65988B1E-DCE2-4AC3-A6FF-994A1050067D";
shapes = (
{
closed = 1;
nodes = (
(281,0,ls),
(467,0,o),
(572,124,o),
(572,354,cs),
(572,540,o),
(482,700,o),
(298,700,cs),
(154,700,l),
(154,624,l),
(298,624,ls),
(429,624,o),
(490,507,o),
(490,354,cs),
(490,166,o),
(423,76,o),
(278,76,cs),
(154,76,l),
(154,0,l)
);
},
{
closed = 1;
nodes = (
(162,0,l),
(162,700,l),
(121,700,ls),
(98,700,o),
(80,682,o),
(80,659,cs),
(80,41,ls),
(80,18,o),
(98,0,o),
(121,0,cs)
);
}
);
width = 621;
},
{
anchors = (
{
name = bottom;
pos = (296,0);
},
{
name = center;
pos = (315,350);
},
{
name = top;
pos = (315,700);
}
);
background = {
shapes = (
{
attr = {
strokeWidth = 2;
};
closed = 0;
nodes = (
(164,624,l),
(164,72,l)
);
},
{
attr = {
strokeWidth = 2;
};
closed = 0;
nodes = (
(172,619,l),
(331,619,ls),
(465,619,o),
(532,494,o),
(532,345,cs),
(532,196,o),
(465,72,o),
(313,72,cs),
(172,72,l)
);
},
{
closed = 1;
nodes = (
(490,-14,o),
(626,136,o),
(626,351,cs),
(626,566,o),
(495,715,o),
(303,715,cs),
(111,715,o),
(-30,566,o),
(-30,351,cs),
(-30,136,o),
(106,-14,o),
(298,-14,cs)
);
},
{
closed = 1;
nodes = (
(192,126,o),
(130,220,o),
(130,351,cs),
(130,482,o),
(192,575,o),
(298,575,cs),
(404,575,o),
(466,482,o),
(466,351,cs),
(466,220,o),
(404,126,o),
(298,126,cs)
);
}
);
};
layerId = "6242D68C-0A25-4F05-8F2A-2075F7C4A210";
shapes = (
{
closed = 1;
nodes = (
(351,0,ls),
(533,0,o),
(650,149,o),
(650,349,cs),
(650,560,o),
(533,700,o),
(370,700,cs),
(213,700,l),
(213,550,l),
(362,550,ls),
(443,550,o),
(493,479,o),
(493,349,cs),
(493,230,o),
(441,150,o),
(351,150,cs),
(213,150,l),
(213,0,l)
);
},
{
closed = 1;
nodes = (
(236,0,l),
(236,700,l),
(158,700,ls),
(115,700,o),
(80,665,o),
(80,622,cs),
(80,78,ls),
(80,35,o),
(115,0,o),
(158,0,cs)
);
}
);
width = 688;
},
{
anchors = (
{
name = bottom;
pos = (284,0);
},
{
name = center;
pos = (284,350);
},
{
name = top;
pos = (284,700);
}
);
associatedMasterId = "65988B1E-DCE2-4AC3-A6FF-994A1050067D";
background = {
shapes = (
{
closed = 1;
nodes = (
(162,664,ls),
(162,687,o),
(144,705,o),
(121,705,cs),
(98,705,o),
(80,687,o),
(80,664,cs),
(80,36,ls),
(80,13,o),
(98,-5,o),
(121,-5,cs),
(144,-5,o),
(162,13,o),
(162,36,cs)
);
},
{
closed = 1;
nodes = (
(586,664,ls),
(586,687,o),
(568,705,o),
(545,705,cs),
(522,705,o),
(504,687,o),
(504,664,cs),
(504,36,ls),
(504,13,o),
(522,-5,o),
(545,-5,cs),
(568,-5,o),
(586,13,o),
(586,36,cs)
);
},
{
closed = 1;
nodes = (
(121,408,l),
(121,332,l),
(545,332,l),
(545,408,l)
);
}
);
};
layerId = "1996806A-A5F2-424C-A042-ACA4E2FCE14A";
name = "Original Skeleton";
shapes = (
{
attr = {
strokeWidth = 2;
};
closed = 0;
nodes = (
(101,696,l),
(101,0,l)
);
},
{
attr = {
strokeWidth = 2;
};
closed = 0;
nodes = (
(101,690,l),
(300,690,ls),
(471,690,o),
(555,533,o),
(555,345,cs),
(555,156,o),
(470,0,o),
(278,0,cs),
(101,0,l)
);
}
);
width = 647;
},
{
anchors = (
{
name = bottom;
pos = (262,0);
},
{
name = center;
pos = (280,362);
},
{
name = top;
pos = (262,700);
}
);
background = {
shapes = (
{
attr = {
strokeWidth = 2;
};
closed = 0;
nodes = (
(78,683,l),
(78,23,l),
(266,23,ls),
(447,23,o),
(528,170,o),
(528,350,cs),
(528,527,o),
(448,677,o),
(288,677,cs),
(98,677,l)
);
}
);
};
layerId = "3D52442A-254C-4C79-B742-A98FD72DF947";
shapes = (
{
closed = 1;
nodes = (
(266,0,ls),
(447,0,o),
(552,129,o),
(552,350,cs),
(552,553,o),
(443,700,o),
(276,700,cs),
(114,700,l),
(114,655,l),
(276,655,ls),
(416,655,o),
(506,526,o),
(506,350,cs),
(506,175,o),
(435,46,o),
(266,46,cs),
(115,46,l),
(115,0,l)
);
},
{
closed = 1;
nodes = (
(126,0,l),
(126,700,l),
(103,700,ls),
(90,700,o),
(80,690,o),
(80,677,cs),
(80,23,ls),
(80,10,o),
(90,0,o),
(103,0,cs)
);
}
);
width = 602;
}
);
metricLeft = H;
unicode = 68;
},
{
glyphname = Eth;
lastChange = "2021-08-20 20:59:36 +0000";
layers = (
{
background = {
shapes = (
{
attr = {
lineCapEnd = "2";
lineCapStart = "2";
strokeHeight = 78;
strokeWidth = 78;
};
closed = 0;
nodes = (
(34,370,l),
(369,370,l)
);
},
{
pos = (51,0);
ref = D;
}
);
};
layerId = "65988B1E-DCE2-4AC3-A6FF-994A1050067D";
shapes = (
{
closed = 1;
nodes = (
(69.1,409,ls),
(47.561,409,o),
(30.1,391.539,o),
(30.1,370,cs),
(30.1,348.461,o),
(47.561,331,o),
(69.1,331,cs),
(333.9,331,ls),
(355.439,331,o),
(372.9,348.461,o),
(372.9,370,cs),
(372.9,391.539,o),
(355.439,409,o),
(333.9,409,cs)
);
},
{
pos = (51,0);
ref = D;
}
);
width = 698;
},
{
layerId = "6242D68C-0A25-4F05-8F2A-2075F7C4A210";
width = 600;
},
{
layerId = "3D52442A-254C-4C79-B742-A98FD72DF947";
shapes = (
{
ref = D;
},
{
ref = strokeshortcomb;
}
);
width = 602;
}
);
unicode = 208;
},
{
glyphname = E;
lastChange = "2021-08-20 20:30:36 +0000";
layers = (
{
anchors = (
{
name = bottom;
pos = (282,0);
},
{
name = ogonek;
pos = (424,0);
},
{
name = top;
pos = (282,700);
},
{
name = topleft;
pos = (20,700);
}
);
background = {
shapes = (
{
attr = {
strokeWidth = 2;
};
closed = 0;
nodes = (
(502,40,l),
(120,40,l),
(123,663,l),
(476,663,l)
);
},
{
attr = {
strokeWidth = 2;
};
closed = 0;
nodes = (
(123,366,l),
(453,366,l)
);
}
);
};
guides = (
{
pos = (439,0);
}
);
layerId = "65988B1E-DCE2-4AC3-A6FF-994A1050067D";
shapes = (
{
closed = 1;
nodes = (
(162,0,l),
(162,700,l),
(121,700,ls),
(98,700,o),
(80,682,o),
(80,659,cs),
(80,41,ls),
(80,18,o),
(98,0,o),
(121,0,cs)
);
},
{
closed = 1;
nodes = (
(452,624,ls),
(474,624,o),
(490,640,o),
(490,662,cs),
(490,684,o),
(474,700,o),
(452,700,cs),
(122,700,l),
(122,624,l)
);
},
{
closed = 1;
nodes = (
(422,323,ls),
(444,323,o),
(460,339,o),
(460,361,cs),
(460,383,o),
(444,399,o),
(422,399,cs),
(122,399,l),
(122,323,l)
);
},
{
closed = 1;
nodes = (
(462,0,ls),
(484,0,o),
(500,16,o),
(500,38,cs),
(500,60,o),
(484,76,o),
(462,76,cs),
(129,76,l),
(129,0,l)
);
}
);
width = 545;
},
{
anchors = (
{
name = bottom;
pos = (314,0);
},
{
name = ogonek;
pos = (392,0);
},
{
name = top;
pos = (300,700);
},
{
name = topleft;
pos = (20,700);
}
);
background = {
shapes = (
{
attr = {
strokeWidth = 2;
};
closed = 0;
nodes = (
(522,80,l),
(140,80,l)
);
},
{
attr = {
strokeWidth = 2;
};
closed = 0;
nodes = (
(123,366,l),
(453,366,l)
);
},
{
attr = {
strokeWidth = 2;
};
closed = 0;
nodes = (
(128,623,l),
(481,623,l)
);
},
{
closed = 0;
nodes = (
(160,40,l),
(163,663,l)
);
},
{
closed = 1;
nodes = (
(204,-8,o),
(240,28,o),
(240,72,cs),
(240,628,ls),
(240,672,o),
(204,708,o),
(160,708,cs),
(116,708,o),
(80,672,o),
(80,628,cs),
(80,72,ls),
(80,28,o),
(116,-8,o),
(160,-8,cs)
);
},
{
closed = 1;
nodes = (
(674,628,ls),
(674,672,o),
(638,708,o),
(594,708,cs),
(550,708,o),
(514,672,o),
(514,628,cs),
(514,72,ls),
(514,28,o),
(550,-8,o),
(594,-8,cs),
(638,-8,o),
(674,28,o),
(674,72,cs)
);
},
{
closed = 1;
nodes = (
(188,431,l),
(188,281,l),
(605,281,l),
(605,431,l)
);
}
);
};
layerId = "6242D68C-0A25-4F05-8F2A-2075F7C4A210";
shapes = (
{
closed = 1;
nodes = (
(236,0,l),
(236,700,l),
(158,700,ls),
(115,700,o),
(80,665,o),
(80,622,cs),
(80,77,ls),
(80,34,o),
(115,-2,o),
(158,-1,cs)
);
},
{
closed = 1;
nodes = (
(502,560,ls),
(541,560,o),
(572,591,o),
(572,630,cs),
(572,669,o),
(541,700,o),
(502,700,cs),
(183,700,l),
(183,560,l)
);
},
{
closed = 1;
nodes = (
(463,285,ls),
(502,285,o),
(533,316,o),
(533,355,cs),
(533,394,o),
(502,425,o),
(463,425,cs),
(188,425,l),
(188,285,l)
);
},
{
closed = 1;
nodes = (
(515,0,ls),
(554,0,o),
(585,31,o),
(585,70,cs),
(585,109,o),
(554,140,o),
(515,140,cs),
(195,140,l),
(195,0,l)
);
}
);
width = 627;
},
{
anchors = (
{
name = bottom;
pos = (282,0);
},
{
name = ogonek;
pos = (505,56);
},
{
name = top;
pos = (282,700);
},
{
name = topleft;
pos = (20,700);
}
);
associatedMasterId = "65988B1E-DCE2-4AC3-A6FF-994A1050067D";
layerId = "809ED9A0-A97A-4F6B-ABDD-1F4CA130B89A";
name = "Original Skeleton";
shapes = (
{
attr = {
strokeWidth = 2;
};
closed = 0;
nodes = (
(101,696,l),
(101,0,l),
(561,0,l)
);
},
{
attr = {
strokeWidth = 2;
};
closed = 0;
nodes = (
(104,690,l),
(521,690,l)
);
},
{
attr = {
strokeWidth = 2;
};
closed = 0;
nodes = (
(104,366,l),
(411,366,l)
);
}
);
width = 564;
},
{
anchors = (
{
name = bottom;
pos = (273,0);
},
{
name = ogonek;
pos = (427,0);
},
{
name = top;
pos = (273,700);
},
{
name = topleft;
pos = (18,700);
}
);
background = {
shapes = (
{
attr = {
strokeWidth = 2;
};
closed = 0;
nodes = (
(481,24,l),
(125,24,l),
(128,675,l),
(453,675,l)
);
},
{
attr = {
strokeWidth = 2;
};
closed = 0;
nodes = (
(128,367,l),
(443,367,l)
);
},
{
closed = 1;
nodes = (
(127,700,l),
(127,624,l),
(444,624,ls),
(465,624,o),
(482,641,o),
(482,662,cs),
(482,683,o),
(465,700,o),
(444,700,cs)
);
},
{
closed = 1;
nodes = (
(127,402,l),
(127,326,l),
(423,326,ls),
(444,326,o),
(461,343,o),
(461,364,cs),
(461,385,o),
(444,402,o),
(423,402,cs)
);
},
{
closed = 1;
nodes = (
(127,76,l),
(127,0,l),
(471,0,ls),
(492,0,o),
(509,17,o),
(509,38,cs),
(509,59,o),
(492,76,o),
(471,76,cs)
);
},
{
closed = 1;
nodes = (
(167,700,l),
(126,700,l),
(103,700,o),
(85,682,o),
(85,659,cs),
(85,41,ls),
(85,18,o),
(103,0,o),
(126,0,c),
(167,0,l)
);
}
);
};
layerId = "3D52442A-254C-4C79-B742-A98FD72DF947";
shapes = (
{
closed = 1;
nodes = (
(126,0,l),
(126,700,l),
(103,700,ls),
(90,700,o),
(80,690,o),
(80,677,cs),
(80,23,ls),
(80,10,o),
(90,0,o),
(103,0,cs)
);
},
{
closed = 1;
nodes = (
(450,654,ls),
(463,654,o),
(473,664,o),
(473,677,cs),
(473,690,o),
(463,700,o),
(450,700,cs),
(106,700,l),
(106,654,l)
);
},
{
closed = 1;
nodes = (
(420,344,ls),
(433,344,o),
(443,354,o),
(443,367,cs),
(443,380,o),
(433,390,o),
(420,390,cs),
(105,390,l),
(105,344,l)
);
},
{
closed = 1;
nodes = (
(448,0,ls),
(461,0,o),
(471,10,o),
(471,23,cs),
(471,36,o),
(461,46,o),
(448,46,cs),
(111,46,l),
(111,0,l)
);
}
);
width = 531;
}
);
metricLeft = "=H";
unicode = 69;
},
{
glyphname = E.ss02;
lastChange = "2021-08-18 21:01:12 +0000";
layers = (
{
background = {
shapes = (
{
closed = 1;
nodes = (
(162,664,ls),
(162,687,o),
(144,705,o),
(121,705,cs),
(98,705,o),
(80,687,o),
(80,664,cs),
(80,36,ls),
(80,13,o),
(98,-5,o),
(121,-5,cs),
(144,-5,o),
(162,13,o),
(162,36,cs)
);
},
{
closed = 1;
nodes = (
(586,664,ls),
(586,687,o),
(568,705,o),
(545,705,cs),
(522,705,o),
(504,687,o),
(504,664,cs),
(504,36,ls),
(504,13,o),
(522,-5,o),
(545,-5,cs),
(568,-5,o),
(586,13,o),
(586,36,cs)
);
},
{
closed = 1;
nodes = (
(121,408,l),
(121,332,l),
(545,332,l),
(545,408,l)
);
}
);
};
layerId = "65988B1E-DCE2-4AC3-A6FF-994A1050067D";
shapes = (
{
closed = 1;
nodes = (
(130,700,l),
(130,624,l),
(492,624,ls),
(513,624,o),
(530,641,o),
(530,662,cs),
(530,683,o),
(513,700,o),
(492,700,cs)
);
},
{
closed = 1;
nodes = (
(122,399,l),
(122,323,l),
(422,323,ls),
(443,323,o),
(460,340,o),
(460,361,cs),
(460,382,o),
(443,399,o),
(422,399,cs)
);
},
{
closed = 1;
nodes = (
(130,76,l),
(130,0,l),
(502,0,ls),
(523,0,o),
(540,17,o),
(540,38,cs),
(540,59,o),
(523,76,o),
(502,76,cs)
);
},
{
closed = 1;
nodes = (
(162,700,l),
(121,700,ls,{
name = "💚";
}),
(98,700,o),
(80,682,o),
(80,659,cs),
(80,41,ls),
(80,18,o),
(98,0,o),
(121,0,cs,{
name = "💚";
}),
(162,0,l)
);
}
);
width = 585;
},
{
layerId = "6242D68C-0A25-4F05-8F2A-2075F7C4A210";
width = 600;
},
{
layerId = "3D52442A-254C-4C79-B742-A98FD72DF947";
width = 600;
}
);
},
{
glyphname = Eogonek;
lastChange = "2021-08-18 18:37:52 +0000";
layers = (
{
layerId = "65988B1E-DCE2-4AC3-A6FF-994A1050067D";
shapes = (
{
ref = E;
},
{
closed = 1;
nodes = (
(432,-113,o),
(424,-121,o),
(408,-121,cs),
(388,-121,o),
(384,-109,o),
(384,-101,cs),
(384,-60,o),
(504,-34,o),
(504,35,cs),
(504,36,l),
(430,45,l),
(428,23,ls),
(425,-7,o),
(314,-31,o),
(314,-109,cs),
(314,-160,o),
(359,-183,o),
(406,-185,cs),
(432,-186,o),
(468,-181,o),
(498,-146,cs),
(504,-139,o),
(508,-131,o),
(508,-121,cs),
(508,-101,o),
(494,-87,o),
(474,-87,cs),
(463,-87,o),
(454,-91,o),
(447,-98,cs)
);
}
);
width = 564;
},
{
layerId = "6242D68C-0A25-4F05-8F2A-2075F7C4A210";
width = 600;
},
{
layerId = "3D52442A-254C-4C79-B742-A98FD72DF947";
shapes = (
{
ref = E;
}
);
width = 531;
}
);
unicode = 280;
},
{
glyphname = F;
lastChange = "2021-08-20 20:33:05 +0000";
layers = (
{
layerId = "65988B1E-DCE2-4AC3-A6FF-994A1050067D";
shapes = (
{
closed = 1;
nodes = (
(432,624,ls),
(453,624,o),
(470,641,o),
(470,662,cs),
(470,683,o),
(453,700,o),
(432,700,cs),
(139,700,l),
(139,624,l)
);
},
{
closed = 1;
nodes = (
(412,323,ls),
(433,323,o),
(450,340,o),
(450,361,cs),
(450,382,o),
(433,399,o),
(412,399,cs),
(123,399,l),
(123,323,l)
);
},
{
closed = 1;
nodes = (
(144,-10,o),
(162,8,o),
(162,31,cs),
(162,700,l),
(121,700,ls,{
name = "💚";
}),
(98,700,o),
(80,682,o),
(80,659,cs),
(80,31,ls),
(80,8,o),
(98,-10,o),
(121,-10,cs)
);
}
);
width = 510;
},
{
layerId = "6242D68C-0A25-4F05-8F2A-2075F7C4A210";
shapes = (
{
closed = 1;
nodes = (
(478,560,ls),
(517,560,o),
(548,591,o),
(548,630,cs),
(548,669,o),
(517,700,o),
(478,700,cs),
(183,700,l),
(183,560,l)
);
},
{
closed = 1;
nodes = (
(460,286,ls),
(499,286,o),
(530,317,o),
(530,356,cs),
(530,395,o),
(499,426,o),
(460,426,cs),
(188,426,l),
(188,286,l)
);
},
{
closed = 1;
nodes = (
(201,-10,o),
(236,25,o),
(236,68,cs),
(236,700,l),
(158,700,ls,{
name = "💚";
}),
(115,700,o),
(80,665,o),
(80,622,cs),
(80,68,ls),
(80,25,o),
(115,-10,o),
(158,-10,cs)
);
}
);
width = 588;
},
{
associatedMasterId = "65988B1E-DCE2-4AC3-A6FF-994A1050067D";
layerId = "AF8F5731-F07F-4E71-B0D5-E02C60E10B50";
name = "Original Skeleton";
shapes = (
{
attr = {
strokeWidth = 2;
};
closed = 0;
nodes = (
(101,696,l),
(101,-2,l)
);
},
{
attr = {
strokeWidth = 2;
};
closed = 0;
nodes = (
(107,690,l),
(530,690,l)
);
},
{
attr = {
strokeWidth = 2;
};
closed = 0;
nodes = (
(105,366,l),
(420,366,l)
);
}
);
width = 517;
},
{
layerId = "3D52442A-254C-4C79-B742-A98FD72DF947";
shapes = (
{
closed = 1;
nodes = (
(420,654,ls),
(433,654,o),
(443,664,o),
(443,677,cs),
(443,690,o),
(433,700,o),
(420,700,cs),
(106,700,l),
(106,654,l)
);
},
{
closed = 1;
nodes = (
(400,344,ls),
(413,344,o),
(423,354,o),
(423,367,cs),
(423,380,o),
(413,390,o),
(400,390,cs),
(105,390,l),
(105,344,l)
);
},
{
closed = 1;
nodes = (
(116,-10,o),
(126,0,o),
(126,13,cs),
(126,700,l),
(103,700,ls,{
name = "💚";
}),
(90,700,o),
(80,690,o),
(80,677,cs),
(80,13,ls),
(80,0,o),
(90,-10,o),
(103,-10,cs)
);
}
);
width = 483;
}
);
metricLeft = H;
unicode = 70;
},
{
glyphname = G;
lastChange = "2021-08-19 13:43:00 +0000";
layers = (
{
anchors = (
{
name = bottom;
pos = (305,0);
},
{
name = top;
pos = (305,700);
}
);
background = {
anchors = (
{
name = bottom;
pos = (316,0);
},
{
name = top;
pos = (327,700);
}
);
shapes = (
{
attr = {
strokeWidth = 2;
};
closed = 0;
nodes = (
(513,542,l),
(502,621,o),
(434,677,o),
(341,677,cs),
(187,677,o),
(91,551,o),
(91,351,cs),
(91,160,o),
(197,25,o),
(348,25,cs),
(423,25,o),
(483,58,o),
(515,116,c),
(515,312,l),
(360,317,l)
);
},
{
closed = 1;
nodes = (
(496,-20,o),
(589,77,o),
(589,124,c),
(589,306,ls),
(589,336,o),
(568,357,o),
(538,358,cs),
(414,361,ls),
(386,362,o),
(361,339,o),
(361,311,cs),
(361,284,o),
(383,266,o),
(412,265,cs),
(485,263,l),
(485,158,l),
(485,124,o),
(428,83,o),
(349,83,cs),
(212,83,o),
(139,196,o),
(136,350,cs),
(133,524,o),
(220,618,o),
(345,618,cs),
(415,618,o),
(448,593,o),
(467,555,cs),
(475,538,o),
(492,526,o),
(513,526,cs),
(541,526,o),
(564,549,o),
(564,577,cs),
(564,586,o),
(562,594,o),
(558,601,cs),
(524,665,o),
(459,720,o),
(323,720,cs),
(104,720,o),
(29,514,o),
(29,358,cs),
(29,131,o),
(140,-18,o),
(338,-19,cs)
);
},
{
closed = 1;
nodes = (
(430,640,o),
(469,587,o),
(478,531,cs),
(481,512,o),
(497,497,o),
(517,497,cs),
(542,497,o),
(561,520,o),
(557,545,cs),
(544,626,o),
(475,715,o),
(335,715,cs),
(114,715,o),
(50,499,o),
(50,347,cs),
(50,119,o),
(157,-17,o),
(344,-15,cs),
(426,-14,o),
(494,11,o),
(555,96,c),
(555,315,ls),
(555,339,o),
(542,356,o),
(523,356,cs),
(367,358,ls),
(345,358,o),
(327,341,o),
(327,319,cs),
(327,298,o),
(344,280,o),
(365,280,cs),
(474,280,l),
(474,120,l),
(437,81,o),
(405,60,o),
(351,60,cs),
(204,60,o),
(132,171,o),
(132,352,cs),
(132,473,o),
(177,640,o),
(335,640,cs)
);
},
{
closed = 1;
nodes = (
(1253,314,ls),
(1253,338,o),
(1240,355,o),
(1221,355,cs),
(1065,357,ls),
(1042,357,o),
(1025,341,o),
(1025,318,cs),
(1025,295,o),
(1041,279,o),
(1063,279,cs),
(1172,279,l),
(1173,157,l),
(1159,93,o),
(1094,60,o),
(1031,60,cs),
(911,60,o),
(832,182,o),
(832,350,cs),
(832,518,o),
(908,640,o),
(1034,640,cs),
(1101,640,o),
(1150,606,o),
(1167,553,cs),
(1176,524,o),
(1186,507,o),
(1209,507,cs),
(1231,507,o),
(1249,524,o),
(1249,545,cs),
(1249,552,o),
(1249,556,o),
(1247,564,cs),
(1228,652,o),
(1143,715,o),
(1031,715,cs),
(864,715,o),
(750,562,o),
(750,351,cs),
(750,139,o),
(862,-15,o),
(1032,-15,cs),
(1141,-15,o),
(1231,46,o),
(1253,146,c)
);
},
{
closed = 1;
nodes = (
(1253,314,ls),
(1253,338,o),
(1240,355,o),
(1221,355,cs),
(1065,357,ls),
(1042,357,o),
(1025,341,o),
(1025,318,cs),
(1025,295,o),
(1041,279,o),
(1063,279,cs),
(1172,279,l),
(1173,157,l),
(1159,93,o),
(1094,60,o),
(1031,60,cs),
(911,60,o),
(832,182,o),
(832,350,cs),
(832,518,o),
(908,640,o),
(1034,640,cs),
(1101,640,o),
(1150,606,o),
(1167,553,cs),
(1176,524,o),
(1186,507,o),
(1209,507,cs),
(1231,507,o),
(1249,524,o),
(1249,545,cs),
(1249,552,o),
(1249,556,o),
(1247,564,cs),
(1228,652,o),
(1143,715,o),
(1031,715,cs),
(864,715,o),
(750,562,o),
(750,351,cs),
(750,139,o),
(862,-15,o),
(1032,-15,cs),
(1141,-15,o),
(1231,46,o),
(1253,146,c)
);
}
);
};
layerId = "65988B1E-DCE2-4AC3-A6FF-994A1050067D";
shapes = (
{
closed = 1;
nodes = (
(430,-15,o),
(499,14,o),
(550,87,c),
(555,97,o),
(556,99,o),
(556,112,cs),
(556,323,ls),
(556,345,o),
(539,361,o),
(516,361,cs),
(356,361,ls),
(333,361,o),
(316,345,o),
(316,323,cs),
(316,301,o),
(332,285,o),
(354,285,cs),
(476,285,l),
(476,120,l),
(456,85,o),
(410,60,o),
(346,60,cs),
(208,60,o),
(136,171,o),
(136,342,cs),
(136,513,o),
(214,640,o),
(336,640,cs),
(403,640,o),
(452,611,o),
(469,558,cs),
(478,529,o),
(488,512,o),
(511,512,cs),
(533,512,o),
(551,529,o),
(551,550,cs),
(551,557,o),
(551,561,o),
(549,569,cs),
(531,654,o),
(441,715,o),
(336,715,cs),
(151,715,o),
(54,532,o),
(54,342,cs),
(54,114,o),
(168,-15,o),
(345,-15,cs)
);
}
);
width = 609;
},
{
anchors = (
{
name = bottom;
pos = (351,0);
},
{
name = top;
pos = (351,700);
}
);
background = {
shapes = (
{
attr = {
lineCapEnd = "2";
lineCapStart = "2";
strokeWidth = 2;
};
closed = 0;
nodes = (
(562,243,l),
(562,117,o),
(459,62,o),
(373,62,cs),
(220,62,o),
(145,191,o),
(145,347,cs),
(145,503,o),
(206,634,o),
(370,634,cs),
(479,634,o),
(543,565,o),
(543,491,c)
);
},
{
closed = 1;
nodes = (
(451,-15,o),
(526,16,o),
(578,69,cs),
(609,101,o),
(628,136,o),
(628,178,cs),
(628,219,o),
(595,252,o),
(554,252,cs),
(521,252,o),
(492,230,o),
(483,200,cs),
(469,153,o),
(434,125,o),
(376,125,cs),
(268,125,o),
(216,207,o),
(216,362,cs),
(216,486,o),
(268,577,o),
(376,575,cs),
(427,574,o),
(451,547,o),
(462,523,cs),
(474,498,o),
(499,481,o),
(529,481,cs),
(569,481,o),
(602,513,o),
(602,554,cs),
(602,600,o),
(583,632,o),
(551,659,cs),
(504,697,o),
(448,715,o),
(373,715,cs),
(173,715,o),
(56,562,o),
(56,362,cs),
(56,162,o),
(173,-15,o),
(373,-15,cs)
);
},
{
closed = 1;
nodes = (
(583,480,o),
(615,512,o),
(615,553,cs),
(615,593,o),
(583,625,o),
(543,625,cs),
(502,625,o),
(470,593,o),
(470,553,cs),
(470,512,o),
(502,480,o),
(543,480,cs)
);
}
);
};
layerId = "6242D68C-0A25-4F05-8F2A-2075F7C4A210";
shapes = (
{
closed = 1;
nodes = (
(500,-15,o),
(581,32,o),
(632,101,cs),
(643,115,o),
(646,129,o),
(646,151,cs),
(646,324,ls),
(646,369,o),
(622,394,o),
(577,395,cs),
(480,397,ls),
(436,398,o),
(392,368,o),
(392,325,cs),
(392,286,o),
(429,257,o),
(475,253,cs),
(487,252,l),
(487,163,l),
(463,141,o),
(430,126,o),
(388,126,cs),
(286,126,o),
(213,215,o),
(213,355,cs),
(213,506,o),
(284,576,o),
(383,576,cs),
(440,576,o),
(457,553,o),
(473,531,cs),
(487,510,o),
(509,490,o),
(543,490,cs),
(584,490,o),
(611,519,o),
(611,560,cs),
(611,602,o),
(583,642,o),
(538,671,cs),
(495,698,o),
(438,715,o),
(375,715,cs),
(196,715,o),
(56,579,o),
(56,360,cs),
(56,130,o),
(193,-15,o),
(387,-15,cs)
);
}
);
width = 701;
},
{
anchors = (
{
name = bottom;
pos = (310,0);
},
{
name = top;
pos = (340,700);
}
);
associatedMasterId = "65988B1E-DCE2-4AC3-A6FF-994A1050067D";
layerId = "6A5D1632-9C88-4F41-ADAD-839021B4194E";
name = "Original Skeleton";
shapes = (
{
attr = {
strokeWidth = 2;
};
closed = 0;
nodes = (
(521,543,l),
(521,543,o),
(489,698,o),
(329,698,cs),
(128,698,o),
(61,483,o),
(61,347,cs),
(61,265,o),
(104,-4,o),
(337,-4,cs),
(460,-4,o),
(521,96,o),
(521,96,c),
(521,312,l),
(350,317,l)
);
}
);
width = 620;
},
{
anchors = (
{
name = bottom;
pos = (290,0);
},
{
name = top;
pos = (290,700);
}
);
background = {
anchors = (
{
name = bottom;
pos = (313,0);
},
{
name = top;
pos = (314,700);
}
);
shapes = (
{
closed = 1;
nodes = (
(433,-15,o),
(515,63,o),
(538,198,cs),
(540,211,o),
(530,224,o),
(515,224,cs),
(504,224,o),
(494,216,o),
(493,205,cs),
(475,94,o),
(409,29,o),
(314,29,cs),
(185,29,o),
(92,162,o),
(92,344,cs),
(92,532,o),
(186,672,o),
(311,672,cs),
(388,672,o),
(447,619,o),
(473,530,cs),
(476,520,o),
(484,513,o),
(495,513,cs),
(510,513,o),
(521,528,o),
(517,543,cs),
(483,652,o),
(409,716,o),
(314,716,cs),
(159,716,o),
(46,557,o),
(46,340,cs),
(46,134,o),
(159,-15,o),
(314,-15,cs)
);
},
{
closed = 1;
nodes = (
(433,-15,o),
(515,63,o),
(538,198,cs),
(540,211,o),
(530,224,o),
(515,224,cs),
(504,224,o),
(494,216,o),
(493,205,cs),
(475,94,o),
(409,29,o),
(314,29,cs),
(185,29,o),
(92,162,o),
(92,344,cs),
(92,533,o),
(185,672,o),
(311,672,cs),
(388,672,o),
(447,619,o),
(473,530,cs),
(476,520,o),
(484,513,o),
(495,513,cs),
(510,513,o),
(521,528,o),
(517,543,cs),
(483,652,o),
(409,716,o),
(314,716,cs),
(159,716,o),
(46,557,o),
(46,340,cs),
(46,134,o),
(159,-15,o),
(314,-15,cs)
);
},
{
closed = 1;
nodes = (
(432,-15,o),
(503,44,o),
(536,97,c),
(536,314,ls),
(536,327,o),
(526,337,o),
(513,337,cs),
(369,337,ls),
(356,337,o),
(346,327,o),
(346,314,cs),
(346,302,o),
(356,291,o),
(368,291,cs),
(490,291,l),
(490,111,l),
(454,60,o),
(397,31,o),
(328,31,cs),
(130,31,o),
(92,255,o),
(92,365,cs),
(92,504,o),
(150,667,o),
(328,667,cs),
(417,667,o),
(464,615,o),
(485,553,cs),
(488,544,o),
(497,538,o),
(507,538,cs),
(522,538,o),
(531,550,o),
(530,561,cs),
(525,636,o),
(434,713,o),
(318,713,cs),
(115,713,o),
(46,520,o),
(46,365,cs),
(46,244,o),
(89,-15,o),
(323,-15,cs)
);
}
);
};
layerId = "3D52442A-254C-4C79-B742-A98FD72DF947";
shapes = (
{
closed = 1;
nodes = (
(439,-15,o),
(509,41,o),
(543,92,cs),
(545,96,o),
(546,100,o),
(546,107,cs),
(546,334,ls),
(546,347,o),
(536,357,o),
(523,357,cs),
(379,357,ls),
(366,357,o),
(356,347,o),
(356,334,cs),
(356,322,o),
(366,311,o),
(378,311,cs),
(500,311,l),
(500,111,l),
(464,60,o),
(402,29,o),
(323,29,cs),
(184,29,o),
(91,162,o),
(91,344,cs),
(91,533,o),
(184,672,o),
(320,672,cs),
(416,672,o),
(480,619,o),
(496,530,cs),
(498,520,o),
(507,513,o),
(518,513,cs),
(533,513,o),
(540,526,o),
(540,538,cs),
(540,549,o),
(534,573,o),
(523,597,cs),
(494,660,o),
(429,716,o),
(323,716,cs),
(158,716,o),
(45,557,o),
(45,340,cs),
(45,134,o),
(158,-15,o),
(323,-15,cs)
);
}
);
width = 591;
}
);
metricLeft = "=O";
unicode = 71;
},
{
glyphname = G.ss02;
lastChange = "2021-08-19 13:45:35 +0000";
layers = (
{
anchors = (
{
name = bottom;
pos = (366,0);
},
{
name = top;
pos = (337,700);
}
);
background = {
shapes = (
{
attr = {
strokeWidth = 2;
};
closed = 0;
nodes = (
(523,542,l),
(512,621,o),
(444,677,o),
(351,677,cs),
(197,677,o),
(101,551,o),
(101,351,cs),
(101,160,o),
(207,25,o),
(358,25,cs),
(433,25,o),
(493,58,o),
(525,116,c),
(525,312,l),
(370,317,l)
);
}
);
};
layerId = "65988B1E-DCE2-4AC3-A6FF-994A1050067D";
shapes = (
{
closed = 1;
nodes = (
(436,-15,o),
(504,11,o),
(565,96,c),
(565,315,ls),
(565,339,o),
(552,356,o),
(533,356,cs),
(377,358,ls),
(355,358,o),
(337,341,o),
(337,319,cs),
(337,298,o),
(354,280,o),
(375,280,cs),
(484,280,l),
(484,120,l),
(447,81,o),
(415,60,o),
(361,60,cs),
(214,60,o),
(142,171,o),
(142,335,cs),
(142,460,o),
(188,640,o),
(346,640,cs),
(424,640,o),
(461,601,o),
(481,553,cs),
(487,539,o),
(501,529,o),
(517,529,cs),
(538,529,o),
(556,547,o),
(556,568,cs),
(556,573,o),
(554,579,o),
(552,583,cs),
(519,650,o),
(459,715,o),
(345,715,cs),
(124,715,o),
(60,495,o),
(60,339,cs),
(60,119,o),
(172,-15,o),
(354,-15,cs)
);
}
);
width = 620;
},
{
anchors = (
{
name = bottom;
pos = (373,0);
},
{
name = top;
pos = (360,700);
}
);
background = {
shapes = (
{
closed = 1;
nodes = (
(490,-11,o),
(569,40,o),
(614,130,c),
(614,300,ls),
(614,341,o),
(587,364,o),
(550,364,cs),
(458,364,ls),
(421,364,o),
(394,341,o),
(394,300,cs),
(394,260,o),
(421,237,o),
(458,237,cs),
(464,237,l),
(464,169,l),
(448,147,o),
(425,139,o),
(388,139,cs),
(273,139,o),
(216,217,o),
(216,346,cs),
(216,481,o),
(279,575,o),
(372,575,cs),
(422,575,o),
(448,547,o),
(459,523,cs),
(471,498,o),
(496,481,o),
(526,481,cs),
(566,481,o),
(599,513,o),
(599,554,cs),
(599,564,o),
(598,574,o),
(596,583,cs),
(579,661,o),
(488,715,o),
(372,715,cs),
(181,715,o),
(60,564,o),
(60,351,cs),
(60,146,o),
(183,-11,o),
(378,-11,cs)
);
},
{
closed = 1;
nodes = (
(480,-15,o),
(561,32,o),
(612,101,cs),
(623,115,o),
(626,129,o),
(626,151,cs),
(626,324,ls),
(626,369,o),
(602,394,o),
(557,395,cs),
(460,397,ls),
(416,398,o),
(372,368,o),
(372,325,cs),
(372,286,o),
(409,257,o),
(455,253,cs),
(467,252,l),
(467,163,l),
(443,141,o),
(410,126,o),
(378,126,cs),
(276,126,o),
(213,215,o),
(213,355,cs),
(213,506,o),
(274,576,o),
(373,576,cs),
(430,576,o),
(447,553,o),
(463,531,cs),
(477,510,o),
(499,490,o),
(533,490,cs),
(574,490,o),
(601,519,o),
(601,560,cs),
(601,602,o),
(573,642,o),
(528,671,cs),
(485,698,o),
(428,715,o),
(365,715,cs),
(186,715,o),
(56,579,o),
(56,360,cs),
(56,130,o),
(183,-15,o),
(377,-15,cs)
);
}
);
};
layerId = "6242D68C-0A25-4F05-8F2A-2075F7C4A210";
shapes = (
{
closed = 1;
nodes = (
(480,-15,o),
(561,32,o),
(612,101,cs),
(623,115,o),
(626,129,o),
(626,151,cs),
(626,324,ls),
(626,369,o),
(602,394,o),
(557,395,cs),
(460,397,ls),
(416,398,o),
(372,368,o),
(372,325,cs),
(372,286,o),
(409,257,o),
(455,253,cs),
(467,252,l),
(467,163,l),
(442,134,o),
(411,126,o),
(382,126,cs),
(283,126,o),
(213,215,o),
(213,360,cs),
(213,506,o),
(274,576,o),
(373,576,cs),
(430,576,o),
(447,553,o),
(463,531,cs),
(477,510,o),
(499,490,o),
(533,490,cs),
(574,490,o),
(601,519,o),
(601,560,cs),
(601,602,o),
(573,642,o),
(528,671,cs),
(485,698,o),
(428,715,o),
(365,715,cs),
(186,715,o),
(56,579,o),
(56,360,cs),
(56,130,o),
(183,-15,o),
(373,-15,cs)
);
}
);
width = 669;
},
{
anchors = (
{
name = bottom;
pos = (310,0);
},
{
name = top;
pos = (340,700);
}
);
associatedMasterId = "65988B1E-DCE2-4AC3-A6FF-994A1050067D";
layerId = "6A5D1632-9C88-4F41-ADAD-839021B4194E";
name = "Original Skeleton";
shapes = (
{
attr = {
strokeWidth = 2;
};
closed = 0;
nodes = (
(521,543,l),
(521,543,o),
(489,698,o),
(329,698,cs),
(128,698,o),
(61,483,o),
(61,347,cs),
(61,265,o),
(104,-4,o),
(337,-4,cs),
(460,-4,o),
(521,96,o),
(521,96,c),
(521,312,l),
(350,317,l)
);
}
);
width = 620;
},
{
anchors = (
{
name = bottom;
pos = (328,0);
},
{
name = top;
pos = (323,700);
}
);
layerId = "3D52442A-254C-4C79-B742-A98FD72DF947";
shapes = (
{
closed = 1;
nodes = (
(432,-15,o),
(503,44,o),
(536,97,c),
(536,314,ls),
(536,327,o),
(526,337,o),
(513,337,cs),
(369,337,ls),
(356,337,o),
(346,327,o),
(346,314,cs),
(346,302,o),
(356,291,o),
(368,291,cs),
(490,291,l),
(490,111,l),
(454,60,o),
(396,28,o),
(334,28,cs),
(185,28,o),
(92,161,o),
(92,356,cs),
(92,540,o),
(191,667,o),
(328,667,cs),
(417,667,o),
(464,615,o),
(485,553,cs),
(488,544,o),
(497,538,o),
(507,538,cs),
(522,538,o),
(530,550,o),
(530,561,cs),
(530,564,o),
(530,566,o),
(529,568,cs),
(494,637,o),
(440,713,o),
(328,713,cs),
(164,713,o),
(46,567,o),
(46,353,cs),
(46,133,o),
(159,-15,o),
(328,-15,cs)
);
}
);
width = 600;
}
);
},
{
glyphname = H;
lastChange = "2021-08-21 17:56:57 +0000";
layers = (
{
anchors = (
{
name = bottom;
pos = (338,0);
},
{
name = center;
pos = (338,350);
},
{
name = top;
pos = (338,700);
},
{
name = topleft;
pos = (20,700);
}
);
background = {
shapes = (
{
attr = {
strokeWidth = 2;
};
closed = 0;
nodes = (
(122,700,l),
(122,0,l)
);
},
{
attr = {
strokeWidth = 2;
};
closed = 0;
nodes = (
(555,700,l),
(555,0,l)
);
},
{
attr = {
strokeWidth = 2;
};
closed = 0;
nodes = (
(122,361,l),
(550,361,l)
);
}
);
};
layerId = "65988B1E-DCE2-4AC3-A6FF-994A1050067D";
shapes = (
{
closed = 1;
nodes = (
(145,-10,o),
(162,7,o),
(162,31,cs),
(162,669,ls),
(162,693,o),
(145,710,o),
(121,710,cs),
(97,710,o),
(80,693,o),
(80,669,cs),
(80,31,ls),
(80,7,o),
(97,-10,o),
(121,-10,cs)
);
},
{
closed = 1;
nodes = (
(577,-10,o),
(594,7,o),
(594,31,cs),
(594,669,ls),
(594,693,o),
(577,710,o),
(553,710,cs),
(529,710,o),
(512,693,o),
(512,669,cs),
(512,31,ls),
(512,7,o),
(529,-10,o),
(553,-10,cs)
);
},
{
closed = 1;
nodes = (
(559,323,l),
(559,399,l),
(123,399,l),
(123,323,l)
);
}
);
width = 674;
},
{
anchors = (
{
name = bottom;
pos = (375,0);
},
{
name = center;
pos = (375,350);
},
{
name = top;
pos = (375,700);
},
{
name = topleft;
pos = (18,700);
}
);
background = {
shapes = (
{
attr = {
strokeWidth = 2;
};
closed = 0;
nodes = (
(596,700,l),
(596,0,l)
);
},
{
attr = {
strokeWidth = 2;
};
closed = 0;
nodes = (
(579,358,l),
(156,357,l)
);
},
{
attr = {
strokeWidth = 2;
};
closed = 0;
nodes = (
(157,700,l),
(157,0,l)
);
}
);
};
layerId = "6242D68C-0A25-4F05-8F2A-2075F7C4A210";
shapes = (
{
closed = 1;
nodes = (
(203,-10,o),
(236,23,o),
(236,68,cs),
(236,632,ls),
(236,677,o),
(203,710,o),
(158,710,cs),
(113,710,o),
(80,677,o),
(80,632,cs),
(80,68,ls),
(80,23,o),
(113,-10,o),
(158,-10,cs)
);
},
{
closed = 1;
nodes = (
(641,-10,o),
(674,23,o),
(674,68,cs),
(674,632,ls),
(674,677,o),
(641,710,o),
(596,710,cs),
(551,710,o),
(518,677,o),
(518,632,cs),
(518,68,ls),
(518,23,o),
(551,-10,o),
(596,-10,cs)
);
},
{
closed = 1;
nodes = (
(603,281,l),
(603,431,l),
(188,431,l),
(188,281,l)
);
}
);
width = 754;
},
{
associatedMasterId = "65988B1E-DCE2-4AC3-A6FF-994A1050067D";
background = {
shapes = (
{
attr = {
strokeWidth = 2;
};
closed = 0;
nodes = (
(122,700,l),
(122,0,l)
);
},
{
attr = {
strokeWidth = 2;
};
closed = 0;
nodes = (
(546,700,l),
(546,0,l)
);
},
{
attr = {
strokeWidth = 2;
};
closed = 0;
nodes = (
(122,368,l),
(546,368,l)
);
}
);
};
layerId = "501F85B2-6C6F-4D2D-83D6-00BE89D5E89B";
name = "Original Skeleton";
shapes = (
{
attr = {
strokeWidth = 2;
};
closed = 0;
nodes = (
(101,700,l),
(101,0,l)
);
},
{
attr = {
strokeWidth = 2;
};
closed = 0;
nodes = (
(567,700,l),
(567,0,l)
);
},
{
attr = {
strokeWidth = 2;
};
closed = 0;
nodes = (
(101,368,l),
(567,368,l)
);
}
);
visible = 1;
width = 676;
},
{
anchors = (
{
name = bottom;
pos = (321,0);
},
{
name = center;
pos = (321,350);
},
{
name = top;
pos = (321,700);
},
{
name = topleft;
pos = (28,700);
}
);
background = {
shapes = (
{
attr = {
strokeWidth = 2;
};
closed = 0;
nodes = (
(114,665,l),
(114,35,l)
);
},
{
attr = {
strokeWidth = 2;
};
closed = 0;
nodes = (
(534,665,l),
(534,35,l)
);
},
{
attr = {
strokeWidth = 2;
};
closed = 0;
nodes = (
(114,366,l),
(534,366,l)
);
}
);
};
layerId = "3D52442A-254C-4C79-B742-A98FD72DF947";
shapes = (
{
closed = 1;
nodes = (
(116,-10,o),
(126,0,o),
(126,13,cs),
(126,687,ls),
(126,700,o),
(116,710,o),
(103,710,cs),
(90,710,o),
(80,700,o),
(80,687,cs),
(80,13,ls),
(80,0,o),
(90,-10,o),
(103,-10,cs)
);
},
{
closed = 1;
nodes = (
(550,-10,o),
(560,0,o),
(560,13,cs),
(560,687,ls),
(560,700,o),
(550,710,o),
(537,710,cs),
(524,710,o),
(514,700,o),
(514,687,cs),
(514,13,ls),
(514,0,o),
(524,-10,o),
(537,-10,cs)
);
},
{
closed = 1;
nodes = (
(527,338,l),
(527,383,l),
(117,383,l),
(117,338,l)
);
}
);
width = 640;
}
);
unicode = 72;
},
{
glyphname = H.ss02;
lastChange = "2021-08-18 21:03:01 +0000";
layers = (
{
anchors = (
{
name = bottom;
pos = (338,0);
},
{
name = center;
pos = (338,350);
},
{
name = top;
pos = (338,700);
},
{
name = topleft;
pos = (20,700);
}
);
background = {
shapes = (
{
attr = {
strokeWidth = 2;
};
closed = 0;
nodes = (
(122,700,l),
(122,0,l)
);
},
{
attr = {
strokeWidth = 2;
};
closed = 0;
nodes = (
(555,700,l),
(555,0,l)
);
},
{
attr = {
strokeWidth = 2;
};
closed = 0;
nodes = (
(122,368,l),
(550,368,l)
);
}
);
};
layerId = "65988B1E-DCE2-4AC3-A6FF-994A1050067D";
shapes = (
{
closed = 1;
nodes = (
(145,-10,o),
(162,7,o),
(162,31,cs),
(162,669,ls),
(162,693,o),
(145,710,o),
(121,710,cs),
(97,710,o),
(80,693,o),
(80,669,cs),
(80,31,ls),
(80,7,o),
(97,-10,o),
(121,-10,cs)
);
},
{
closed = 1;
nodes = (
(579,-10,o),
(596,7,o),
(596,31,cs),
(596,669,ls),
(596,693,o),
(579,710,o),
(555,710,cs),
(531,710,o),
(514,693,o),
(514,669,cs),
(514,31,ls),
(514,7,o),
(531,-10,o),
(555,-10,cs)
);
},
{
closed = 1;
nodes = (
(555,332,l),
(555,408,l),
(121,408,l),
(121,332,l)
);
}
);
width = 676;
},
{
anchors = (
{
name = bottom;
pos = (377,0);
},
{
name = center;
pos = (377,350);
},
{
name = top;
pos = (377,700);
},
{
name = topleft;
pos = (20,700);
}
);
background = {
shapes = (
{
attr = {
strokeWidth = 2;
};
closed = 0;
nodes = (
(598,700,l),
(598,0,l)
);
},
{
attr = {
strokeWidth = 2;
};
closed = 0;
nodes = (
(581,358,l),
(158,357,l)
);
},
{
attr = {
strokeWidth = 2;
};
closed = 0;
nodes = (
(159,700,l),
(159,0,l)
);
}
);
};
layerId = "6242D68C-0A25-4F05-8F2A-2075F7C4A210";
shapes = (
{
closed = 1;
nodes = (
(204,-8,o),
(240,28,o),
(240,72,cs),
(240,628,ls),
(240,672,o),
(204,708,o),
(160,708,cs),
(116,708,o),
(80,672,o),
(80,628,cs),
(80,72,ls),
(80,28,o),
(116,-8,o),
(160,-8,cs)
);
},
{
closed = 1;
nodes = (
(668,-8,o),
(704,28,o),
(704,72,cs),
(704,628,ls),
(704,672,o),
(668,708,o),
(624,708,cs),
(580,708,o),
(544,672,o),
(544,628,cs),
(544,72,ls),
(544,28,o),
(580,-8,o),
(624,-8,cs)
);
},
{
closed = 1;
nodes = (
(635,281,l),
(635,431,l),
(188,431,l),
(188,281,l)
);
}
);
width = 784;
},
{
associatedMasterId = "65988B1E-DCE2-4AC3-A6FF-994A1050067D";
background = {
shapes = (
{
attr = {
strokeWidth = 2;
};
closed = 0;
nodes = (
(122,700,l),
(122,0,l)
);
},
{
attr = {
strokeWidth = 2;
};
closed = 0;
nodes = (
(546,700,l),
(546,0,l)
);
},
{
attr = {
strokeWidth = 2;
};
closed = 0;
nodes = (
(122,368,l),
(546,368,l)
);
}
);
};
layerId = "501F85B2-6C6F-4D2D-83D6-00BE89D5E89B";
name = "Original Skeleton";
shapes = (
{
attr = {
strokeWidth = 2;
};
closed = 0;
nodes = (
(101,700,l),
(101,0,l)
);
},
{
attr = {
strokeWidth = 2;
};
closed = 0;
nodes = (
(567,700,l),
(567,0,l)
);
},
{
attr = {
strokeWidth = 2;
};
closed = 0;
nodes = (
(101,368,l),
(567,368,l)
);
}
);
width = 676;
},
{
anchors = (
{
name = bottom;
pos = (313,0);
},
{
name = center;
pos = (313,350);
},
{
name = top;
pos = (313,700);
},
{
name = topleft;
pos = (20,700);
}
);
background = {
shapes = (
{
attr = {
strokeWidth = 2;
};
closed = 0;
nodes = (
(101,700,l),
(101,0,l)
);
},
{
attr = {
strokeWidth = 2;
};
closed = 0;
nodes = (
(529,700,l),
(529,0,l)
);
},
{
attr = {
strokeWidth = 2;
};
closed = 0;
nodes = (
(105,368,l),
(529,368,l)
);
},
{
closed = 1;
nodes = (
(119,-10,o),
(132,3,o),
(132,20,cs),
(132,680,ls),
(132,697,o),
(119,710,o),
(102,710,cs),
(85,710,o),
(72,697,o),
(72,680,cs),
(72,20,ls),
(72,3,o),
(85,-10,o),
(102,-10,cs)
);
},
{
closed = 1;
nodes = (
(532,-10,o),
(545,3,o),
(545,20,cs),
(545,680,ls),
(545,697,o),
(532,710,o),
(515,710,cs),
(498,710,o),
(485,697,o),
(485,680,cs),
(485,20,ls),
(485,3,o),
(498,-10,o),
(515,-10,cs)
);
},
{
closed = 1;
nodes = (
(516,341,l),
(516,399,l),
(98,398,l),
(98,340,l)
);
},
{
closed = 1;
nodes = (
(441,41,o),
(529,164,o),
(529,351,cs),
(529,538,o),
(441,661,o),
(314,661,cs),
(187,661,o),
(99,538,o),
(99,351,cs),
(99,164,o),
(187,41,o),
(314,41,cs)
);
},
{
closed = 1;
nodes = (
(155,-12,o),
(42,130,o),
(42,351,cs),
(42,572,o),
(155,714,o),
(314,714,cs),
(473,714,o),
(586,572,o),
(586,351,cs),
(586,127,o),
(458,-12,o),
(314,-12,cs)
);
}
);
};
layerId = "3D52442A-254C-4C79-B742-A98FD72DF947";
shapes = (
{
closed = 1;
nodes = (
(111,-10,o),
(121,0,o),
(121,13,cs),
(121,687,ls),
(121,700,o),
(111,710,o),
(98,710,cs),
(85,710,o),
(75,700,o),
(75,687,cs),
(75,13,ls),
(75,0,o),
(85,-10,o),
(98,-10,cs)
);
},
{
closed = 1;
nodes = (
(536,-10,o),
(546,0,o),
(546,13,cs),
(546,687,ls),
(546,700,o),
(536,710,o),
(523,710,cs),
(510,710,o),
(500,700,o),
(500,687,cs),
(500,13,ls),
(500,0,o),
(510,-10,o),
(523,-10,cs)
);
},
{
closed = 1;
nodes = (
(508,344,l),
(508,389,l),
(111,389,l),
(111,344,l)
);
}
);
width = 621;
}
);
},
{
glyphname = Hbar;
lastChange = "2021-08-04 13:00:20 +0000";
layers = (
{
layerId = "65988B1E-DCE2-4AC3-A6FF-994A1050067D";
shapes = (
{
pos = (60,0);
ref = H;
},
{
attr = {
lineCapEnd = "2";
lineCapStart = "2";
strokeHeight = 76;
strokeWidth = 76;
};
closed = 0;
nodes = (
(64,510,l),
(722,510,l)
);
}
);
width = 786;
},
{
layerId = "6242D68C-0A25-4F05-8F2A-2075F7C4A210";
width = 600;
},
{
layerId = "3D52442A-254C-4C79-B742-A98FD72DF947";
width = 600;
}
);
metricLeft = "=H-20";
metricRight = "=H-20";
unicode = 294;
},
{
glyphname = I;
lastChange = "2021-08-18 21:02:49 +0000";
layers = (
{
anchors = (
{
name = bottom;
pos = (121,0);
},
{
name = ogonek;
pos = (81,0);
},
{
name = top;
pos = (121,700);
},
{
name = topleft;
pos = (20,700);
}
);
layerId = "65988B1E-DCE2-4AC3-A6FF-994A1050067D";
shapes = (
{
closed = 1;
nodes = (
(145,-10,o),
(162,7,o),
(162,31,cs),
(162,669,ls),
(162,693,o),
(145,710,o),
(121,710,cs),
(97,710,o),
(80,693,o),
(80,669,cs),
(80,31,ls),
(80,7,o),
(97,-10,o),
(121,-10,cs)
);
}
);
width = 242;
},
{
anchors = (
{
name = bottom;
pos = (162,0);
},
{
name = ogonek;
pos = (97,0);
},
{
name = top;
pos = (159,700);
},
{
name = topleft;
pos = (20,700);
}
);
layerId = "6242D68C-0A25-4F05-8F2A-2075F7C4A210";
shapes = (
{
closed = 1;
nodes = (
(201,-10,o),
(236,25,o),
(236,68,cs),
(236,632,ls),
(236,675,o),
(201,710,o),
(158,710,cs),
(115,710,o),
(80,675,o),
(80,632,cs),
(80,68,ls),
(80,25,o),
(115,-10,o),
(158,-10,cs)
);
}
);
width = 316;
},
{
anchors = (
{
name = bottom;
pos = (121,0);
},
{
name = ogonek;
pos = (168,56);
},
{
name = top;
pos = (121,700);
},
{
name = topleft;
pos = (20,700);
}
);
associatedMasterId = "65988B1E-DCE2-4AC3-A6FF-994A1050067D";
layerId = "FE7FF8FD-0C8B-4278-A729-EB876815C24C";
name = "Original Skeleton";
shapes = (
{
attr = {
strokeWidth = 2;
};
closed = 0;
nodes = (
(101,700,l),
(101,0,l)
);
}
);
width = 242;
},
{
anchors = (
{
name = bottom;
pos = (103,0);
},
{
name = ogonek;
pos = (62,0);
},
{
name = top;
pos = (103,700);
},
{
name = topleft;
pos = (25,700);
}
);
layerId = "3D52442A-254C-4C79-B742-A98FD72DF947";
shapes = (
{
closed = 1;
nodes = (
(116,-10,o),
(126,0,o),
(126,13,cs),
(126,687,ls),
(126,700,o),
(116,710,o),
(103,710,cs),
(90,710,o),
(80,700,o),
(80,687,cs),
(80,13,ls),
(80,0,o),
(90,-10,o),
(103,-10,cs)
);
}
);
width = 206;
}
);
metricLeft = "=H";
metricRight = "=H";
unicode = 73;
},
{
glyphname = IJ;
lastChange = "2021-08-11 18:42:50 +0000";
layers = (
{
layerId = "65988B1E-DCE2-4AC3-A6FF-994A1050067D";
shapes = (
{
closed = 1;
nodes = (
(162,664,ls),
(162,687,o),
(144,705,o),
(121,705,cs),
(98,705,o),
(80,687,o),
(80,664,cs),
(80,36,ls),
(80,13,o),
(98,-5,o),
(121,-5,cs),
(144,-5,o),
(162,13,o),
(162,36,cs)
);
},
{
closed = 1;
nodes = (
(227,170,ls),
(227,54,o),
(301,-30,o),
(404,-30,cs),
(523,-30,o),
(592,46,o),
(592,176,cs),
(592,664,ls),
(592,687,o),
(574,705,o),
(551,705,cs),
(528,705,o),
(510,687,o),
(510,664,cs),
(510,176,ls),
(510,96,o),
(471,49,o),
(404,49,cs),
(344,49,o),
(309,93,o),
(309,170,cs),
(309,187,ls),
(309,210,o),
(291,228,o),
(268,228,cs),
(245,228,o),
(227,210,o),
(227,187,cs)
);
}
);
width = 672;
},
{
layerId = "6242D68C-0A25-4F05-8F2A-2075F7C4A210";
width = 600;
},
{
layerId = "3D52442A-254C-4C79-B742-A98FD72DF947";
shapes = (
{
ref = I;
},
{
pos = (206,0);
ref = J;
}
);
width = 685;
}
);
unicode = 306;
},
{
glyphname = IJ.001;
lastChange = "2021-08-11 18:42:50 +0000";
layers = (
{
background = {
shapes = (
{
closed = 0;
nodes = (
(70,80,l),
(97,13,o),
(156,-30,o),
(230,-30,cs),
(349,-30,o),
(418,46,o),
(418,176,cs),
(418,664,ls),
(418,687,o),
(400,705,o),
(377,705,cs),
(354,705,o),
(336,687,o),
(336,664,cs),
(336,176,ls),
(336,96,o),
(297,49,o),
(230,49,cs),
(200,49,o),
(176,60,o),
(160,80,c)
);
}
);
};
layerId = "65988B1E-DCE2-4AC3-A6FF-994A1050067D";
shapes = (
{
closed = 1;
nodes = (
(153,664,ls),
(153,687,o),
(135,705,o),
(112,705,cs),
(89,705,o),
(71,687,o),
(71,664,cs),
(71,272,ls),
(71,249,o),
(89,231,o),
(112,231,cs),
(135,231,o),
(153,249,o),
(153,272,cs)
);
},
{
closed = 1;
nodes = (
(156,107,cs),
(156,129,o),
(138,140,o),
(115,140,cs),
(88,140,o),
(70,122,o),
(70,102,cs),
(70,21,o),
(156,-30,o),
(240,-30,cs),
(359,-30,o),
(428,46,o),
(428,176,cs),
(428,664,ls),
(428,687,o),
(410,705,o),
(387,705,cs),
(364,705,o),
(346,687,o),
(346,664,cs),
(346,176,ls),
(346,96,o),
(307,49,o),
(240,49,cs),
(186,49,o),
(156,72,o)
);
}
);
width = 498;
},
{
layerId = "6242D68C-0A25-4F05-8F2A-2075F7C4A210";
width = 600;
},
{
layerId = "3D52442A-254C-4C79-B742-A98FD72DF947";
width = 600;
}
);
},
{
glyphname = Iogonek;
lastChange = "2021-08-11 18:42:50 +0000";
layers = (
{
layerId = "65988B1E-DCE2-4AC3-A6FF-994A1050067D";
shapes = (
{
ref = I;
},
{
closed = 1;
nodes = (
(128,-113,o),
(120,-121,o),
(104,-121,cs),
(84,-121,o),
(80,-109,o),
(80,-101,cs),
(80,-60,o),
(162,-32,o),
(162,28,cs),
(162,104,l),
(80,104,l),
(80,21,ls),
(80,-8,o),
(10,-31,o),
(10,-109,cs),
(10,-160,o),
(55,-183,o),
(102,-185,cs),
(128,-186,o),
(164,-181,o),
(194,-146,cs),
(200,-139,o),
(204,-131,o),
(204,-121,cs),
(204,-101,o),
(190,-87,o),
(170,-87,cs),
(159,-87,o),
(150,-91,o),
(143,-98,cs)
);
}
);
width = 242;
},
{
layerId = "6242D68C-0A25-4F05-8F2A-2075F7C4A210";
width = 600;
},
{
layerId = "3D52442A-254C-4C79-B742-A98FD72DF947";
width = 600;
}
);
unicode = 302;
},
{
glyphname = J;
lastChange = "2021-08-18 21:03:11 +0000";
layers = (
{
anchors = (
{
name = bottom;
pos = (250,0);
},
{
name = top;
pos = (380,700);
}
);
background = {
shapes = (
{
attr = {
strokeWidth = 2;
};
closed = 0;
nodes = (
(379,668,l),
(379,193,l),
(376,78,o),
(332,28,o),
(232,28,cs),
(136,28,o),
(76,89,o),
(76,187,cs),
(76,241,l)
);
}
);
};
layerId = "65988B1E-DCE2-4AC3-A6FF-994A1050067D";
shapes = (
{
closed = 1;
nodes = (
(373,-14,o),
(420,94,o),
(420,192,cs),
(420,669,ls),
(420,693,o),
(403,710,o),
(379,710,cs),
(355,710,o),
(338,693,o),
(338,669,cs),
(338,192,ls),
(338,120,o),
(315,65,o),
(232,65,cs),
(140,65,o),
(117,133,o),
(117,186,cs),
(117,203,ls),
(117,226,o),
(99,244,o),
(76,244,cs),
(53,244,o),
(35,226,o),
(35,203,cs),
(35,186,ls),
(35,115,o),
(79,-14,o),
(232,-14,cs)
);
}
);
width = 500;
},
{
anchors = (
{
name = bottom;
pos = (347,0);
},
{
name = top;
pos = (347,700);
}
);
layerId = "6242D68C-0A25-4F05-8F2A-2075F7C4A210";
shapes = (
{
closed = 1;
nodes = (
(421,-10,o),
(504,79,o),
(504,232,cs),
(504,632,ls),
(504,675,o),
(469,710,o),
(426,710,cs),
(383,710,o),
(348,675,o),
(348,632,cs),
(348,234,ls),
(348,174,o),
(334,141,o),
(279,141,cs),
(234,141,o),
(201,163,o),
(201,205,cs),
(201,228,ls),
(201,271,o),
(166,306,o),
(123,306,cs),
(80,306,o),
(45,271,o),
(45,228,cs),
(45,201,ls),
(45,79,o),
(143,-10,o),
(282,-10,cs)
);
}
);
width = 584;
},
{
anchors = (
{
name = bottom;
pos = (250,0);
},
{
name = top;
pos = (380,700);
}
);
associatedMasterId = "65988B1E-DCE2-4AC3-A6FF-994A1050067D";
background = {
shapes = (
{
attr = {
strokeWidth = 2;
};
closed = 0;
nodes = (
(394,700,l),
(394,178,l),
(392,143,o),
(403,-4,o),
(232,-4,cs),
(100,-4,o),
(61,105,o),
(61,171,cs),
(61,230,l)
);
}
);
};
layerId = "FA29D0E2-6F2F-4B5A-A0FA-73513B7940E8";
name = "Original Skeleton";
shapes = (
{
attr = {
strokeWidth = 2;
};
closed = 0;
nodes = (
(394,700,l),
(394,178,l),
(391,51,o),
(342,-4,o),
(232,-4,cs),
(127,-4,o),
(61,63,o),
(61,171,cs),
(61,230,l)
);
}
);
width = 500;
},
{
anchors = (
{
name = bottom;
pos = (237,0);
},
{
name = top;
pos = (244,700);
}
);
layerId = "3D52442A-254C-4C79-B742-A98FD72DF947";
shapes = (
{
closed = 1;
nodes = (
(335,-10,o),
(399,63,o),
(399,189,cs),
(399,687,ls),
(399,700,o),
(389,710,o),
(376,710,cs),
(363,710,o),
(353,700,o),
(353,687,cs),
(353,189,ls),
(353,90,o),
(309,36,o),
(224,36,cs),
(139,36,o),
(81,88,o),
(81,182,cs),
(81,219,ls),
(81,232,o),
(71,242,o),
(58,242,cs),
(45,242,o),
(35,232,o),
(35,219,cs),
(35,182,ls),
(35,66,o),
(109,-10,o),
(224,-10,cs)
);
}
);
width = 479;
}
);
metricRight = H;
unicode = 74;
},
{
glyphname = K;
lastChange = "2021-08-20 20:43:57 +0000";
layers = (
{
anchors = (
{
name = bottom;
pos = (299,0);
},
{
name = top;
pos = (299,700);
}
);
background = {
shapes = (
{
attr = {
strokeWidth = 2;
};
closed = 0;
nodes = (
(113,669,l),
(113,32,l)
);
},
{
attr = {
strokeWidth = 2;
};
closed = 0;
nodes = (
(505,654,l),
(263,409,l),
(113,256,l)
);
},
{
attr = {
strokeWidth = 2;
};
closed = 0;
nodes = (
(522,35,l),
(263,409,l)
);
},
{
closed = 1;
nodes = (
(137,-10,o),
(154,7,o),
(154,31,cs),
(154,669,ls),
(154,693,o),
(137,710,o),
(113,710,cs),
(89,710,o),
(72,693,o),
(72,669,cs),
(72,31,ls),
(72,7,o),
(89,-10,o),
(113,-10,cs)
);
},
{
closed = 1;
nodes = (
(567,-10,o),
(584,7,o),
(584,31,cs),
(584,669,ls),
(584,693,o),
(567,710,o),
(543,710,cs),
(519,710,o),
(502,693,o),
(502,669,cs),
(502,31,ls),
(502,7,o),
(519,-10,o),
(543,-10,cs)
);
},
{
closed = 1;
nodes = (
(549,323,l),
(549,399,l),
(115,399,l),
(115,323,l)
);
},
{
closed = 1;
nodes = (
(137,-10,o),
(154,7,o),
(154,31,cs),
(154,669,ls),
(154,693,o),
(137,710,o),
(113,710,cs),
(89,710,o),
(72,693,o),
(72,669,cs),
(72,31,ls),
(72,7,o),
(89,-10,o),
(113,-10,cs)
);
},
{
closed = 1;
nodes = (
(567,-10,o),
(584,7,o),
(584,31,cs),
(584,669,ls),
(584,693,o),
(567,710,o),
(543,710,cs),
(519,710,o),
(502,693,o),
(502,669,cs),
(502,31,ls),
(502,7,o),
(519,-10,o),
(543,-10,cs)
);
},
{
closed = 1;
nodes = (
(549,323,l),
(549,399,l),
(115,399,l),
(115,323,l)
);
}
);
};
layerId = "65988B1E-DCE2-4AC3-A6FF-994A1050067D";
shapes = (
{
closed = 1;
nodes = (
(145,-10,o),
(162,7,o),
(162,31,cs),
(162,669,ls),
(162,693,o),
(145,710,o),
(121,710,cs),
(97,710,o),
(80,693,o),
(80,669,cs),
(80,31,ls),
(80,7,o),
(97,-10,o),
(121,-10,cs)
);
},
{
closed = 1;
nodes = (
(521,634,ls),
(529,642,o),
(533,652,o),
(533,663,cs),
(533,685,o),
(515,704,o),
(492,704,cs),
(481,704,o),
(471,699,o),
(464,692,cs),
(125,331,l),
(125,216,l)
);
},
{
closed = 1;
nodes = (
(545,-11,o),
(563,8,o),
(563,30,cs),
(563,39,o),
(560,47,o),
(555,54,cs),
(304,421,l),
(255,361,l),
(489,7,ls),
(496,-4,o),
(508,-11,o),
(522,-11,cs)
);
}
);
width = 593;
},
{
anchors = (
{
name = bottom;
pos = (322,0);
},
{
name = top;
pos = (322,700);
}
);
background = {
shapes = (
{
attr = {
strokeWidth = 2;
};
closed = 0;
nodes = (
(170,628,l),
(170,73,l)
);
},
{
attr = {
strokeWidth = 2;
};
closed = 0;
nodes = (
(511,615,l),
(300,401,l),
(170,268,l)
);
},
{
attr = {
strokeWidth = 2;
};
closed = 0;
nodes = (
(525,76,l),
(300,401,l)
);
}
);
};
layerId = "6242D68C-0A25-4F05-8F2A-2075F7C4A210";
shapes = (
{
closed = 1;
nodes = (
(203,-10,o),
(236,23,o),
(236,68,cs),
(236,632,ls),
(236,677,o),
(203,710,o),
(158,710,cs),
(113,710,o),
(80,677,o),
(80,632,cs),
(80,68,ls),
(80,23,o),
(113,-10,o),
(158,-10,cs)
);
},
{
closed = 1;
nodes = (
(578,575,ls),
(592,588,o),
(600,609,o),
(600,630,cs),
(600,673,o),
(565,707,o),
(522,707,cs,{
name = "❌";
}),
(499,707,o),
(478,696,o),
(462,681,cs),
(93,331,l),
(205,221,l)
);
},
{
closed = 1;
nodes = (
(588,-10,o),
(623,25,o),
(623,68,cs),
(623,84,o),
(617,100,o),
(609,112,cs),
(384,445,l),
(253,358,l),
(481,24,ls),
(495,3,o),
(518,-10,o),
(545,-10,cs)
);
}
);
width = 653;
},
{
anchors = (
{
name = bottom;
pos = (307,0);
},
{
name = top;
pos = (307,700);
}
);
associatedMasterId = "65988B1E-DCE2-4AC3-A6FF-994A1050067D";
layerId = "326C8418-8C6E-400D-A12B-A5D289B1ECBF";
name = "Original Skeleton";
shapes = (
{
attr = {
strokeWidth = 2;
};
closed = 0;
nodes = (
(101,700,l),
(101,0,l)
);
},
{
attr = {
strokeWidth = 2;
};
closed = 0;
nodes = (
(532,684,l),
(266,415,l),
(101,247,l)
);
},
{
attr = {
strokeWidth = 2;
};
closed = 0;
nodes = (
(550,4,l),
(266,415,l)
);
}
);
width = 614;
},
{
anchors = (
{
name = bottom;
pos = (255,0);
},
{
name = top;
pos = (255,700);
}
);
background = {
shapes = (
{
attr = {
strokeWidth = 2;
};
closed = 0;
nodes = (
(63,690,l),
(63,11,l)
);
},
{
attr = {
strokeWidth = 2;
};
closed = 0;
nodes = (
(481,674,l),
(223,413,l),
(63,250,l)
);
},
{
attr = {
strokeWidth = 2;
};
closed = 0;
nodes = (
(498,14,l),
(223,413,l)
);
},
{
attr = {
strokeWidth = 2;
};
closed = 0;
nodes = (
(63,690,l),
(63,11,l)
);
},
{
attr = {
strokeWidth = 2;
};
closed = 0;
nodes = (
(481,674,l),
(223,413,l),
(63,250,l)
);
},
{
attr = {
strokeWidth = 2;
};
closed = 0;
nodes = (
(498,14,l),
(223,413,l)
);
}
);
};
layerId = "3D52442A-254C-4C79-B742-A98FD72DF947";
shapes = (
{
closed = 1;
nodes = (
(116,-10,o),
(126,0,o),
(126,13,cs),
(126,687,ls),
(126,700,o),
(116,710,o),
(103,710,cs),
(90,710,o),
(80,700,o),
(80,687,cs),
(80,13,ls),
(80,0,o),
(90,-10,o),
(103,-10,cs)
);
},
{
closed = 1;
nodes = (
(494,659,ls),
(498,663,o),
(500,669,o),
(500,675,cs),
(500,688,o),
(490,698,o),
(477,698,cs),
(471,698,o),
(466,696,o),
(462,692,cs),
(95,292,l),
(112,244,l)
);
},
{
closed = 1;
nodes = (
(521,-10,o),
(531,0,o),
(531,13,cs),
(531,17,o),
(530,21,o),
(527,26,cs),
(237,433,l),
(216,398,l),
(489,0,ls,{
name = "💚";
}),
(493,-6,o),
(501,-10,o),
(508,-10,cs)
);
}
);
width = 561;
}
);
metricLeft = H;
unicode = 75;
},
{
glyphname = L;
lastChange = "2021-08-18 18:37:02 +0000";
layers = (
{
anchors = (
{
name = bottom;
pos = (277,0);
},
{
name = center;
pos = (267,350);
},
{
name = top;
pos = (192,700);
},
{
name = topright;
pos = (514,700);
}
);
background = {
shapes = (
{
attr = {
strokeWidth = 2;
};
closed = 0;
nodes = (
(122,700,l),
(122,37,l)
);
},
{
attr = {
strokeWidth = 2;
};
closed = 0;
nodes = (
(124,38,l),
(502,38,l)
);
}
);
};
layerId = "65988B1E-DCE2-4AC3-A6FF-994A1050067D";
shapes = (
{
closed = 1;
nodes = (
(162,0,l),
(162,664,ls),
(162,687,o),
(144,705,o),
(121,705,cs),
(98,705,o),
(80,687,o),
(80,664,cs),
(80,41,ls),
(80,18,o),
(98,0,o),
(121,0,cs)
);
},
{
closed = 1;
nodes = (
(446,0,ls),
(467,0,o),
(484,17,o),
(484,38,cs),
(484,59,o),
(467,76,o),
(446,76,cs),
(146,76,l),
(146,0,l)
);
}
);
width = 514;
},
{
anchors = (
{
name = bottom;
pos = (330,0);
},
{
name = center;
pos = (300,350);
},
{
name = top;
pos = (313,700);
},
{
name = topright;
pos = (580,700);
}
);
layerId = "6242D68C-0A25-4F05-8F2A-2075F7C4A210";
shapes = (
{
closed = 1;
nodes = (
(236,0,l),
(236,632,ls),
(236,675,o),
(201,710,o),
(158,710,cs),
(115,710,o),
(80,675,o),
(80,632,cs),
(80,78,ls),
(80,35,o),
(115,0,o),
(158,0,cs,{
name = "💚";
})
);
},
{
closed = 1;
nodes = (
(472,0,ls),
(513,0,o),
(547,34,o),
(547,75,cs),
(547,116,o),
(513,150,o),
(472,150,cs),
(199,150,l),
(199,0,l)
);
}
);
width = 577;
},
{
anchors = (
{
name = bottom;
pos = (277,0);
},
{
name = center;
pos = (267,350);
},
{
name = top;
pos = (124,700);
},
{
name = topright;
pos = (514,700);
}
);
associatedMasterId = "65988B1E-DCE2-4AC3-A6FF-994A1050067D";
layerId = "74C9DC4D-6C8C-45A5-8086-473651A20056";
name = "Original Skeleton";
shapes = (
{
attr = {
strokeWidth = 2;
};
closed = 0;
nodes = (
(101,698,l),
(101,0,l)
);
},
{
attr = {
strokeWidth = 2;
};
closed = 0;
nodes = (
(101,4,l),
(568,4,l)
);
}
);
width = 534;
},
{
anchors = (
{
name = bottom;
pos = (305,0);
},
{
name = center;
pos = (288,350);
},
{
name = top;
pos = (283,700);
},
{
name = topright;
pos = (585,700);
}
);
layerId = "3D52442A-254C-4C79-B742-A98FD72DF947";
shapes = (
{
closed = 1;
nodes = (
(126,0,l),
(126,687,ls),
(126,700,o),
(116,710,o),
(103,710,cs),
(90,710,o),
(80,700,o),
(80,687,cs),
(80,23,ls),
(80,10,o),
(90,0,o),
(103,0,cs)
);
},
{
closed = 1;
nodes = (
(437,0,ls),
(450,0,o),
(460,10,o),
(460,23,cs),
(460,36,o),
(450,46,o),
(437,46,cs),
(111,46,l),
(111,0,l)
);
}
);
width = 490;
}
);
metricLeft = H;
unicode = 76;
},
{
glyphname = L.ss02;
lastChange = "2021-08-11 18:42:50 +0000";
layers = (
{
anchors = (
{
name = bottom;
pos = (277,0);
},
{
name = center;
pos = (267,350);
},
{
name = top;
pos = (124,700);
},
{
name = topright;
pos = (514,700);
}
);
background = {
shapes = (
{
attr = {
strokeWidth = 2;
};
closed = 0;
nodes = (
(122,700,l),
(122,37,l)
);
},
{
attr = {
strokeWidth = 2;
};
closed = 0;
nodes = (
(124,38,l),
(502,38,l)
);
}
);
};
layerId = "65988B1E-DCE2-4AC3-A6FF-994A1050067D";
shapes = (
{
closed = 1;
nodes = (
(162,0,l),
(162,664,ls),
(162,687,o),
(144,705,o),
(121,705,cs),
(98,705,o),
(80,687,o),
(80,664,cs),
(80,41,ls),
(80,18,o),
(98,0,o),
(121,0,cs)
);
},
{
closed = 1;
nodes = (
(466,0,ls),
(487,0,o),
(504,17,o),
(504,38,cs),
(504,59,o),
(487,76,o),
(466,76,cs),
(146,76,l),
(146,0,l)
);
}
);
width = 534;
},
{
anchors = (
{
name = bottom;
pos = (330,0);
},
{
name = center;
pos = (300,350);
},
{
name = top;
pos = (313,700);
},
{
name = topright;
pos = (580,700);
}
);
layerId = "6242D68C-0A25-4F05-8F2A-2075F7C4A210";
shapes = (
{
closed = 1;
nodes = (
(240,0,l),
(240,628,ls),
(240,672,o),
(204,708,o),
(160,708,cs),
(116,708,o),
(80,672,o),
(80,628,cs),
(80,80,ls),
(80,36,o),
(116,0,o),
(160,0,cs)
);
},
{
closed = 1;
nodes = (
(502,0,ls),
(543,0,o),
(577,34,o),
(577,75,cs),
(577,116,o),
(543,150,o),
(502,150,cs),
(199,150,l),
(199,0,l)
);
}
);
width = 607;
},
{
anchors = (
{
name = bottom;
pos = (277,0);
},
{
name = center;
pos = (267,350);
},
{
name = top;
pos = (124,700);
},
{
name = topright;
pos = (514,700);
}
);
associatedMasterId = "65988B1E-DCE2-4AC3-A6FF-994A1050067D";
layerId = "74C9DC4D-6C8C-45A5-8086-473651A20056";
name = "Original Skeleton";
shapes = (
{
attr = {
strokeWidth = 2;
};
closed = 0;
nodes = (
(101,698,l),
(101,0,l)
);
},
{
attr = {
strokeWidth = 2;
};
closed = 0;
nodes = (
(101,4,l),
(568,4,l)
);
}
);
width = 534;
},
{
anchors = (
{
name = bottom;
pos = (300,0);
},
{
name = center;
pos = (283,350);
},
{
name = top;
pos = (278,700);
},
{
name = topright;
pos = (580,700);
}
);
layerId = "3D52442A-254C-4C79-B742-A98FD72DF947";
shapes = (
{
closed = 1;
nodes = (
(121,0,l),
(121,687,ls),
(121,700,o),
(111,710,o),
(98,710,cs),
(85,710,o),
(75,700,o),
(75,687,cs),
(75,23,ls),
(75,10,o),
(85,0,o),
(98,0,cs)
);
},
{
closed = 1;
nodes = (
(433,0,ls),
(446,0,o),
(456,10,o),
(456,23,cs),
(456,36,o),
(446,46,o),
(433,46,cs),
(106,46,l),
(106,0,l)
);
}
);
width = 486;
}
);
},
{
glyphname = Ldot;
lastChange = "2021-08-11 18:42:50 +0000";
layers = (
{
anchors = (
{
name = bottom;
pos = (277,0);
},
{
name = center;
pos = (267,350);
},
{
name = top;
pos = (124,700);
},
{
name = topright;
pos = (514,700);
}
);
background = {
shapes = (
{
ref = L;
},
{
pos = (264,110);
ref = periodcentered;
}
);
};
layerId = "65988B1E-DCE2-4AC3-A6FF-994A1050067D";
shapes = (
{
closed = 1;
nodes = (
(446,0,ls),
(467,0,o),
(484,17,o),
(484,38,cs),
(484,59,o),
(467,76,o),
(446,76,cs),
(162,76,l),
(162,664,ls),
(162,687,o),
(144,705,o),
(121,705,cs),
(98,705,o),
(80,687,o),
(80,664,cs),
(80,41,ls),
(80,18,o),
(98,0,o),
(121,0,cs)
);
},
{
pos = (280,0);
ref = periodcentered.case;
}
);
width = 514;
},
{
layerId = "6242D68C-0A25-4F05-8F2A-2075F7C4A210";
width = 600;
},
{
layerId = "3D52442A-254C-4C79-B742-A98FD72DF947";
width = 600;
}
);
unicode = 319;
},
{
glyphname = Lslash;
lastChange = "2021-08-11 18:42:50 +0000";
layers = (
{
layerId = "65988B1E-DCE2-4AC3-A6FF-994A1050067D";
shapes = (
{
closed = 1;
nodes = (
(207,76,l),
(207,0,l),
(551,0,ls),
(572,0,o),
(589,17,o),
(589,38,cs),
(589,59,o),
(572,76,o),
(551,76,cs)
);
},
{
closed = 1;
nodes = (
(247,664,ls),
(247,687,o),
(229,705,o),
(206,705,cs),
(183,705,o),
(165,687,o),
(165,664,cs),
(165,41,ls),
(165,18,o),
(183,0,o),
(206,0,cs),
(247,0,l)
);
},
{
attr = {
lineCapEnd = "2";
lineCapStart = "2";
strokeHeight = 78;
strokeWidth = 78;
};
closed = 0;
nodes = (
(48,287,l),
(421,478,l)
);
}
);
width = 619;
},
{
layerId = "6242D68C-0A25-4F05-8F2A-2075F7C4A210";
width = 600;
},
{
layerId = "3D52442A-254C-4C79-B742-A98FD72DF947";
width = 600;
}
);
unicode = 321;
},
{
glyphname = M;
lastChange = "2021-08-20 21:20:26 +0000";
layers = (
{
background = {
shapes = (
{
attr = {
strokeWidth = 2;
};
closed = 0;
nodes = (
(121,30,l),
(121,668,l)
);
},
{
attr = {
strokeWidth = 2;
};
closed = 0;
nodes = (
(131,666,l),
(394,21,l),
(652,666,l)
);
},
{
attr = {
strokeWidth = 2;
};
closed = 0;
nodes = (
(662,30,l),
(662,668,l)
);
},
{
closed = 1;
nodes = (
(413,0,o),
(426,12,o),
(440,46,cs),
(657,579,l),
(627,613,l),
(620,31,ls),
(620,8,o),
(638,-10,o),
(661,-10,cs),
(684,-10,o),
(702,8,o),
(702,31,cs),
(702,669,ls),
(702,692,o),
(684,710,o),
(654,710,cs),
(637,710,o),
(620,699,o),
(614,684,cs),
(376,80,l),
(406,80,l),
(168,684,ls),
(162,699,o),
(145,710,o),
(128,710,cs),
(98,710,o),
(80,692,o),
(80,669,cs),
(80,31,ls),
(80,8,o),
(98,-10,o),
(121,-10,cs),
(144,-10,o),
(162,8,o),
(162,31,cs),
(155,613,l),
(125,579,l),
(342,46,ls),
(356,12,o),
(369,0,o),
(391,0,cs)
);
}
);
};
layerId = "65988B1E-DCE2-4AC3-A6FF-994A1050067D";
shapes = (
{
closed = 1;
nodes = (
(145,-10,o),
(162,7,o),
(162,31,cs),
(154,626,l),
(120,589,l),
(364,38,ls),
(381,0,o),
(396,-10,o),
(416,-10,cs),
(436,-10,o),
(450,0,o),
(466,38,cs),
(701,593,l),
(667,626,l),
(660,31,ls),
(660,7,o),
(677,-10,o),
(701,-10,cs),
(725,-10,o),
(742,7,o),
(742,31,cs),
(740,665,l),
(740,689,o),
(721,710,o),
(695,710,cs),
(674,710,o),
(659,700,o),
(652,684,cs),
(401,76,l),
(430,76,l),
(168,684,ls),
(161,700,o),
(146,710,o),
(125,710,cs),
(99,710,o),
(80,689,o),
(80,665,cs),
(80,31,ls),
(80,7,o),
(97,-10,o),
(121,-10,cs)
);
}
);
width = 822;
},
{
background = {
shapes = (
{
attr = {
strokeWidth = 2;
};
closed = 0;
nodes = (
(179,71,l),
(179,626,l)
);
},
{
attr = {
strokeWidth = 2;
};
closed = 0;
nodes = (
(188,624,l),
(417,63,l),
(641,624,l)
);
},
{
attr = {
strokeWidth = 2;
};
closed = 0;
nodes = (
(650,71,l),
(650,626,l)
);
},
{
attr = {
strokeWidth = 2;
};
closed = 0;
nodes = (
(179,71,l),
(179,626,l)
);
},
{
attr = {
strokeWidth = 2;
};
closed = 0;
nodes = (
(188,624,l),
(417,63,l),
(641,624,l)
);
},
{
attr = {
strokeWidth = 2;
};
closed = 0;
nodes = (
(650,71,l),
(650,626,l)
);
},
{
closed = 1;
nodes = (
(459,0,o),
(480,38,o),
(497,78,cs),
(601,319,l),
(575,324,l),
(575,65,ls),
(575,24,o),
(609,-10,o),
(650,-10,cs),
(691,-10,o),
(725,24,o),
(725,65,cs),
(725,635,ls),
(725,677,o),
(692,710,o),
(650,710,cs),
(614,710,o),
(587,690,o),
(575,658,cs),
(392,178,l),
(441,178,l),
(253,658,ls),
(241,688,o),
(215,710,o),
(182,710,cs),
(131,710,o),
(104,678,o),
(104,623,cs),
(104,65,ls),
(104,24,o),
(138,-10,o),
(179,-10,cs),
(220,-10,o),
(254,24,o),
(254,65,cs),
(254,329,l),
(228,324,l),
(336,78,ls),
(353,38,o),
(373,0,o),
(416,0,cs)
);
}
);
};
layerId = "6242D68C-0A25-4F05-8F2A-2075F7C4A210";
shapes = (
{
closed = 1;
nodes = (
(196,-10,o),
(231,24,o),
(230,65,cs),
(220,436,l),
(203,408,l),
(361,68,ls),
(383,20,o),
(404,0,o),
(441,0,cs),
(476,0,o),
(499,17,o),
(522,68,cs),
(674,408,l),
(655,436,l),
(645,65,ls),
(644,24,o),
(679,-10,o),
(720,-10,cs),
(761,-10,o),
(795,24,o),
(795,65,cs),
(795,635,ls),
(795,677,o),
(762,710,o),
(720,710,cs),
(682,710,o),
(659,688,o),
(645,658,cs),
(412,159,l),
(477,159,l),
(229,658,ls),
(214,688,o),
(193,710,o),
(155,710,cs),
(117,710,o),
(80,682,o),
(80,623,cs),
(80,65,ls),
(80,24,o),
(114,-10,o),
(155,-10,cs)
);
}
);
width = 875;
},
{
associatedMasterId = "65988B1E-DCE2-4AC3-A6FF-994A1050067D";
layerId = "DD267F0F-BC8F-44EB-B536-100A5EF79BB7";
name = "Original Skeleton";
shapes = (
{
attr = {
strokeWidth = 2;
};
closed = 0;
nodes = (
(101,1,l),
(101,701,l)
);
},
{
attr = {
strokeWidth = 2;
};
closed = 0;
nodes = (
(142,701,l),
(393,1,l),
(640,701,l)
);
},
{
attr = {
strokeWidth = 2;
};
closed = 0;
nodes = (
(688,701,l),
(688,1,l)
);
}
);
width = 782;
},
{
background = {
shapes = (
{
closed = 1;
nodes = (
(379,80,l),
(617,679,ls),
(623,694,o),
(640,705,o),
(657,705,cs),
(687,705,o),
(705,687,o),
(705,664,cs),
(705,37,ls),
(705,14,o),
(687,-4,o),
(664,-4,cs),
(641,-4,o),
(623,14,o),
(623,37,cs),
(630,608,l),
(660,574,l),
(443,36,ls),
(431,5,o),
(413,-10,o),
(394,-10,cs),
(375,-10,o),
(357,5,o),
(345,36,cs),
(128,574,l),
(158,608,l),
(165,37,ls),
(165,14,o),
(147,-4,o),
(124,-4,cs),
(101,-4,o),
(83,14,o),
(83,37,cs),
(83,664,ls),
(83,687,o),
(101,705,o),
(131,705,cs),
(148,705,o),
(165,694,o),
(171,679,cs),
(409,80,l)
);
},
{
attr = {
strokeWidth = 2;
};
closed = 0;
nodes = (
(123,12,l),
(123,691,l)
);
},
{
attr = {
strokeWidth = 2;
};
closed = 0;
nodes = (
(125,680,l),
(396,12,l),
(661,677,l)
);
},
{
attr = {
strokeWidth = 2;
};
closed = 0;
nodes = (
(665,691,l),
(665,12,l)
);
}
);
};
layerId = "3D52442A-254C-4C79-B742-A98FD72DF947";
shapes = (
{
closed = 1;
nodes = (
(116,-10,o),
(126,0,o),
(126,13,cs),
(126,590,l),
(118,589,l),
(376,15,ls),
(380,7,o),
(388,0,o),
(398,0,cs),
(408,0,o),
(416,7,o),
(420,15,cs),
(670,595,l),
(662,596,l),
(662,13,ls),
(662,0,o),
(672,-10,o),
(685,-10,cs),
(698,-10,o),
(708,0,o),
(708,13,cs),
(708,687,ls),
(708,700,o),
(698,710,o),
(685,710,cs,{
name = "💚";
}),
(673,710,o),
(665,706,o),
(660,695,cs),
(390,63,l),
(406,63,l),
(126,695,ls),
(122,704,o),
(114,710,o),
(104,710,cs),
(90,710,o),
(80,700,o),
(80,687,cs),
(80,13,ls),
(80,0,o),
(90,-10,o),
(103,-10,cs)
);
}
);
width = 788;
}
);
metricLeft = H;
metricRight = H;
unicode = 77;
},
{
glyphname = M.ss02;
lastChange = "2021-08-11 18:42:50 +0000";
layers = (
{
background = {
shapes = (
{
attr = {
strokeWidth = 2;
};
closed = 0;
nodes = (
(121,30,l),
(121,668,l)
);
},
{
attr = {
strokeWidth = 2;
};
closed = 0;
nodes = (
(131,666,l),
(394,21,l),
(652,666,l)
);
},
{
attr = {
strokeWidth = 2;
};
closed = 0;
nodes = (
(662,30,l),
(662,668,l)
);
},
{
closed = 1;
nodes = (
(413,0,o),
(426,12,o),
(440,46,cs),
(657,579,l),
(627,613,l),
(620,31,ls),
(620,8,o),
(638,-10,o),
(661,-10,cs),
(684,-10,o),
(702,8,o),
(702,31,cs),
(702,669,ls),
(702,692,o),
(684,710,o),
(654,710,cs),
(637,710,o),
(620,699,o),
(614,684,cs),
(376,80,l),
(406,80,l),
(168,684,ls),
(162,699,o),
(145,710,o),
(128,710,cs),
(98,710,o),
(80,692,o),
(80,669,cs),
(80,31,ls),
(80,8,o),
(98,-10,o),
(121,-10,cs),
(144,-10,o),
(162,8,o),
(162,31,cs),
(155,613,l),
(125,579,l),
(342,46,ls),
(356,12,o),
(369,0,o),
(391,0,cs)
);
}
);
};
layerId = "65988B1E-DCE2-4AC3-A6FF-994A1050067D";
shapes = (
{
closed = 1;
nodes = (
(430,-10,o),
(446,5,o),
(460,36,cs),
(707,593,l),
(678,613,l),
(670,31,ls),
(670,8,o),
(688,-10,o),
(711,-10,cs),
(734,-10,o),
(752,8,o),
(752,31,cs),
(752,669,ls),
(752,692,o),
(734,710,o),
(704,710,cs),
(687,710,o),
(671,699,o),
(664,684,cs),
(396,80,l),
(426,80,l),
(168,684,ls),
(162,699,o),
(145,710,o),
(128,710,cs),
(98,710,o),
(80,692,o),
(80,669,cs),
(80,31,ls),
(80,8,o),
(98,-10,o),
(121,-10,cs),
(144,-10,o),
(162,8,o),
(162,31,cs),
(154,613,l),
(125,593,l),
(362,36,ls),
(375,5,o),
(392,-10,o),
(411,-10,cs)
);
}
);
width = 832;
},
{
background = {
shapes = (
{
attr = {
strokeWidth = 2;
};
closed = 0;
nodes = (
(134,71,l),
(134,626,l)
);
},
{
attr = {
strokeWidth = 2;
};
closed = 0;
nodes = (
(143,624,l),
(372,63,l),
(596,624,l)
);
},
{
attr = {
strokeWidth = 2;
};
closed = 0;
nodes = (
(605,71,l),
(605,626,l)
);
},
{
attr = {
strokeWidth = 2;
};
closed = 0;
nodes = (
(134,71,l),
(134,626,l)
);
},
{
attr = {
strokeWidth = 2;
};
closed = 0;
nodes = (
(143,624,l),
(372,63,l),
(596,624,l)
);
},
{
attr = {
strokeWidth = 2;
};
closed = 0;
nodes = (
(605,71,l),
(605,626,l)
);
},
{
closed = 1;
nodes = (
(414,0,o),
(435,38,o),
(452,78,cs),
(556,319,l),
(530,324,l),
(530,65,ls),
(530,24,o),
(564,-10,o),
(605,-10,cs),
(646,-10,o),
(680,24,o),
(680,65,cs),
(680,635,ls),
(680,677,o),
(647,710,o),
(605,710,cs),
(569,710,o),
(542,690,o),
(530,658,cs),
(347,178,l),
(396,178,l),
(208,658,ls),
(196,688,o),
(170,710,o),
(137,710,cs),
(86,710,o),
(59,678,o),
(59,623,cs),
(59,65,ls),
(59,24,o),
(93,-10,o),
(134,-10,cs),
(175,-10,o),
(209,24,o),
(209,65,cs),
(209,329,l),
(183,324,l),
(291,78,ls),
(308,38,o),
(328,0,o),
(371,0,cs)
);
}
);
};
layerId = "6242D68C-0A25-4F05-8F2A-2075F7C4A210";
shapes = (
{
closed = 1;
nodes = (
(445,197,l),
(260,650,ls),
(247,681,o),
(227,710,o),
(176,710,cs),
(124,710,o),
(86,682,o),
(85,623,cs),
(80,65,ls),
(80,24,o),
(114,-10,o),
(159,-10,cs),
(203,-10,o),
(238,24,o),
(237,65,cs),
(227,576,l),
(146,568,l),
(346,53,ls),
(359,20,o),
(390,0,o),
(424,0,cs),
(458,0,o),
(489,20,o),
(502,53,cs),
(702,568,l),
(621,576,l),
(611,65,ls),
(610,24,o),
(645,-10,o),
(690,-10,cs),
(735,-10,o),
(769,24,o),
(769,65,cs),
(763,623,ls),
(762,682,o),
(724,710,o),
(672,710,cs),
(621,710,o),
(601,681,o),
(588,650,cs),
(403,197,l)
);
}
);
width = 849;
},
{
associatedMasterId = "65988B1E-DCE2-4AC3-A6FF-994A1050067D";
layerId = "DD267F0F-BC8F-44EB-B536-100A5EF79BB7";
name = "Original Skeleton";
shapes = (
{
attr = {
strokeWidth = 2;
};
closed = 0;
nodes = (
(101,1,l),
(101,701,l)
);
},
{
attr = {
strokeWidth = 2;
};
closed = 0;
nodes = (
(142,701,l),
(393,1,l),
(640,701,l)
);
},
{
attr = {
strokeWidth = 2;
};
closed = 0;
nodes = (
(688,701,l),
(688,1,l)
);
}
);
width = 782;
},
{
background = {
shapes = (
{
closed = 1;
nodes = (
(359,80,l),
(597,679,ls),
(603,694,o),
(620,705,o),
(637,705,cs),
(667,705,o),
(685,687,o),
(685,664,cs),
(685,37,ls),
(685,14,o),
(667,-4,o),
(644,-4,cs),
(621,-4,o),
(603,14,o),
(603,37,cs),
(610,608,l),
(640,574,l),
(423,36,ls),
(411,5,o),
(393,-10,o),
(374,-10,cs),
(355,-10,o),
(337,5,o),
(325,36,cs),
(108,574,l),
(138,608,l),
(145,37,ls),
(145,14,o),
(127,-4,o),
(104,-4,cs),
(81,-4,o),
(63,14,o),
(63,37,cs),
(63,664,ls),
(63,687,o),
(81,705,o),
(111,705,cs),
(128,705,o),
(145,694,o),
(151,679,cs),
(389,80,l)
);
},
{
attr = {
strokeWidth = 2;
};
closed = 0;
nodes = (
(103,12,l),
(103,691,l)
);
},
{
attr = {
strokeWidth = 2;
};
closed = 0;
nodes = (
(105,680,l),
(376,12,l),
(641,677,l)
);
},
{
attr = {
strokeWidth = 2;
};
closed = 0;
nodes = (
(645,691,l),
(645,12,l)
);
}
);
};
layerId = "3D52442A-254C-4C79-B742-A98FD72DF947";
shapes = (
{
closed = 1;
nodes = (
(382,0,o),
(391,7,o),
(394,15,cs),
(630,595,l),
(622,596,l),
(622,13,ls),
(622,0,o),
(632,-10,o),
(645,-10,cs),
(658,-10,o),
(668,0,o),
(668,13,cs),
(668,687,ls),
(668,700,o),
(658,710,o),
(645,710,cs,{
name = "💚";
}),
(633,710,o),
(625,706,o),
(620,695,cs),
(364,63,l),
(380,63,l),
(126,695,ls),
(122,704,o),
(114,710,o),
(103.576,709.993,cs),
(90,710,o),
(80,700,o),
(80,687,cs),
(80,13,ls),
(80,0,o),
(90,-10,o),
(103,-10,cs),
(116,-10,o),
(126,0,o),
(126,13,cs),
(126,590,l),
(118,589,l),
(350,15,ls),
(353,7,o),
(362,0,o),
(372,0,cs)
);
}
);
width = 748;
}
);
},
{
glyphname = N;
lastChange = "2021-08-20 20:28:48 +0000";
layers = (
{
anchors = (
{
name = bottom;
pos = (329,0);
},
{
name = top;
pos = (329,700);
}
);
background = {
shapes = (
{
attr = {
strokeWidth = 2;
};
closed = 0;
nodes = (
(121,0,l),
(121,700,l)
);
},
{
attr = {
strokeWidth = 2;
};
closed = 0;
nodes = (
(130,678,l),
(551,0,l)
);
},
{
attr = {
strokeWidth = 2;
};
closed = 0;
nodes = (
(540,32,l),
(540,700,l)
);
}
);
};
layerId = "65988B1E-DCE2-4AC3-A6FF-994A1050067D";
shapes = (
{
closed = 1;
nodes = (
(145,-10,o),
(162,7,o),
(162,31,cs),
(158,613,l),
(104,641,l),
(480,26,ls),
(493,5,o),
(504,-10,o),
(536,-10,cs),
(559,-10,o),
(577,8,o),
(577,31,cs),
(577,669,ls),
(577,693,o),
(560,710,o),
(536,710,cs),
(512,710,o),
(495,693,o),
(495,669,cs),
(500,66,l),
(515,122,l),
(177,674,ls),
(164,695,o),
(151,710,o),
(121,710,cs),
(98,710,o),
(80,692,o),
(80,669,cs),
(80,31,ls),
(80,7,o),
(97,-10,o),
(121,-10,cs)
);
}
);
width = 657;
},
{
anchors = (
{
name = bottom;
pos = (393,0);
},
{
name = top;
pos = (393,700);
}
);
background = {
shapes = (
{
attr = {
strokeWidth = 2;
};
closed = 0;
nodes = (
(166,0,l),
(166,700,l),
(209,700,l),
(596,0,l),
(625,0,l),
(625,700,l)
);
},
{
closed = 1;
nodes = (
(222,-10,o),
(261,29,o),
(260,76,cs),
(249,641,l),
(138,625,l),
(473,40,ls),
(490,11,o),
(516,-20,o),
(581,-20,cs),
(655,-20,o),
(698,16,o),
(698,79,cs),
(698,625,ls),
(698,671,o),
(660,710,o),
(613,710,cs),
(566,710,o),
(527,671,o),
(528,625,cs),
(539,21,l),
(654,58,l),
(315,650,ls),
(298,680,o),
(272,710,o),
(199,710,cs),
(133,710,o),
(90,674,o),
(90,611,cs),
(90,76,ls),
(90,29,o),
(128,-10,o),
(175,-10,cs)
);
},
{
closed = 1;
nodes = (
(214,-8,o),
(250,28,o),
(250,72,cs),
(250,281,l),
(524,281,l),
(524,72,ls),
(524,28,o),
(560,-8,o),
(604,-8,cs),
(648,-8,o),
(684,28,o),
(684,72,cs),
(684,628,ls),
(684,672,o),
(648,708,o),
(604,708,cs),
(560,708,o),
(524,672,o),
(524,628,cs),
(524,431,l),
(250,431,l),
(250,628,ls),
(250,672,o),
(214,708,o),
(170,708,cs),
(126,708,o),
(90,672,o),
(90,628,cs),
(90,72,ls),
(90,28,o),
(126,-8,o),
(170,-8,cs)
);
}
);
};
layerId = "6242D68C-0A25-4F05-8F2A-2075F7C4A210";
shapes = (
{
closed = 1;
nodes = (
(211,-10,o),
(247,25,o),
(246,68,cs),
(238,490,l),
(204,459,l),
(528,21,ls),
(542,3,o),
(564,-11,o),
(592,-11,cs),
(635,-11,o),
(670,24,o),
(670,67,cs),
(670,632,ls),
(670,675,o),
(635,710,o),
(592,710,cs),
(549,710,o),
(513,675,o),
(514,632,cs),
(522,179,l),
(543,234,l),
(231,678,ls),
(216,699,o),
(193,710,o),
(168,710,cs),
(125,710,o),
(90,675,o),
(90,632,cs),
(90,68,ls),
(90,25,o),
(125,-10,o),
(168,-10,cs)
);
}
);
width = 760;
},
{
associatedMasterId = "65988B1E-DCE2-4AC3-A6FF-994A1050067D";
background = {
shapes = (
{
attr = {
strokeWidth = 2;
};
closed = 0;
nodes = (
(121,0,l),
(121,700,l),
(164,700,l),
(551,0,l),
(580,0,l),
(580,700,l)
);
},
{
closed = 1;
nodes = (
(142,-10,o),
(160,8,o),
(160,31,cs),
(160,332,l),
(512,332,l),
(512,31,ls),
(512,8,o),
(530,-10,o),
(553,-10,cs),
(576,-10,o),
(594,8,o),
(594,31,cs),
(594,669,ls),
(594,692,o),
(576,710,o),
(553,710,cs),
(530,710,o),
(512,692,o),
(512,669,cs),
(512,408,l),
(160,408,l),
(160,669,ls),
(160,692,o),
(142,710,o),
(119,710,cs),
(96,710,o),
(78,692,o),
(78,669,cs),
(78,31,ls),
(78,8,o),
(96,-10,o),
(119,-10,cs)
);
}
);
};
layerId = "4F32692D-A073-4367-80EE-3CF7FA349304";
name = "Original Skeleton";
shapes = (
{
attr = {
strokeWidth = 2;
};
closed = 0;
nodes = (
(122,32,l),
(122,669,l),
(161,669,l),
(513,32,l),
(539,32,l),
(539,669,l)
);
}
);
width = 657;
},
{
anchors = (
{
name = bottom;
pos = (312,0);
},
{
name = top;
pos = (312,700);
}
);
background = {
shapes = (
{
closed = 1;
nodes = (
(120,-10,o),
(133,3,o),
(133,20,cs),
(132,609,l),
(119,607,l),
(497,6,ls),
(501,-1,o),
(512,-10,o),
(529,-10,cs),
(546,-10,o),
(559,3,o),
(559,20,cs),
(559,680,ls),
(559,697,o),
(546,710,o),
(529,710,cs),
(512,710,o),
(499,697,o),
(499,680,cs),
(500,91,l),
(513,90,l),
(131,694,ls),
(126,702,o),
(118,710,o),
(104,710,cs),
(87,710,o),
(73,697,o),
(73,680,cs),
(73,20,ls),
(73,3,o),
(86,-10,o),
(103,-10,cs)
);
}
);
};
layerId = "3D52442A-254C-4C79-B742-A98FD72DF947";
shapes = (
{
closed = 1;
nodes = (
(116,-10,o),
(126,0,o),
(126,13,cs),
(125,635,l),
(115,630,l),
(502,0,ls),
(506,-6,o),
(513,-10,o),
(521,-10,cs),
(535,-10,o),
(545,0,o),
(545,13,cs),
(545,687,ls),
(545,700,o),
(535,710,o),
(522,710,cs),
(509,710,o),
(499,700,o),
(499,687,cs),
(500,67,l),
(510,70,l),
(123,700,ls),
(119,706,o),
(112,710,o),
(102,710,cs),
(88,710,o),
(80,700,o),
(80,687,cs),
(80,13,ls),
(80,0,o),
(90,-10,o),
(103,-10,cs)
);
}
);
width = 625;
}
);
metricLeft = H;
metricRight = H;
unicode = 78;
},
{
glyphname = N.ss02;
lastChange = "2021-08-18 21:06:08 +0000";
layers = (
{
layerId = "65988B1E-DCE2-4AC3-A6FF-994A1050067D";
shapes = (
{
closed = 1;
nodes = (
(145,-5,o),
(162,12,o),
(162,36,cs),
(158,608,l),
(111,636,l),
(507,40,ls),
(520,20,o),
(543,-6,o),
(578,-5,cs),
(606,-4,o),
(624,13,o),
(624,36,cs),
(624,664,ls),
(624,688,o),
(607,705,o),
(583,705,cs),
(559,705,o),
(542,688,o),
(542,664,cs),
(542,71,l),
(556,113,l),
(183,669,ls),
(169,690,o),
(149,705,o),
(125,705,cs),
(98,705,o),
(80,687,o),
(80,664,cs),
(80,36,ls),
(80,12,o),
(97,-5,o),
(121,-5,cs)
);
}
);
width = 704;
},
{
background = {
shapes = (
{
closed = 1;
nodes = (
(121,-10,o),
(156,25,o),
(156,68,cs),
(156,632,ls),
(156,675,o),
(121,710,o),
(78,710,cs),
(35,710,o),
(0,675,o),
(0,632,cs),
(0,68,ls),
(0,25,o),
(35,-10,o),
(78,-10,cs)
);
},
{
closed = 1;
nodes = (
(561,-10,o),
(596,25,o),
(596,68,cs),
(596,632,ls),
(596,675,o),
(561,710,o),
(518,710,cs),
(475,710,o),
(440,675,o),
(440,632,cs),
(440,68,ls),
(440,25,o),
(475,-10,o),
(518,-10,cs)
);
},
{
closed = 1;
nodes = (
(525,281,l),
(525,431,l),
(108,431,l),
(108,281,l)
);
}
);
};
layerId = "6242D68C-0A25-4F05-8F2A-2075F7C4A210";
shapes = (
{
closed = 1;
nodes = (
(121,-10,o),
(157,25,o),
(156,68,cs),
(148,490,l),
(110,459,l),
(418,11,ls),
(430,-7,o),
(454,-21,o),
(482,-21,cs),
(525,-21,o),
(560,14,o),
(560,57,cs),
(560,641,ls),
(560,684,o),
(525,719,o),
(482,719,cs),
(439,719,o),
(403,684,o),
(404,641,cs),
(412,169,l),
(441,224,l),
(141,678,ls),
(127,700,o),
(103,710,o),
(78,710,cs),
(35,710,o),
(0,675,o),
(0,632,cs),
(0,68,ls),
(0,25,o),
(35,-10,o),
(78,-10,cs)
);
}
);
width = 560;
},
{
layerId = "3D52442A-254C-4C79-B742-A98FD72DF947";
shapes = (
{
closed = 1;
nodes = (
(116,-10,o),
(126,0,o),
(126,13,cs),
(125,635,l),
(115,630,l),
(515,0,ls),
(519,-6,o),
(526,-10,o),
(534,-10,cs),
(548,-10,o),
(558,0,o),
(558,13,cs),
(558,687,ls),
(558,700,o),
(548,710,o),
(535,710,cs),
(522,710,o),
(512,700,o),
(512,687,cs),
(513,67,l),
(523,70,l),
(123,700,ls),
(119,706,o),
(112,710,o),
(102,710,cs),
(88,710,o),
(80,700,o),
(80,687,cs),
(80,13,ls),
(80,0,o),
(90,-10,o),
(103,-10,cs)
);
}
);
width = 638;
}
);
},
{
glyphname = Eng;
lastChange = "2021-08-11 18:42:51 +0000";
layers = (
{
anchors = (
{
name = bottom;
pos = (907,0);
},
{
name = top;
pos = (1037,700);
}
);
layerId = "65988B1E-DCE2-4AC3-A6FF-994A1050067D";
shapes = (
{
ref = N;
},
{
closed = 1;
nodes = (
(478,35,l),
(486,22,o),
(497,8,o),
(497,-18,cs),
(497,-64,o),
(462,-106,o),
(406,-106,cs),
(346,-106,o),
(315,-58,o),
(315,0,cs),
(315,23,o),
(299,41,o),
(276,41,cs),
(253,41,o),
(235,23,o),
(235,-13,cs),
(235,-86,o),
(289,-185,o),
(412,-185,cs),
(533,-185,o),
(577,-77,o),
(577,21,cs),
(577,35,l)
);
}
);
width = 657;
},
{
layerId = "6242D68C-0A25-4F05-8F2A-2075F7C4A210";
width = 600;
},
{
layerId = "3D52442A-254C-4C79-B742-A98FD72DF947";
width = 600;
}
);
metricLeft = "=N";
metricRight = "=N";
unicode = 330;
},
{
glyphname = O;
lastChange = "2021-08-20 19:41:33 +0000";
layers = (
{
anchors = (
{
name = bottom;
pos = (338,0);
},
{
name = center;
pos = (338,350);
},
{
name = ogonek;
pos = (426,0);
},
{
name = top;
pos = (338,700);
},
{
name = topleft;
pos = (14,700);
},
{
name = topright;
pos = (662,700);
}
);
background = {
shapes = (
{
attr = {
strokeWidth = 2;
};
closed = 1;
nodes = (
(581,162,o),
(479,23,o),
(338,23,cs),
(197,23,o),
(95,161,o),
(95,351,c),
(95,543,o),
(197,682,o),
(338,682,cs),
(479,682,o),
(581,543,o),
(581,351,c)
);
},
{
closed = 1;
nodes = (
(146,-10,o),
(163,7,o),
(163,31,cs),
(163,669,ls),
(163,693,o),
(146,710,o),
(122,710,cs),
(98,710,o),
(81,693,o),
(81,669,cs),
(81,31,ls),
(81,7,o),
(98,-10,o),
(122,-10,cs)
);
},
{
closed = 1;
nodes = (
(578,-10,o),
(595,7,o),
(595,31,cs),
(595,669,ls),
(595,693,o),
(578,710,o),
(554,710,cs),
(530,710,o),
(513,693,o),
(513,669,cs),
(513,31,ls),
(513,7,o),
(530,-10,o),
(554,-10,cs)
);
},
{
closed = 1;
nodes = (
(560,323,l),
(560,399,l),
(124,399,l),
(124,323,l)
);
}
);
};
layerId = "65988B1E-DCE2-4AC3-A6FF-994A1050067D";
shapes = (
{
closed = 1;
nodes = (
(514,-17,o),
(622,127,o),
(622,348,cs),
(622,569,o),
(504,713,o),
(338,713,cs),
(172,713,o),
(54,569,o),
(54,348,cs),
(54,127,o),
(162,-17,o),
(338,-17,cs)
);
},
{
closed = 1;
nodes = (
(212,58,o),
(136,176,o),
(136,348,cs),
(136,519,o),
(212,638,o),
(338,638,cs),
(464,638,o),
(540,519,o),
(540,348,cs),
(540,176,o),
(464,58,o),
(338,58,cs)
);
}
);
width = 676;
},
{
anchors = (
{
name = bottom;
pos = (371,0);
},
{
name = center;
pos = (371,350);
},
{
name = ogonek;
pos = (440,0);
},
{
name = top;
pos = (371,700);
},
{
name = topleft;
pos = (0,700);
},
{
name = topright;
pos = (742,700);
}
);
background = {
shapes = (
{
closed = 1;
nodes = (
(195,-14,o),
(87,130,o),
(87,350,cs),
(87,571,o),
(205,715,o),
(371,715,cs),
(537,715,o),
(655,571,o),
(655,350,cs),
(655,130,o),
(547,-14,o),
(371,-14,c)
);
},
{
closed = 1;
nodes = (
(245,640,o),
(169,521,o),
(169,350,cs),
(169,179,o),
(245,61,o),
(371,61,cs),
(497,61,o),
(573,179,o),
(573,350,cs),
(573,521,o),
(497,640,o),
(371,640,cs)
);
},
{
attr = {
strokeWidth = 2;
};
closed = 1;
nodes = (
(614,158,o),
(512,19,o),
(371,19,cs),
(230,19,o),
(128,158,o),
(128,351,c),
(128,543,o),
(230,682,o),
(371,682,cs),
(512,682,o),
(614,543,o),
(614,351,c)
);
},
{
closed = 1;
nodes = (
(195,-10,o),
(230,25,o),
(230,68,cs),
(230,632,ls),
(230,675,o),
(195,710,o),
(152,710,cs),
(109,710,o),
(74,675,o),
(74,632,cs),
(74,68,ls),
(74,25,o),
(109,-10,o),
(152,-10,cs)
);
},
{
closed = 1;
nodes = (
(633,-10,o),
(668,25,o),
(668,68,cs),
(668,632,ls),
(668,675,o),
(633,710,o),
(590,710,cs),
(547,710,o),
(512,675,o),
(512,632,cs),
(512,68,ls),
(512,25,o),
(547,-10,o),
(590,-10,cs)
);
},
{
closed = 1;
nodes = (
(597,281,l),
(597,431,l),
(182,431,l),
(182,281,l)
);
}
);
};
layerId = "6242D68C-0A25-4F05-8F2A-2075F7C4A210";
shapes = (
{
closed = 1;
nodes = (
(553,-17,o),
(686,133,o),
(686,348,cs),
(686,563,o),
(558,712,o),
(376,712,cs),
(194,712,o),
(56,563,o),
(56,348,cs),
(56,133,o),
(189,-17,o),
(371,-17,cs)
);
},
{
closed = 1;
nodes = (
(275,123,o),
(213,217,o),
(213,348,cs),
(213,479,o),
(275,572,o),
(371,572,cs),
(467,572,o),
(529,479,o),
(529,348,cs),
(529,217,o),
(467,123,o),
(371,123,cs)
);
}
);
width = 742;
},
{
associatedMasterId = "65988B1E-DCE2-4AC3-A6FF-994A1050067D";
background = {
shapes = (
{
attr = {
strokeWidth = 2;
};
closed = 1;
nodes = (
(587,158,o),
(485,19,o),
(344,19,cs),
(203,19,o),
(101,158,o),
(101,351,c),
(101,543,o),
(203,682,o),
(344,682,cs),
(485,682,o),
(587,543,o),
(587,351,c)
);
},
{
closed = 1;
nodes = (
(465,84,o),
(540,185,o),
(540,350,cs),
(540,515,o),
(465,616,o),
(343,616,cs),
(221,616,o),
(146,515,o),
(146,350,cs),
(146,185,o),
(221,84,o),
(343,84,cs)
);
},
{
closed = 1;
nodes = (
(157,-20,o),
(40,123,o),
(40,350,cs),
(40,577,o),
(157,720,o),
(343,720,cs),
(529,720,o),
(646,577,o),
(646,350,cs),
(646,123,o),
(529,-20,o),
(343,-20,cs)
);
}
);
};
layerId = "8B5E1BA3-4DA6-4A44-AC2C-89FF2CF17CA5";
name = "Original Skeleton";
shapes = (
{
attr = {
strokeWidth = 2;
};
closed = 1;
nodes = (
(579,152,o),
(463,-7,o),
(320,-7,cs),
(177,-7,o),
(61,152,o),
(61,347,c),
(61,542,o),
(177,700,o),
(320,700,cs),
(463,700,o),
(579,542,o),
(579,347,c)
);
}
);
width = 688;
},
{
anchors = (
{
name = bottom;
pos = (335,0);
},
{
name = center;
pos = (335,350);
},
{
name = ogonek;
pos = (395,0);
},
{
name = top;
pos = (335,700);
},
{
name = topleft;
pos = (55,700);
},
{
name = topright;
pos = (615,700);
}
);
background = {
shapes = (
{
attr = {
strokeWidth = 2;
};
closed = 1;
nodes = (
(577,152,o),
(473,9,o),
(328,9,cs),
(182,9,o),
(78,152,o),
(78,350,c),
(78,548,o),
(182,691,o),
(328,691,cs),
(473,691,o),
(577,548,o),
(577,350,c)
);
},
{
closed = 1;
nodes = (
(119,-10,o),
(129,0,o),
(129,13,cs),
(129,687,ls),
(129,700,o),
(119,710,o),
(106,710,cs),
(93,710,o),
(83,700,o),
(83,687,cs),
(83,13,ls),
(83,0,o),
(93,-10,o),
(106,-10,cs)
);
},
{
closed = 1;
nodes = (
(561,-10,o),
(571,0,o),
(571,13,cs),
(571,687,ls),
(571,700,o),
(561,710,o),
(548,710,cs),
(535,710,o),
(525,700,o),
(525,687,cs),
(525,13,ls),
(525,0,o),
(535,-10,o),
(548,-10,cs)
);
},
{
closed = 1;
nodes = (
(538,338,l),
(538,383,l),
(120,383,l),
(120,338,l)
);
}
);
};
layerId = "3D52442A-254C-4C79-B742-A98FD72DF947";
shapes = (
{
closed = 1;
nodes = (
(498,-17,o),
(610,138,o),
(610,347,cs),
(610,556,o),
(498,711,o),
(328,711,cs),
(157,711,o),
(45,556,o),
(45,347,cs),
(45,138,o),
(157,-17,o),
(328,-17,cs)
);
},
{
closed = 1;
nodes = (
(184,26,o),
(91,156,o),
(91,347,cs),
(91,538,o),
(184,667,o),
(328,667,cs),
(471,667,o),
(564,538,o),
(564,347,cs),
(564,156,o),
(471,26,o),
(328,26,cs)
);
}
);
width = 655;
}
);
unicode = 79;
},
{
glyphname = O.ss02;
lastChange = "2021-08-10 20:43:14 +0000";
layers = (
{
anchors = (
{
name = bottom;
pos = (347,0);
},
{
name = center;
pos = (347,350);
},
{
name = ogonek;
pos = (625,10);
},
{
name = top;
pos = (347,700);
},
{
name = topleft;
pos = (20,700);
},
{
name = topright;
pos = (674,700);
}
);
background = {
shapes = (
{
closed = 1;
nodes = (
(557,179,o),
(481,58,o),
(349,58,cs),
(218,58,o),
(142,179,o),
(142,350,cs),
(142,521,o),
(218,643,o),
(349,643,cs),
(481,643,o),
(557,521,o),
(557,350,cs)
);
},
{
closed = 1;
nodes = (
(634,571,o),
(531,715,o),
(349,715,cs),
(178,715,o),
(60,571,o),
(60,350,cs),
(60,130,o),
(168,-14,o),
(349,-14,cs),
(531,-14,o),
(634,130,o),
(634,350,cs)
);
},
{
closed = 1;
nodes = (
(532,179,o),
(463,61,o),
(341,61,cs),
(220,61,o),
(146,179,o),
(146,350,cs),
(146,521,o),
(220,640,o),
(341,640,cs),
(463,640,o),
(532,521,o),
(532,350,cs)
);
},
{
closed = 1;
nodes = (
(618,571,o),
(513,715,o),
(341,715,cs),
(170,715,o),
(60,571,o),
(60,350,cs),
(60,130,o),
(168,-14,o),
(339,-14,cs),
(511,-14,o),
(618,130,o),
(618,350,cs)
);
}
);
};
layerId = "65988B1E-DCE2-4AC3-A6FF-994A1050067D";
shapes = (
{
closed = 1;
nodes = (
(532,179,o),
(463,61,o),
(341,61,cs),
(220,61,o),
(146,179,o),
(146,350,cs),
(146,521,o),
(220,640,o),
(341,640,cs),
(463,640,o),
(532,521,o),
(532,350,cs)
);
},
{
closed = 1;
nodes = (
(618,571,o),
(513,715,o),
(341,715,cs),
(170,715,o),
(60,571,o),
(60,350,cs),
(60,130,o),
(168,-14,o),
(339,-14,cs),
(511,-14,o),
(618,130,o),
(618,350,cs)
);
}
);
width = 694;
},
{
layerId = "6242D68C-0A25-4F05-8F2A-2075F7C4A210";
width = 600;
},
{
layerId = "3D52442A-254C-4C79-B742-A98FD72DF947";
width = 600;
}
);
},
{
glyphname = Ohorn;
lastChange = "2021-08-11 18:42:51 +0000";
layers = (
{
anchors = (
{
name = bottom;
pos = (344,0);
},
{
name = top;
pos = (344,700);
}
);
layerId = "65988B1E-DCE2-4AC3-A6FF-994A1050067D";
shapes = (
{
closed = 1;
nodes = (
(168,-14,o),
(60,130,o),
(60,350,cs),
(60,571,o),
(178,715,o),
(344,715,cs),
(510,715,o),
(628,571,o),
(628,350,cs),
(628,130,o),
(520,-14,o),
(344,-14,cs,{
name = "💚";
})
);
},
{
closed = 1;
nodes = (
(218,640,o),
(142,521,o),
(142,350,cs),
(142,179,o),
(218,61,o),
(344,61,cs),
(470,61,o),
(546,179,o),
(546,350,cs),
(546,521,o),
(470,640,o),
(344,640,cs)
);
},
{
closed = 1;
nodes = (
(495,837,o),
(509,851,o),
(533,851,cs),
(553,851,o),
(567,835,o),
(567,813,cs),
(567,743,o),
(500,665,o),
(435,665,cs),
(347,665,l),
(348,715,l),
(387,715,ls),
(447,715,o),
(495,760,o),
(495,813,cs,{
name = "💚";
})
);
}
);
width = 688;
},
{
anchors = (
{
name = bottom;
pos = (300,0);
},
{
name = top;
pos = (300,700);
}
);
layerId = "6242D68C-0A25-4F05-8F2A-2075F7C4A210";
width = 600;
},
{
anchors = (
{
name = bottom;
pos = (300,0);
},
{
name = top;
pos = (300,700);
}
);
layerId = "3D52442A-254C-4C79-B742-A98FD72DF947";
width = 600;
}
);
unicode = 416;
},
{
glyphname = Ohornacute;
lastChange = "2021-08-11 18:42:18 +0000";
layers = (
{
layerId = "65988B1E-DCE2-4AC3-A6FF-994A1050067D";
shapes = (
{
ref = Ohorn;
},
{
pos = (251,170);
ref = acutecomb;
},
{
closed = 1;
nodes = (
(168,-14,o),
(60,130,o),
(60,350,cs),
(60,571,o),
(178,715,o),
(344,715,cs),
(510,715,o),
(628,571,o),
(628,350,cs),
(628,130,o),
(520,-14,o),
(344,-14,cs,{
name = "💚";
})
);
},
{
closed = 1;
nodes = (
(218,640,o),
(142,521,o),
(142,350,cs),
(142,179,o),
(218,61,o),
(344,61,cs),
(470,61,o),
(546,179,o),
(546,350,cs),
(546,521,o),
(470,640,o),
(344,640,cs)
);
}
);
width = 600;
},
{
layerId = "6242D68C-0A25-4F05-8F2A-2075F7C4A210";
width = 600;
},
{
layerId = "3D52442A-254C-4C79-B742-A98FD72DF947";
width = 600;
}
);
unicode = 7898;
},
{
glyphname = Ohorntilde;
lastChange = "2021-08-11 18:42:51 +0000";
layers = (
{
anchors = (
{
name = bottom;
pos = (344,0);
},
{
name = top;
pos = (344,700);
}
);
layerId = "65988B1E-DCE2-4AC3-A6FF-994A1050067D";
shapes = (
{
closed = 1;
nodes = (
(168,-14,o),
(60,130,o),
(60,350,cs),
(60,571,o),
(178,715,o),
(344,715,cs),
(510,715,o),
(628,571,o),
(628,350,cs),
(628,130,o),
(520,-14,o),
(344,-14,cs,{
name = "💚";
})
);
},
{
closed = 1;
nodes = (
(218,640,o),
(142,521,o),
(142,350,cs),
(142,179,o),
(218,61,o),
(344,61,cs),
(470,61,o),
(546,179,o),
(546,350,cs),
(546,521,o),
(470,640,o),
(344,640,cs)
);
},
{
closed = 1;
nodes = (
(545,837,o),
(559,851,o),
(583,851,cs),
(603,851,o),
(617,835,o),
(617,813,cs),
(617,743,o),
(550,665,o),
(485,665,cs),
(347,665,l),
(348,715,l),
(437,715,ls),
(497,715,o),
(545,760,o),
(545,813,cs,{
name = "💚";
})
);
},
{
pos = (123,185);
ref = tildecomb.loclVIT;
}
);
width = 688;
},
{
layerId = "6242D68C-0A25-4F05-8F2A-2075F7C4A210";
width = 600;
},
{
layerId = "3D52442A-254C-4C79-B742-A98FD72DF947";
width = 600;
}
);
unicode = 7904;
},
{
glyphname = Oogonek;
lastChange = "2021-08-11 18:42:51 +0000";
layers = (
{
layerId = "65988B1E-DCE2-4AC3-A6FF-994A1050067D";
shapes = (
{
ref = O;
},
{
closed = 1;
nodes = (
(452,-113,o),
(444,-121,o),
(428,-121,cs),
(408,-121,o),
(404,-109,o),
(404,-101,cs),
(404,-60,o),
(486,16,o),
(535,65,cs),
(536,66,l),
(492,96,l),
(448,53,ls),
(443,48,o),
(334,-31,o),
(334,-109,cs),
(334,-160,o),
(379,-183,o),
(426,-185,cs),
(452,-186,o),
(488,-181,o),
(518,-146,cs),
(524,-139,o),
(528,-131,o),
(528,-121,cs),
(528,-101,o),
(514,-87,o),
(494,-87,cs),
(483,-87,o),
(474,-91,o),
(467,-98,cs)
);
}
);
width = 688;
},
{
layerId = "6242D68C-0A25-4F05-8F2A-2075F7C4A210";
width = 600;
},
{
layerId = "3D52442A-254C-4C79-B742-A98FD72DF947";
width = 600;
}
);
unicode = 490;
},
{
glyphname = Oslash;
lastChange = "2021-08-11 18:42:18 +0000";
layers = (
{
anchors = (
{
name = bottom;
pos = (355,0);
},
{
name = top;
pos = (355,700);
}
);
layerId = "65988B1E-DCE2-4AC3-A6FF-994A1050067D";
shapes = (
{
closed = 1;
nodes = (
(526,-14,o),
(634,130,o),
(634,350,cs),
(634,571,o),
(516,715,o),
(350,715,cs),
(184,715,o),
(66,571,o),
(66,350,cs),
(66,130,o),
(174,-14,o),
(350,-14,cs,{
name = "💚";
})
);
},
{
closed = 1;
nodes = (
(224,61,o),
(148,179,o),
(148,350,cs),
(148,521,o),
(224,640,o),
(350,640,cs),
(476,640,o),
(552,521,o),
(552,350,cs),
(552,179,o),
(476,61,o),
(350,61,cs)
);
},
{
attr = {
lineCapEnd = "2";
lineCapStart = "2";
strokeHeight = 68;
strokeWidth = 68;
};
closed = 0;
nodes = (
(624,730,l),
(75,-16,l)
);
}
);
width = 709;
},
{
layerId = "6242D68C-0A25-4F05-8F2A-2075F7C4A210";
width = 600;
},
{
layerId = "3D52442A-254C-4C79-B742-A98FD72DF947";
width = 600;
}
);
unicode = 216;
},
{
glyphname = OE;
lastChange = "2021-08-11 18:42:51 +0000";
layers = (
{
anchors = (
{
name = bottom;
pos = (472,0);
},
{
name = top;
pos = (472,700);
}
);
annotations = (
{
pos = (1101.167,737.687);
text = "place holder";
type = Text;
}
);
layerId = "65988B1E-DCE2-4AC3-A6FF-994A1050067D";
shapes = (
{
closed = 1;
nodes = (
(507,657,l),
(462,695,o),
(406,715,o),
(344,715,cs),
(178,715,o),
(60,571,o),
(60,350,cs),
(60,130,o),
(168,-14,o),
(344,-14,cs,{
name = "💚";
}),
(408,-14,o),
(463,5,o),
(507,40,c),
(507,166,l),
(473,100,o),
(417,61,o),
(344,61,cs),
(218,61,o),
(142,179,o),
(142,350,cs),
(142,521,o),
(218,640,o),
(344,640,cs),
(417,640,o),
(473,600,o),
(507,534,c)
);
},
{
closed = 1;
nodes = (
(876,0,ls),
(897,0,o),
(914,17,o),
(914,38,cs),
(914,59,o),
(897,76,o),
(876,76,cs),
(532,76,l),
(532,0,l)
);
},
{
closed = 1;
nodes = (
(572,0,l),
(572,700,l),
(531,700,ls,{
name = "💚";
}),
(508,700,o),
(490,682,o),
(490,659,cs),
(490,41,ls),
(490,18,o),
(508,0,o),
(531,0,cs,{
name = "💚";
})
);
},
{
closed = 1;
nodes = (
(828,326,ls),
(849,326,o),
(866,343,o),
(866,364,cs),
(866,385,o),
(849,402,o),
(828,402,cs),
(532,402,l),
(532,326,l)
);
},
{
closed = 1;
nodes = (
(849,624,ls),
(870,624,o),
(887,641,o),
(887,662,cs),
(887,683,o),
(870,700,o),
(849,700,cs),
(532,700,l),
(532,624,l)
);
}
);
width = 944;
},
{
layerId = "6242D68C-0A25-4F05-8F2A-2075F7C4A210";
width = 600;
},
{
layerId = "3D52442A-254C-4C79-B742-A98FD72DF947";
width = 600;
}
);
unicode = 338;
},
{
glyphname = P;
lastChange = "2021-08-20 20:36:52 +0000";
layers = (
{
anchors = (
{
name = bottom;
pos = (289,0);
},
{
name = top;
pos = (289,700);
}
);
background = {
shapes = (
{
attr = {
strokeWidth = 2;
};
closed = 0;
nodes = (
(122,661,l),
(122,0,l)
);
},
{
attr = {
strokeWidth = 2;
};
closed = 0;
nodes = (
(119,661,l),
(365,661,ls),
(457,661,o),
(528,586,o),
(528,494,cs),
(528,402,o),
(457,327,o),
(365,327,cs),
(119,327,l)
);
}
);
};
layerId = "65988B1E-DCE2-4AC3-A6FF-994A1050067D";
shapes = (
{
closed = 1;
nodes = (
(145,-10,o),
(162,7,o),
(162,31,cs),
(162,700,l),
(121,700,ls,{
name = "💚";
}),
(98,700,o),
(80,682,o),
(80,659,cs),
(80,31,ls),
(80,7,o),
(97,-10,o),
(121,-10,cs)
);
},
{
closed = 1;
nodes = (
(370,285,ls),
(475,285,o),
(559,372,o),
(559,494,cs),
(559,613,o),
(472,700,o),
(353,700,cs),
(117,700,l),
(117,622,l),
(353,622,ls),
(429,622,o),
(478,570,o),
(478,494,cs),
(478,415,o),
(429,363,o),
(353,363,cs),
(117,363,l),
(117,285,l)
);
}
);
width = 589;
},
{
anchors = (
{
name = bottom;
pos = (321,0);
},
{
name = top;
pos = (321,700);
}
);
background = {
shapes = (
{
attr = {
strokeWidth = 2;
};
closed = 0;
nodes = (
(216,618,l),
(397,618,ls),
(471,618,o),
(530,559,o),
(530,485,c),
(530,413,o),
(471,353,o),
(397,353,cs),
(216,353,l)
);
},
{
closed = 1;
nodes = (
(212,-10,o),
(248,26,o),
(248,70,cs),
(248,700,l),
(168,700,ls),
(124,700,o),
(88,664,o),
(88,620,cs),
(88,70,ls),
(88,26,o),
(124,-10,o),
(168,-10,cs)
);
}
);
};
layerId = "6242D68C-0A25-4F05-8F2A-2075F7C4A210";
shapes = (
{
closed = 1;
nodes = (
(201,-10,o),
(236,25,o),
(236,68,cs),
(236,700,l),
(158,700,ls,{
name = "💚";
}),
(115,700,o),
(80,665,o),
(80,622,cs),
(80,68,ls),
(80,25,o),
(115,-10,o),
(158,-10,cs)
);
},
{
closed = 1;
nodes = (
(386,255,ls),
(506,255,o),
(606,343,o),
(606,477,cs),
(606,610,o),
(507,700,o),
(374,700,cs),
(206,700,l),
(206,560,l),
(360,560,ls),
(414,560,o),
(446,528,o),
(446,474,cs),
(446,428,o),
(413,395,o),
(368,395,cs),
(206,395,l),
(206,255,l)
);
}
);
width = 636;
},
{
associatedMasterId = "65988B1E-DCE2-4AC3-A6FF-994A1050067D";
layerId = "FF928B60-4C43-4C0D-9A84-DE6DF17FABA0";
name = "Original Skeleton";
shapes = (
{
attr = {
strokeWidth = 2;
};
closed = 0;
nodes = (
(103,695,l),
(103,0,l)
);
},
{
attr = {
strokeWidth = 2;
};
closed = 0;
nodes = (
(100,695,l),
(370,695,ls),
(471,695,o),
(553,613,o),
(553,512,c),
(553,411,o),
(471,328,o),
(370,328,cs),
(100,328,l)
);
}
);
width = 608;
},
{
anchors = (
{
name = bottom;
pos = (254,0);
},
{
name = top;
pos = (251,700);
}
);
background = {
shapes = (
{
attr = {
strokeWidth = 2;
};
closed = 0;
nodes = (
(96,677,l),
(331,677,ls),
(427,677,o),
(504,599,o),
(504,503,c),
(504,408,o),
(427,329,o),
(331,329,cs),
(96,329,l)
);
}
);
};
layerId = "3D52442A-254C-4C79-B742-A98FD72DF947";
shapes = (
{
closed = 1;
nodes = (
(116,-10,o),
(126,0,o),
(126,13,cs),
(126,700,l),
(103,700,ls),
(90,700,o),
(80,690,o),
(80,677,cs),
(80,13,ls),
(80,0,o),
(90,-10,o),
(103,-10,cs)
);
},
{
closed = 1;
nodes = (
(325,306,ls),
(441,306,o),
(528,396,o),
(528,503,cs),
(528,611,o),
(441,700,o),
(332,700,cs),
(118,700,l),
(118,654,l),
(332,654,ls),
(418,654,o),
(482,590,o),
(482,503,cs),
(482,417,o),
(418,352,o),
(325,352,cs),
(118,352,l),
(118,306,l)
);
}
);
width = 558;
}
);
metricLeft = H;
unicode = 80;
},
{
glyphname = P.ss02;
lastChange = "2021-08-16 00:44:43 +0000";
layers = (
{
layerId = "65988B1E-DCE2-4AC3-A6FF-994A1050067D";
shapes = (
{
closed = 1;
nodes = (
(144,-5,o),
(162,13,o),
(162,36,cs),
(162,700,l),
(121,700,ls),
(98,700,o),
(80,682,o),
(80,659,cs),
(80,36,ls),
(80,13,o),
(98,-5,o),
(121,-5,cs)
);
},
{
closed = 1;
nodes = (
(328,226,ls),
(460,226,o),
(561,332,o),
(561,463,cs),
(561,596,o),
(456,700,o),
(328,700,cs),
(136,700,l),
(136,618,l),
(328,618,ls),
(414,618,o),
(479,548,o),
(479,463,cs),
(479,376,o),
(414,308,o),
(328,308,cs),
(136,308,l),
(136,226,l)
);
}
);
width = 581;
},
{
layerId = "6242D68C-0A25-4F05-8F2A-2075F7C4A210";
shapes = (
{
closed = 1;
nodes = (
(201,-10,o),
(236,25,o),
(236,68,cs),
(236,700,l),
(158,700,ls,{
name = "💚";
}),
(115,700,o),
(80,665,o),
(80,622,cs),
(80,68,ls),
(80,25,o),
(115,-10,o),
(158,-10,cs)
);
},
{
closed = 1;
nodes = (
(351,193,ls),
(494,193,o),
(609,310,o),
(609,442,cs),
(609,584,o),
(493,700,o),
(351,700,cs),
(185,700,l),
(185,560,l),
(331,560,ls),
(406,560,o),
(449,521,o),
(449,454,cs),
(449,379,o),
(406,335,o),
(331,334,cs),
(185,333,l),
(185,193,l)
);
}
);
width = 649;
},
{
layerId = "3D52442A-254C-4C79-B742-A98FD72DF947";
shapes = (
{
closed = 1;
nodes = (
(116,-10,o),
(126,0,o),
(126,13,cs),
(126,700,l),
(103,700,ls),
(90,700,o),
(80,690,o),
(80,677,cs),
(80,13,ls),
(80,0,o),
(90,-10,o),
(103,-10,cs)
);
},
{
closed = 1;
nodes = (
(305,264,ls),
(425,264,o),
(522,364,o),
(522,482,cs),
(522,603,o),
(425,700,o),
(305,700,cs),
(114,700,l),
(114,654,l),
(305,654,ls),
(402,654,o),
(476,580,o),
(476,482,cs),
(476,385,o),
(402,310,o),
(305,310,cs),
(114,310,l),
(114,264,l)
);
}
);
width = 562;
}
);
},
{
glyphname = Thorn;
lastChange = "2021-08-11 18:42:51 +0000";
layers = (
{
layerId = "65988B1E-DCE2-4AC3-A6FF-994A1050067D";
shapes = (
{
closed = 1;
nodes = (
(374,153,ls),
(479,153,o),
(563,240,o),
(563,359,cs),
(563,478,o),
(476,565,o),
(357,565,cs),
(121,565,l),
(121,487,l),
(357,487,ls),
(433,487,o),
(482,435,o),
(482,359,cs),
(482,283,o),
(433,231,o),
(357,231,cs),
(121,231,l),
(121,153,l)
);
},
{
closed = 1;
nodes = (
(162,696,o),
(144,714,o),
(121,714,cs),
(98,714,o),
(80,696,o),
(80,673,cs),
(80,36,ls),
(80,13,o),
(98,-5,o),
(121,-5,cs),
(144,-5,o),
(162,13,o),
(162,36,cs),
(162,673,ls)
);
}
);
width = 600;
},
{
layerId = "6242D68C-0A25-4F05-8F2A-2075F7C4A210";
width = 600;
},
{
layerId = "3D52442A-254C-4C79-B742-A98FD72DF947";
width = 600;
}
);
unicode = 222;
},
{
glyphname = Q;
lastChange = "2021-08-18 18:37:02 +0000";
layers = (
{
layerId = "65988B1E-DCE2-4AC3-A6FF-994A1050067D";
shapes = (
{
closed = 1;
nodes = (
(214,58,o),
(138,179,o),
(138,350,cs),
(138,521,o),
(214,643,o),
(345,643,cs),
(477,643,o),
(553,521,o),
(553,350,cs),
(553,179,o),
(477,58,o),
(345,58,cs)
);
},
{
closed = 1;
nodes = (
(527,-14,o),
(630,130,o),
(630,350,cs),
(630,571,o),
(527,715,o),
(345,715,cs),
(174,715,o),
(56,571,o),
(56,350,cs),
(56,130,o),
(164,-14,o),
(345,-14,cs)
);
},
{
closed = 1;
nodes = (
(603,-50,o),
(645,-41,o),
(645,-6,cs),
(645,15,o),
(628,33,o),
(606,33,cs),
(590,33,o),
(594,26,o),
(580,26,cs),
(556,26,o),
(537,48,o),
(518,80,c),
(467,24,l),
(495,-18,o),
(528,-50,o),
(580,-50,cs)
);
},
{
closed = 1;
nodes = (
(490,110,l),
(468,147,o),
(452,176,o),
(435,196,cs),
(418,217,o),
(400,228,o),
(377,228,cs),
(353,228,o),
(331,215,o),
(331,189,cs),
(331,166,o),
(350,150,o),
(374,150,cs),
(390,150,o),
(399,136,o),
(442,56,c)
);
}
);
width = 682;
},
{
annotations = (
{
pos = (726.709,678.073);
text = "need to fix tail";
type = Text;
}
);
layerId = "6242D68C-0A25-4F05-8F2A-2075F7C4A210";
shapes = (
{
closed = 1;
nodes = (
(281,126,o),
(219,220,o),
(219,351,cs),
(219,482,o),
(281,575,o),
(387,575,cs),
(493,575,o),
(555,482,o),
(555,351,cs),
(555,220,o),
(493,126,o),
(387,126,cs)
);
},
{
closed = 1;
nodes = (
(579,-14,o),
(718,136,o),
(718,351,cs),
(718,566,o),
(584,715,o),
(392,715,cs),
(200,715,o),
(56,566,o),
(56,351,cs),
(56,136,o),
(195,-14,o),
(387,-14,cs)
);
},
{
closed = 1;
nodes = (
(713,-38,o),
(776,-24,o),
(776,47,cs),
(776,88,o),
(756,117,o),
(721,117,cs),
(695,117,o),
(692,101,o),
(652,101,cs),
(623,101,o),
(599,132,o),
(558,202,c),
(477,150,l),
(531,57,o),
(550,-38,o),
(668,-38,cs)
);
},
{
closed = 1;
nodes = (
(618,157,l),
(564,250,o),
(511,339,o),
(410,339,cs),
(370,339,o),
(307,325,o),
(307,255,cs),
(307,213,o),
(332,184,o),
(368,184,cs),
(390,184,o),
(400,195,o),
(427,195,cs),
(469,195,o),
(478,167,o),
(519,97,c)
);
}
);
width = 821;
},
{
associatedMasterId = "65988B1E-DCE2-4AC3-A6FF-994A1050067D";
layerId = "27F38D1B-16BD-4F5D-B92C-4976454E9181";
name = "Original Skeleton";
shapes = (
{
attr = {
strokeWidth = 2;
};
closed = 1;
nodes = (
(579,155,o),
(463,-3,o),
(320,-3,cs),
(177,-3,o),
(61,155,o),
(61,350,cs),
(61,545,o),
(177,703,o),
(320,703,cs),
(463,703,o),
(579,545,o),
(579,350,c)
);
},
{
attr = {
strokeWidth = 2;
};
closed = 0;
nodes = (
(314,126,l),
(314,126,o),
(336,139,o),
(358,139,cs),
(419,139,o),
(445,-47,o),
(550,-47,cs),
(579,-47,o),
(612,-24,o),
(612,-24,c)
);
}
);
width = 686;
},
{
layerId = "3D52442A-254C-4C79-B742-A98FD72DF947";
shapes = (
{
closed = 1;
nodes = (
(195,32,o),
(102,159,o),
(102,350,cs),
(102,541,o),
(195,668,o),
(339,668,cs),
(482,668,o),
(575,541,o),
(575,350,cs),
(575,159,o),
(482,32,o),
(339,32,cs)
);
},
{
closed = 1;
nodes = (
(509,-14,o),
(621,141,o),
(621,350,cs),
(621,559,o),
(509,714,o),
(339,714,cs),
(168,714,o),
(56,559,o),
(56,350,cs),
(56,141,o),
(168,-14,o),
(339,-14,cs)
);
},
{
closed = 1;
nodes = (
(572,-39,o),
(617,-28,o),
(617,-3,cs),
(617,9,o),
(607,20,o),
(594,20,cs),
(585,20,o),
(566,7,o),
(550,7,cs),
(520,7,o),
(498,28,o),
(479,56,c),
(440,29,l),
(466,-9,o),
(498,-39,o),
(550,-39,cs)
);
},
{
closed = 1;
nodes = (
(477,56,l),
(439,111,o),
(412,193,o),
(356,193,cs),
(336,193,o),
(308,188,o),
(308,165,cs),
(308,148,o),
(322,144,o),
(333,144,cs),
(344,144,o),
(346,147,o),
(356,147,cs),
(380,147,o),
(399,84,o),
(435,31,c)
);
}
);
width = 671;
}
);
metricLeft = O;
unicode = 81;
},
{
glyphname = R;
lastChange = "2021-08-20 20:36:37 +0000";
layers = (
{
anchors = (
{
name = bottom;
pos = (306,0);
},
{
name = top;
pos = (295,700);
}
);
background = {
shapes = (
{
attr = {
strokeWidth = 2;
};
closed = 0;
nodes = (
(112,669,l),
(112,0,l)
);
},
{
attr = {
strokeWidth = 2;
};
closed = 0;
nodes = (
(117,370,l),
(358,370,ls),
(461,370,o),
(521,424,o),
(521,517,cs),
(521,602,o),
(453,664,o),
(358,664,cs),
(117,664,l)
);
},
{
attr = {
strokeWidth = 2;
};
closed = 0;
nodes = (
(366,370,l),
(544,4,l)
);
}
);
};
layerId = "65988B1E-DCE2-4AC3-A6FF-994A1050067D";
shapes = (
{
closed = 1;
nodes = (
(144,-10,o),
(162,8,o),
(162,31,cs),
(162,700,l),
(121,700,ls),
(98,700,o),
(80,682,o),
(80,659,cs),
(80,31,ls),
(80,8,o),
(98,-10,o),
(121,-10,cs)
);
},
{
closed = 1;
nodes = (
(364,328,ls),
(474,328,o),
(560,404,o),
(560,513,cs),
(560,623,o),
(473,700,o),
(357,700,cs),
(121,700,l),
(121,622,l),
(363,622,ls),
(432,622,o),
(479,578,o),
(479,513,cs),
(479,450,o),
(436,406,o),
(372,406,cs),
(125,406,l),
(125,328,l)
);
},
{
closed = 1;
nodes = (
(551,-10,o),
(569,9,o),
(569,31,cs),
(569,38,o),
(568,44,o),
(565,49,cs),
(417,354,l),
(331,354,l),
(492,13,ls),
(499,-1,o),
(513,-10,o),
(528,-10,cs)
);
}
);
width = 619;
},
{
anchors = (
{
name = bottom;
pos = (364,0);
},
{
name = top;
pos = (343,700);
}
);
background = {
shapes = (
{
attr = {
strokeWidth = 2;
};
closed = 0;
nodes = (
(186,669,l),
(186,0,l)
);
},
{
attr = {
strokeWidth = 2;
};
closed = 0;
nodes = (
(128,340,l),
(369,340,ls),
(472,340,o),
(532,394,o),
(532,487,cs),
(532,572,o),
(464,634,o),
(369,634,cs),
(128,634,l)
);
},
{
attr = {
strokeWidth = 2;
};
closed = 0;
nodes = (
(393,370,l),
(571,4,l)
);
}
);
};
layerId = "6242D68C-0A25-4F05-8F2A-2075F7C4A210";
shapes = (
{
closed = 1;
nodes = (
(204,-10,o),
(240,26,o),
(240,70,cs),
(240,700,l),
(160,700,ls),
(116,700,o),
(80,664,o),
(80,620,cs),
(80,70,ls),
(80,26,o),
(116,-10,o),
(160,-10,cs)
);
},
{
closed = 1;
nodes = (
(388,255,ls),
(508,255,o),
(608,343,o),
(608,477,cs),
(608,610,o),
(509,700,o),
(376,700,cs),
(208,700,l),
(208,560,l),
(362,560,ls),
(402,560,o),
(448,532,o),
(448,474,cs),
(448,428,o),
(417,395,o),
(370,395,cs),
(208,395,l),
(208,255,l)
);
},
{
closed = 1;
nodes = (
(593,-10,o),
(626,23,o),
(626,65,cs),
(626,77,o),
(623,89,o),
(618,99,cs,{
name = "💚";
}),
(499,343,l),
(366,275,l),
(485,31,ls),
(497,6,o),
(522,-10,o),
(551,-10,cs)
);
}
);
width = 676;
},
{
anchors = (
{
name = bottom;
pos = (306,0);
},
{
name = top;
pos = (286,700);
}
);
associatedMasterId = "65988B1E-DCE2-4AC3-A6FF-994A1050067D";
layerId = "33E71FD4-A49D-4C41-A08E-663ADCB07C2F";
name = "Original Skeleton";
shapes = (
{
attr = {
strokeWidth = 2;
};
closed = 0;
nodes = (
(101,700,l),
(101,0,l)
);
},
{
attr = {
strokeWidth = 2;
};
closed = 0;
nodes = (
(105,372,l),
(405,372,ls),
(494,372,o),
(567,444,o),
(567,533,c),
(567,623,o),
(494,695,o),
(405,695,cs),
(105,695,l)
);
},
{
attr = {
strokeWidth = 2;
};
closed = 0;
nodes = (
(389,372,l),
(571,0,l)
);
}
);
width = 631;
},
{
anchors = (
{
name = bottom;
pos = (292,0);
},
{
name = top;
pos = (258,700);
}
);
background = {
shapes = (
{
attr = {
strokeWidth = 2;
};
closed = 0;
nodes = (
(97,682,l),
(97,0,l)
);
},
{
attr = {
strokeWidth = 2;
};
closed = 0;
nodes = (
(111,352,l),
(325,352,ls),
(439,352,o),
(507,411,o),
(507,509,cs),
(507,610,o),
(431,678,o),
(325,678,cs),
(111,678,l)
);
},
{
attr = {
strokeWidth = 2;
};
closed = 0;
nodes = (
(350,376,l),
(532,1,l)
);
}
);
};
layerId = "3D52442A-254C-4C79-B742-A98FD72DF947";
shapes = (
{
closed = 1;
nodes = (
(116,-10,o),
(126,0,o),
(126,13,cs),
(126,700,l),
(103,700,ls),
(90,700,o),
(80,690,o),
(80,677,cs),
(80,13,ls),
(80,0,o),
(90,-10,o),
(103,-10,cs)
);
},
{
closed = 1;
nodes = (
(325,328,ls),
(451,328,o),
(530,396,o),
(530,508,cs),
(530,622,o),
(443,700,o),
(325,700,cs),
(117,700,l),
(117,654,l),
(325,654,ls),
(422,654,o),
(484,599,o),
(484,508,cs),
(484,420,o),
(430,374,o),
(325,374,cs),
(117,374,l),
(117,328,l)
);
},
{
closed = 1;
nodes = (
(537,-10,o),
(546,0,o),
(546,12,cs),
(546,15,o),
(545,19,o),
(544,22,cs),
(383,358,l),
(336,355,l),
(505,2,ls),
(508,-5,o),
(516,-10,o),
(524,-10,cs)
);
}
);
width = 596;
}
);
metricLeft = H;
unicode = 82;
},
{
glyphname = R.ss02;
lastChange = "2021-08-11 18:42:51 +0000";
layers = (
{
anchors = (
{
name = bottom;
pos = (316,0);
},
{
name = top;
pos = (320,700);
}
);
background = {
shapes = (
{
attr = {
strokeWidth = 2;
};
closed = 0;
nodes = (
(122,669,l),
(122,0,l)
);
},
{
attr = {
strokeWidth = 2;
};
closed = 0;
nodes = (
(127,370,l),
(368,370,ls),
(471,370,o),
(531,424,o),
(531,517,cs),
(531,602,o),
(463,664,o),
(368,664,cs),
(127,664,l)
);
},
{
attr = {
strokeWidth = 2;
};
closed = 0;
nodes = (
(376,370,l),
(554,4,l)
);
}
);
};
layerId = "65988B1E-DCE2-4AC3-A6FF-994A1050067D";
shapes = (
{
closed = 1;
nodes = (
(144,-10,o),
(162,8,o),
(162,31,cs),
(162,700,l),
(121,700,ls),
(98,700,o),
(80,682,o),
(80,659,cs),
(80,31,ls),
(80,8,o),
(98,-10,o),
(121,-10,cs)
);
},
{
closed = 1;
nodes = (
(374,328,ls),
(484,328,o),
(570,404,o),
(570,513,cs),
(570,623,o),
(483,700,o),
(367,700,cs),
(121,700,l),
(121,622,l),
(373,622,ls),
(442,622,o),
(489,578,o),
(489,513,cs),
(489,450,o),
(446,406,o),
(382,406,cs),
(125,406,l),
(125,328,l)
);
},
{
closed = 1;
nodes = (
(561,-10,o),
(579,9,o),
(579,31,cs),
(579,38,o),
(578,44,o),
(575,49,cs),
(427,354,l),
(341,354,l),
(502,13,ls),
(509,-1,o),
(523,-10,o),
(538,-10,cs)
);
}
);
width = 624;
},
{
anchors = (
{
name = bottom;
pos = (354,0);
},
{
name = top;
pos = (333,700);
}
);
background = {
shapes = (
{
attr = {
strokeWidth = 2;
};
closed = 0;
nodes = (
(176,669,l),
(176,0,l)
);
},
{
attr = {
strokeWidth = 2;
};
closed = 0;
nodes = (
(118,340,l),
(359,340,ls),
(462,340,o),
(522,394,o),
(522,487,cs),
(522,572,o),
(454,634,o),
(359,634,cs),
(118,634,l)
);
},
{
attr = {
strokeWidth = 2;
};
closed = 0;
nodes = (
(383,370,l),
(561,4,l)
);
}
);
};
layerId = "6242D68C-0A25-4F05-8F2A-2075F7C4A210";
shapes = (
{
closed = 1;
nodes = (
(204,-10,o),
(240,26,o),
(240,70,cs),
(240,700,l),
(160,700,ls),
(116,700,o),
(80,664,o),
(80,620,cs),
(80,70,ls),
(80,26,o),
(116,-10,o),
(160,-10,cs)
);
},
{
closed = 1;
nodes = (
(378,255,ls),
(498,255,o),
(598,343,o),
(598,477,cs),
(598,610,o),
(499,700,o),
(366,700,cs),
(208,700,l),
(208,550,l),
(362,550,ls),
(402,550,o),
(438,522,o),
(438,474,cs),
(438,438,o),
(417,405,o),
(370,405,cs),
(208,405,l),
(208,255,l)
);
},
{
closed = 1;
nodes = (
(583,-10,o),
(616,23,o),
(616,65,cs),
(616,77,o),
(613,89,o),
(608,99,cs,{
name = "💚";
}),
(489,343,l),
(356,275,l),
(475,31,ls),
(487,6,o),
(512,-10,o),
(541,-10,cs)
);
}
);
width = 661;
},
{
anchors = (
{
name = bottom;
pos = (306,0);
},
{
name = top;
pos = (286,700);
}
);
associatedMasterId = "65988B1E-DCE2-4AC3-A6FF-994A1050067D";
layerId = "33E71FD4-A49D-4C41-A08E-663ADCB07C2F";
name = "Original Skeleton";
shapes = (
{
attr = {
strokeWidth = 2;
};
closed = 0;
nodes = (
(101,700,l),
(101,0,l)
);
},
{
attr = {
strokeWidth = 2;
};
closed = 0;
nodes = (
(105,372,l),
(405,372,ls),
(494,372,o),
(567,444,o),
(567,533,c),
(567,623,o),
(494,695,o),
(405,695,cs),
(105,695,l)
);
},
{
attr = {
strokeWidth = 2;
};
closed = 0;
nodes = (
(389,372,l),
(571,0,l)
);
}
);
width = 631;
},
{
anchors = (
{
name = bottom;
pos = (293,0);
},
{
name = top;
pos = (259,700);
}
);
background = {
shapes = (
{
attr = {
strokeWidth = 2;
};
closed = 0;
nodes = (
(98,682,l),
(98,0,l)
);
},
{
attr = {
strokeWidth = 2;
};
closed = 0;
nodes = (
(112,352,l),
(326,352,ls),
(440,352,o),
(508,411,o),
(508,509,cs),
(508,610,o),
(432,678,o),
(326,678,cs),
(112,678,l)
);
},
{
attr = {
strokeWidth = 2;
};
closed = 0;
nodes = (
(351,376,l),
(533,1,l)
);
}
);
};
layerId = "3D52442A-254C-4C79-B742-A98FD72DF947";
shapes = (
{
closed = 1;
nodes = (
(111,-10,o),
(121,0,o),
(121,13,cs),
(121,700,l),
(98,700,ls),
(85,700,o),
(75,690,o),
(75,677,cs),
(75,13,ls),
(75,0,o),
(85,-10,o),
(98,-10,cs)
);
},
{
closed = 1;
nodes = (
(326,328,ls),
(452,328,o),
(531,396,o),
(531,508,cs),
(531,622,o),
(444,700,o),
(326,700,cs),
(112,700,l),
(112,654,l),
(326,654,ls),
(423,654,o),
(485,599,o),
(485,508,cs),
(485,420,o),
(431,374,o),
(326,374,cs),
(112,374,l),
(112,328,l)
);
},
{
closed = 1;
nodes = (
(538,-10,o),
(547,0,o),
(547,12,cs),
(547,15,o),
(546,19,o),
(545,22,cs),
(384,358,l),
(337,355,l),
(506,2,ls),
(509,-5,o),
(517,-10,o),
(525,-10,cs)
);
}
);
width = 592;
}
);
},
{
glyphname = S;
lastChange = "2021-08-18 19:28:27 +0000";
layers = (
{
anchors = (
{
name = bottom;
pos = (295,0);
},
{
name = top;
pos = (295,700);
}
);
background = {
anchors = (
{
name = bottom;
pos = (307,0);
},
{
name = top;
pos = (295,700);
}
);
shapes = (
{
attr = {
strokeWidth = 2;
};
closed = 0;
nodes = (
(80,204,l),
(78,100,o),
(167,27,o),
(302,27,cs),
(431,27,o),
(506,91,o),
(506,192,cs),
(506,284,o),
(450,328,o),
(285,363,cs),
(168,388,o),
(113,442,o),
(113,523,cs),
(113,610,o),
(189,671,o),
(286,671,cs),
(390,671,o),
(463,618,o),
(480,534,c)
);
},
{
closed = 1;
nodes = (
(454,-15,o),
(548,65,o),
(548,188,cs),
(548,358,o),
(398,380,o),
(283,410,cs),
(211,429,o),
(153,445,o),
(153,524,cs),
(153,569,o),
(187,635,o),
(293,635,cs),
(398,635,o),
(436,582,o),
(445,526,cs),
(448,507,o),
(465,492,o),
(485,492,cs),
(510,492,o),
(529,515,o),
(525,540,cs),
(512,621,o),
(443,710,o),
(293,710,cs),
(135,710,o),
(71,598,o),
(71,527,cs),
(71,398,o),
(161,355,o),
(255,332,cs),
(358,307,o),
(466,297,o),
(466,186,cs),
(466,112,o),
(404,60,o),
(309,60,cs),
(148,60,o),
(124,152,o),
(124,193,cs),
(124,218,o),
(106,236,o),
(83,236,cs),
(60,236,o),
(42,218,o),
(42,193,cs),
(42,131,o),
(89,-15,o),
(309,-15,cs)
);
},
{
closed = 1;
nodes = (
(454,-15,o),
(548,65,o),
(548,188,cs),
(548,358,o),
(398,380,o),
(283,410,cs),
(211,429,o),
(153,445,o),
(153,524,cs),
(153,569,o),
(187,635,o),
(293,635,cs),
(392,635,o),
(435,577,o),
(443,538,cs),
(449,508,o),
(462,492,o),
(485,492,cs),
(507,492,o),
(525,509,o),
(525,530,cs),
(525,537,o),
(525,541,o),
(523,549,cs),
(507,627,o),
(437,710,o),
(293,710,cs),
(135,710,o),
(71,598,o),
(71,527,cs),
(71,398,o),
(161,355,o),
(255,332,cs),
(358,307,o),
(466,297,o),
(466,186,cs),
(466,112,o),
(404,60,o),
(309,60,cs),
(203,60,o),
(145,102,o),
(122,193,cs),
(116,218,o),
(103,236,o),
(79,236,cs),
(54,236,o),
(34,214,o),
(44,167,cs),
(61,85,o),
(132,-15,o),
(302,-15,cs)
);
}
);
};
layerId = "65988B1E-DCE2-4AC3-A6FF-994A1050067D";
shapes = (
{
closed = 1;
nodes = (
(454,-15,o),
(548,65,o),
(548,188,cs),
(548,358,o),
(398,380,o),
(283,410,cs),
(211,429,o),
(153,445,o),
(153,524,cs),
(153,569,o),
(187,635,o),
(293,635,cs),
(392,635,o),
(435,577,o),
(443,538,cs),
(449,508,o),
(462,492,o),
(485,492,cs),
(507,492,o),
(525,509,o),
(525,530,cs),
(525,537,o),
(525,541,o),
(523,549,cs),
(507,627,o),
(437,710,o),
(293,710,cs),
(135,710,o),
(71,598,o),
(71,527,cs),
(71,398,o),
(161,355,o),
(255,332,cs),
(358,307,o),
(466,297,o),
(466,186,cs),
(466,112,o),
(404,60,o),
(309,60,cs),
(148,60,o),
(124,152,o),
(124,193,cs),
(124,218,o),
(106,236,o),
(83,236,cs),
(60,236,o),
(42,218,o),
(42,193,cs),
(42,131,o),
(89,-15,o),
(309,-15,cs)
);
}
);
width = 593;
},
{
anchors = (
{
name = bottom;
pos = (307,0);
},
{
name = top;
pos = (307,700);
}
);
background = {
shapes = (
{
attr = {
strokeWidth = 2;
};
closed = 0;
nodes = (
(117,219,l),
(115,126,o),
(195,60,o),
(316,60,cs),
(432,60,o),
(499,118,o),
(499,208,cs),
(499,291,o),
(449,330,o),
(301,362,cs),
(196,384,o),
(147,432,o),
(147,505,cs),
(147,583,o),
(215,638,o),
(302,638,cs),
(395,638,o),
(460,590,o),
(475,515,c)
);
}
);
};
layerId = "6242D68C-0A25-4F05-8F2A-2075F7C4A210";
shapes = (
{
closed = 1;
nodes = (
(458,-15,o),
(568,57,o),
(568,195,cs),
(568,330,o),
(473,377,o),
(383,412,cs),
(305,442,o),
(231,461,o),
(231,518,cs),
(231,555,o),
(266,573,o),
(310,573,cs),
(353,573,o),
(375,555,o),
(389,534,cs),
(402,514,o),
(425,501,o),
(451,501,cs),
(491,501,o),
(524,534,o),
(524,577,cs),
(524,600,o),
(515,622,o),
(498,641,cs),
(463,683,o),
(395,713,o),
(308,713,cs),
(169,713,o),
(72,638,o),
(72,513,cs),
(72,406,o),
(138,357,o),
(212,324,cs),
(304,283,o),
(408,267,o),
(408,195,cs),
(408,139,o),
(366,125,o),
(310,125,cs),
(252,125,o),
(199,149,o),
(187,182,cs),
(177,209,o),
(150,229,o),
(118,229,cs),
(78,229,o),
(45,196,o),
(45,150,cs),
(45,63,o),
(160,-15,o),
(310,-15,cs)
);
}
);
width = 613;
},
{
anchors = (
{
name = bottom;
pos = (298,0);
},
{
name = top;
pos = (298,700);
}
);
associatedMasterId = "65988B1E-DCE2-4AC3-A6FF-994A1050067D";
layerId = "3F6CB26F-4A18-4307-8FF9-9909AF03C760";
name = "Original Skeleton";
shapes = (
{
attr = {
strokeWidth = 2;
};
closed = 0;
nodes = (
(509,551,l),
(509,551,o),
(493,702,o),
(296,702,cs),
(129,702,o),
(71,604,o),
(71,533,cs),
(71,270,o),
(545,454,o),
(545,174,cs),
(545,100,o),
(497,-8,o),
(314,-8,cs),
(99,-8,o),
(60,128,o),
(61,179,c),
(61,186,l)
);
}
);
width = 596;
},
{
anchors = (
{
name = bottom;
pos = (301,0);
},
{
name = top;
pos = (301,700);
}
);
background = {
shapes = (
{
attr = {
strokeWidth = 2;
};
closed = 0;
nodes = (
(72,196,l),
(70,87,o),
(170,10,o),
(313,10,cs),
(449,10,o),
(534,77,o),
(534,184,cs),
(534,281,o),
(469,324,o),
(295,361,cs),
(146,392,o),
(92,435,o),
(92,527,cs),
(92,627,o),
(173,688,o),
(296,688,cs),
(405,688,o),
(482,633,o),
(500,544,c)
);
}
);
};
layerId = "3D52442A-254C-4C79-B742-A98FD72DF947";
shapes = (
{
closed = 1;
nodes = (
(467,-13,o),
(557,60,o),
(557,178,cs),
(557,344,o),
(410,359,o),
(302,386,cs),
(197,412,o),
(118,437,o),
(118,538,cs),
(118,618,o),
(194,666,o),
(296,666,cs),
(386,666,o),
(450,625,o),
(473,557,cs),
(476,548,o),
(485,541,o),
(495,541,cs),
(510,541,o),
(522,556,o),
(517,571,cs),
(509,593,o),
(499,613,o),
(485,631,cs),
(445,682,o),
(379,711,o),
(296,711,cs),
(167,711,o),
(72,640,o),
(72,542,cs),
(72,413,o),
(165,374,o),
(265,349,cs),
(384,319,o),
(511,310,o),
(511,184,cs),
(511,85,o),
(438,32,o),
(313,32,cs),
(186,32,o),
(99,91,o),
(91,178,cs),
(90,189,o),
(80,198,o),
(68,198,cs),
(54,198,o),
(44,185,o),
(45,173,cs),
(54,62,o),
(169,-13,o),
(313,-13,cs)
);
}
);
width = 602;
}
);
unicode = 83;
},
{
glyphname = Germandbls;
lastChange = "2021-08-11 18:42:51 +0000";
layers = (
{
background = {
shapes = (
{
pos = (35,0);
ref = S;
}
);
};
layerId = "65988B1E-DCE2-4AC3-A6FF-994A1050067D";
shapes = (
{
closed = 1;
nodes = (
(461,624,l),
(445,651,l),
(311,413,ls),
(288,372,o),
(293,342,o),
(340,328,cs),
(432,301,o),
(516,289,o),
(516,188,cs),
(516,107,o),
(462,65,o),
(384,65,cs),
(346,65,o),
(306,78,o),
(288,84,cs),
(257,94,o),
(225,80,o),
(225,47,cs),
(225,32,o),
(234,18,o),
(248,12,cs),
(268,3,o),
(332,-15,o),
(388,-15,cs),
(524,-15,o),
(597,80,o),
(597,196,cs),
(597,322,o),
(496,373,o),
(369,398,c),
(378,366,l),
(525,624,ls),
(548,664,o),
(527,700,o),
(491,700,cs),
(295,700,ls),
(172,700,o),
(80,606,o),
(80,485,cs),
(80,35,ls),
(80,13,o),
(99,-5,o),
(121,-5,cs),
(144,-5,o),
(162,13,o),
(162,35,cs),
(162,464,ls),
(162,547,o),
(199,624,o),
(302,624,cs)
);
}
);
width = 632;
},
{
layerId = "6242D68C-0A25-4F05-8F2A-2075F7C4A210";
width = 600;
},
{
layerId = "3D52442A-254C-4C79-B742-A98FD72DF947";
width = 600;
}
);
metricLeft = "=H";
metricRight = "=S-10";
unicode = 7838;
},
{
glyphname = Schwa;
lastChange = "2021-08-12 13:21:06 +0000";
layers = (
{
background = {
shapes = (
{
alignment = -1;
angle = 180;
pos = (700,-104);
ref = e;
scale = (1.3402,1.3402);
},
{
pos = (-8,0);
ref = O;
}
);
};
layerId = "65988B1E-DCE2-4AC3-A6FF-994A1050067D";
shapes = (
{
attr = {
lineCapEnd = "1";
lineCapStart = "1";
strokeHeight = 80;
strokeWidth = 80;
};
closed = 0;
nodes = (
(574,344,l),
(117,344,ls),
(105,344,o),
(96,336,o),
(96,324,cs),
(96,198,o),
(150,25,o),
(346,25,cs),
(498,25,o),
(577,164,o),
(577,361,cs),
(577,400,o),
(561,675,o),
(335,675,cs),
(226,675,o),
(155,603,o),
(126,530,c)
);
}
);
width = 673;
},
{
layerId = "6242D68C-0A25-4F05-8F2A-2075F7C4A210";
width = 600;
},
{
layerId = "3D52442A-254C-4C79-B742-A98FD72DF947";
width = 600;
}
);
metricLeft = "=O";
metricRight = "=O";
unicode = 399;
},
{
glyphname = T;
lastChange = "2021-08-20 20:21:11 +0000";
layers = (
{
anchors = (
{
name = bottom;
pos = (269,0);
},
{
name = center;
pos = (268,350);
},
{
name = top;
pos = (268,700);
}
);
background = {
shapes = (
{
attr = {
strokeWidth = 2;
};
closed = 0;
nodes = (
(271,662,l),
(270,-10,l)
);
},
{
attr = {
strokeWidth = 2;
};
closed = 0;
nodes = (
(17,666,l),
(517,666,l)
);
}
);
};
layerId = "65988B1E-DCE2-4AC3-A6FF-994A1050067D";
shapes = (
{
closed = 1;
nodes = (
(293,-10,o),
(311,8,o),
(311,31,cs),
(311,624,l),
(479,624,ls),
(500,624,o),
(517,641,o),
(517,662,cs),
(517,683,o),
(500,700,o),
(479,700,cs),
(56,700,ls),
(35,700,o),
(18,683,o),
(18,662,cs),
(18,641,o),
(35,624,o),
(56,624,cs),
(229,624,l),
(229,31,ls),
(229,8,o),
(247,-10,o),
(270,-10,cs)
);
}
);
width = 535;
},
{
anchors = (
{
name = bottom;
pos = (296,0);
},
{
name = center;
pos = (296,350);
},
{
name = top;
pos = (296,700);
}
);
background = {
shapes = (
{
attr = {
strokeWidth = 2;
};
closed = 0;
nodes = (
(296,673,l),
(295,1,l)
);
},
{
attr = {
strokeWidth = 2;
};
closed = 0;
nodes = (
(42,677,l),
(542,677,l)
);
}
);
};
layerId = "6242D68C-0A25-4F05-8F2A-2075F7C4A210";
shapes = (
{
closed = 1;
nodes = (
(337,-10,o),
(372,25,o),
(372,68,cs),
(372,550,l),
(501,550,ls),
(542,550,o),
(576,584,o),
(576,625,cs),
(576,666,o),
(542,700,o),
(501,700,cs),
(90,700,ls),
(49,700,o),
(15,666,o),
(15,625,cs),
(15,584,o),
(49,550,o),
(90,550,cs),
(216,550,l),
(216,68,ls),
(216,25,o),
(251,-10,o),
(294,-10,cs)
);
}
);
width = 591;
},
{
anchors = (
{
name = bottom;
pos = (287,5);
},
{
name = center;
pos = (281,350);
},
{
name = top;
pos = (281,700);
}
);
associatedMasterId = "65988B1E-DCE2-4AC3-A6FF-994A1050067D";
layerId = "6E86210C-A69E-4F36-A5A0-9655F057588C";
name = "Original Skeleton";
shapes = (
{
attr = {
strokeWidth = 2;
};
closed = 0;
nodes = (
(317,700,l),
(317,0,l)
);
},
{
attr = {
strokeWidth = 2;
};
closed = 0;
nodes = (
(60,696,l),
(566,696,l)
);
}
);
width = 561;
},
{
anchors = (
{
name = bottom;
pos = (255,0);
},
{
name = center;
pos = (255,350);
},
{
name = top;
pos = (255,700);
}
);
background = {
shapes = (
{
attr = {
strokeWidth = 2;
};
closed = 0;
nodes = (
(255,673,l),
(254,1,l)
);
},
{
attr = {
strokeWidth = 2;
};
closed = 0;
nodes = (
(1,677,l),
(501,677,l)
);
}
);
};
layerId = "3D52442A-254C-4C79-B742-A98FD72DF947";
shapes = (
{
closed = 1;
nodes = (
(266,-10,o),
(276,0,o),
(276,13,cs),
(276,655,l),
(472,655,ls),
(485,655,o),
(495,665,o),
(495,677,cs),
(495,690,o),
(485,700,o),
(472,700,cs),
(38,700,ls),
(25,700,o),
(15,690,o),
(15,677,cs),
(15,665,o),
(25,655,o),
(38,655,cs),
(230,655,l),
(230,13,ls),
(230,0,o),
(240,-10,o),
(253,-10,cs)
);
}
);
width = 510;
}
);
unicode = 84;
},
{
glyphname = Tbar;
lastChange = "2021-08-10 00:07:04 +0000";
layers = (
{
layerId = "65988B1E-DCE2-4AC3-A6FF-994A1050067D";
shapes = (
{
pos = (-20,0);
ref = T;
},
{
attr = {
lineCapEnd = "2";
lineCapStart = "2";
strokeHeight = 78;
strokeWidth = 78;
};
closed = 0;
nodes = (
(113,370,l),
(448,370,l)
);
}
);
width = 561;
},
{
layerId = "6242D68C-0A25-4F05-8F2A-2075F7C4A210";
width = 600;
},
{
layerId = "3D52442A-254C-4C79-B742-A98FD72DF947";
width = 600;
}
);
unicode = 358;
},
{
glyphname = U;
lastChange = "2021-08-20 20:52:57 +0000";
layers = (
{
anchors = (
{
name = bottom;
pos = (325,0);
},
{
name = ogonek;
pos = (411,0);
},
{
name = top;
pos = (325,700);
},
{
name = topright;
pos = (630,700);
}
);
background = {
shapes = (
{
closed = 1;
nodes = (
(227,63,o),
(157,136,o),
(157,236,cs),
(157,664,ls),
(157,687,o),
(139,705,o),
(116,705,cs),
(93,705,o),
(75,687,o),
(75,664,cs),
(75,236,ls),
(75,93,o),
(182,-14,o),
(325,-14,cs),
(468,-14,o),
(575,93,o),
(575,236,cs),
(575,664,ls),
(575,687,o),
(557,705,o),
(534,705,cs),
(511,705,o),
(493,687,o),
(493,664,cs),
(493,236,ls),
(493,136,o),
(423,63,o),
(325,63,cs)
);
},
{
attr = {
strokeWidth = 2;
};
closed = 0;
nodes = (
(114,669,l),
(114,237,ls),
(114,120,o),
(208,25,o),
(325,25,cs),
(441,25,o),
(536,120,o),
(536,237,cs),
(536,669,l)
);
}
);
};
layerId = "65988B1E-DCE2-4AC3-A6FF-994A1050067D";
shapes = (
{
closed = 1;
nodes = (
(471,-14,o),
(575,93,o),
(575,236,cs),
(575,669,ls),
(575,693,o),
(558,710,o),
(534,710,cs),
(510,710,o),
(493,693,o),
(493,669,cs),
(493,236,ls),
(493,137,o),
(423,63,o),
(325,63,cs),
(227,63,o),
(157,137,o),
(157,236,cs),
(157,669,ls),
(157,693,o),
(140,710,o),
(116,710,cs),
(92,710,o),
(75,693,o),
(75,669,cs),
(75,236,ls),
(75,93,o),
(179,-14,o),
(325,-14,cs)
);
}
);
width = 650;
},
{
anchors = (
{
name = bottom;
pos = (355,0);
},
{
name = ogonek;
pos = (423,0);
},
{
name = top;
pos = (355,700);
},
{
name = topright;
pos = (635,700);
}
);
layerId = "6242D68C-0A25-4F05-8F2A-2075F7C4A210";
shapes = (
{
closed = 1;
nodes = (
(516,-15,o),
(641,111,o),
(641,269,cs),
(641,632,ls),
(641,677,o),
(608,710,o),
(563,710,cs),
(518,710,o),
(485,677,o),
(485,632,cs),
(485,263,ls),
(485,189,o),
(432,135,o),
(358,135,cs),
(284,135,o),
(231,189,o),
(231,263,cs),
(231,632,ls),
(231,677,o),
(198,710,o),
(153,710,cs),
(108,710,o),
(75,677,o),
(75,632,cs),
(75,269,ls),
(75,111,o),
(200,-15,o),
(358,-15,cs)
);
}
);
width = 648;
},
{
anchors = (
{
name = bottom;
pos = (325,0);
},
{
name = ogonek;
pos = (421,48);
},
{
name = top;
pos = (325,700);
},
{
name = topright;
pos = (630,700);
}
);
associatedMasterId = "65988B1E-DCE2-4AC3-A6FF-994A1050067D";
background = {
shapes = (
{
closed = 1;
nodes = (
(227,63,o),
(157,136,o),
(157,236,cs),
(157,664,ls),
(157,687,o),
(139,705,o),
(116,705,cs),
(93,705,o),
(75,687,o),
(75,664,cs),
(75,236,ls),
(75,93,o),
(182,-14,o),
(325,-14,cs),
(468,-14,o),
(575,93,o),
(575,236,cs),
(575,664,ls),
(575,687,o),
(557,705,o),
(534,705,cs),
(511,705,o),
(493,687,o),
(493,664,cs),
(493,236,ls),
(493,136,o),
(423,63,o),
(325,63,cs)
);
}
);
};
layerId = "8A38E9A9-A31C-446A-AE0A-0F3779135D39";
name = "Original Skeleton";
shapes = (
{
attr = {
strokeWidth = 2;
};
closed = 0;
nodes = (
(101,700,l),
(101,225,ls),
(101,96,o),
(205,-8,o),
(333,-8,cs),
(461,-8,o),
(565,96,o),
(565,225,cs),
(565,700,l)
);
}
);
width = 650;
},
{
anchors = (
{
name = bottom;
pos = (322,0);
},
{
name = ogonek;
pos = (391,0);
},
{
name = top;
pos = (322,700);
},
{
name = topright;
pos = (602,700);
}
);
layerId = "3D52442A-254C-4C79-B742-A98FD72DF947";
shapes = (
{
closed = 1;
nodes = (
(462,-16,o),
(575,89,o),
(575,233,cs),
(575,687,ls),
(575,700,o),
(565,710,o),
(552,710,cs),
(539,710,o),
(529,700,o),
(529,687,cs),
(529,233,ls),
(529,118,o),
(441,29,o),
(325,29,cs),
(209,29,o),
(121,118,o),
(121,233,cs),
(121,687,ls),
(121,700,o),
(111,710,o),
(98,710,cs),
(85,710,o),
(75,700,o),
(75,687,cs),
(75,233,ls),
(75,89,o),
(187,-16,o),
(325,-16,cs)
);
}
);
width = 650;
}
);
unicode = 85;
},
{
glyphname = Uhorn;
lastChange = "2021-08-11 18:42:51 +0000";
layers = (
{
anchors = (
{
name = bottom;
pos = (330,0);
},
{
name = top;
pos = (330,700);
}
);
background = {
shapes = (
{
closed = 1;
nodes = (
(586,653,l),
(651,653,o),
(718,731,o),
(718,801,cs),
(718,823,o),
(704,839,o),
(684,839,cs),
(660,839,o),
(646,825,o),
(646,801,c),
(646,748,o),
(598,703,o),
(538,703,cs),
(499,703,l),
(498,653,l)
);
}
);
};
layerId = "65988B1E-DCE2-4AC3-A6FF-994A1050067D";
shapes = (
{
closed = 1;
nodes = (
(471,-14,o),
(575,93,o),
(575,236,cs),
(575,662,ls),
(575,685,o),
(557,703,o),
(534,703,cs),
(511,703,o),
(493,685,o),
(493,662,cs),
(493,236,ls),
(493,137,o),
(423,63,o),
(325,63,cs),
(227,63,o),
(157,137,o),
(157,236,cs),
(157,664,ls),
(157,687,o),
(139,705,o),
(116,705,cs),
(93,705,o),
(75,687,o),
(75,664,cs),
(75,236,ls),
(75,93,o),
(179,-14,o),
(325,-14,cs)
);
},
{
closed = 1;
nodes = (
(575,653,ls),
(651,653,o),
(718,731,o),
(718,801,cs),
(718,823,o),
(704,839,o),
(684,839,cs),
(660,839,o),
(646,825,o),
(646,801,cs,{
name = "💚";
}),
(646,748,o),
(598,703,o),
(538,703,cs),
(536,703,l),
(536,653,l)
);
}
);
width = 600;
},
{
layerId = "6242D68C-0A25-4F05-8F2A-2075F7C4A210";
width = 600;
},
{
layerId = "3D52442A-254C-4C79-B742-A98FD72DF947";
width = 600;
}
);
unicode = 431;
},
{
glyphname = Uogonek;
lastChange = "2021-08-11 18:42:51 +0000";
layers = (
{
layerId = "65988B1E-DCE2-4AC3-A6FF-994A1050067D";
shapes = (
{
ref = U;
},
{
closed = 1;
nodes = (
(449,-113,o),
(441,-121,o),
(425,-121,cs),
(405,-121,o),
(401,-109,o),
(401,-99,cs),
(401,-60,o),
(463,16,o),
(512,65,cs),
(513,66,l),
(469,96,l),
(425,53,ls),
(420,48,o),
(331,-31,o),
(331,-109,cs),
(331,-160,o),
(376,-183,o),
(423,-185,cs),
(449,-186,o),
(485,-181,o),
(515,-146,cs),
(521,-139,o),
(525,-131,o),
(525,-121,cs),
(525,-101,o),
(511,-87,o),
(491,-87,cs),
(480,-87,o),
(471,-91,o),
(464,-98,cs)
);
}
);
width = 650;
},
{
layerId = "6242D68C-0A25-4F05-8F2A-2075F7C4A210";
width = 600;
},
{
layerId = "3D52442A-254C-4C79-B742-A98FD72DF947";
width = 600;
}
);
unicode = 370;
},
{
glyphname = V;
lastChange = "2021-08-18 18:37:02 +0000";
layers = (
{
background = {
shapes = (
{
attr = {
strokeWidth = 2;
};
closed = 0;
nodes = (
(62,669,l),
(287,15,l),
(515,669,l)
);
}
);
};
layerId = "65988B1E-DCE2-4AC3-A6FF-994A1050067D";
shapes = (
{
closed = 1;
nodes = (
(306,-15,o),
(325,0,o),
(336,31,cs),
(552,663,ls),
(553,667,o),
(554,671,o),
(554,676,cs),
(554,698,o),
(535,715,o),
(513,715,cs),
(496,715,o),
(481,704,o),
(476,689,cs),
(272,85,l),
(302,85,l),
(98,689,ls),
(93,704,o),
(78,715,o),
(61,715,cs),
(39,715,o),
(20,698,o),
(20,676,cs),
(20,671,o),
(21,667,o),
(22,663,cs),
(238,31,ls),
(249,0,o),
(268,-15,o),
(287,-15,cs)
);
}
);
width = 574;
},
{
background = {
shapes = (
{
attr = {
lineCapEnd = "1";
lineCapStart = "1";
strokeWidth = 155;
};
closed = 0;
nodes = (
(77,709,l),
(312,26,l),
(550,709,l)
);
}
);
};
layerId = "6242D68C-0A25-4F05-8F2A-2075F7C4A210";
shapes = (
{
closed = 1;
nodes = (
(355,-10,o),
(378,28,o),
(393,68,cs),
(601,607,ls),
(604,615,o),
(606,626,o),
(606,635,cs),
(606,677,o),
(572,710,o),
(527,710,cs),
(494,710,o),
(466,688,o),
(456,658,cs),
(286,172,l),
(339,172,l),
(170,658,ls),
(160,688,o),
(132,710,o),
(99,710,cs),
(54,710,o),
(20,677,o),
(20,635,cs),
(20,626,o),
(22,615,o),
(25,607,cs),
(232,68,ls),
(247,28,o),
(269,-10,o),
(312,-10,cs)
);
}
);
width = 626;
},
{
associatedMasterId = "65988B1E-DCE2-4AC3-A6FF-994A1050067D";
layerId = "0A9E1E22-35A9-43A2-A132-2A1C7405E87E";
name = "Original Skeleton";
shapes = (
{
attr = {
strokeWidth = 2;
};
closed = 0;
nodes = (
(41,700,l),
(292,0,l),
(559,700,l)
);
}
);
width = 594;
},
{
background = {
shapes = (
{
attr = {
strokeWidth = 2;
};
closed = 0;
nodes = (
(52,669,l),
(277,15,l),
(505,669,l)
);
}
);
};
layerId = "3D52442A-254C-4C79-B742-A98FD72DF947";
shapes = (
{
closed = 1;
nodes = (
(283,-10,o),
(292,-3,o),
(295,5,cs),
(525,679,ls),
(527,685,o),
(527,691,o),
(524,697,cs),
(521,704,o),
(513,710,o),
(503,710,cs),
(493,710,o),
(484,704,o),
(481,695,cs),
(268,60,l),
(278,60,l),
(65,695,ls),
(62,704,o),
(53,710,o),
(43,710,cs),
(32,710,o),
(24,704,o),
(21,696,cs),
(19,691,o),
(19,685,o),
(21,679,cs),
(251,5,ls),
(254,-3,o),
(263,-10,o),
(273,-10,cs)
);
}
);
width = 546;
}
);
metricLeft = A;
metricRight = A;
unicode = 86;
},
{
glyphname = W;
lastChange = "2021-08-20 20:18:54 +0000";
layers = (
{
anchors = (
{
name = bottom;
pos = (411,0);
},
{
name = top;
pos = (411,700);
}
);
background = {
shapes = (
{
attr = {
strokeWidth = 2;
};
closed = 0;
nodes = (
(54,670,l),
(244,32,l),
(408,670,l)
);
},
{
attr = {
strokeWidth = 2;
};
closed = 0;
nodes = (
(408,669,l),
(591,32,l),
(755,669,l)
);
}
);
};
layerId = "65988B1E-DCE2-4AC3-A6FF-994A1050067D";
shapes = (
{
closed = 1;
nodes = (
(236,-15,o),
(257,0,o),
(266,31,cs),
(419,573,l),
(399,573,l),
(555,31,ls),
(564,0,o),
(585,-15,o),
(604,-15,cs),
(623,-15,o),
(646,0,o),
(653,31,cs),
(799,663,ls),
(800,667,o),
(801,671,o),
(801,676,cs),
(801,698,o),
(782,715,o),
(760,715,cs),
(743,715,o),
(726,704,o),
(723,689,cs),
(590,99,l),
(615,100,l),
(451,679,ls),
(445,700,o),
(428,715,o),
(409,715,cs),
(391,715,o),
(374,700,o),
(368,679,cs),
(207,100,l),
(231,99,l),
(98,689,ls),
(95,704,o),
(78,715,o),
(61,715,cs),
(39,715,o),
(20,698,o),
(20,676,cs),
(20,671,o),
(21,667,o),
(22,663,cs),
(168,31,ls),
(175,0,o),
(198,-15,o),
(217,-15,cs)
);
}
);
width = 821;
},
{
anchors = (
{
name = bottom;
pos = (418,-2);
},
{
name = top;
pos = (410,700);
}
);
background = {
shapes = (
{
attr = {
strokeWidth = 2;
};
closed = 0;
nodes = (
(89,642,l),
(262,60,l),
(411,641,l)
);
},
{
attr = {
strokeWidth = 2;
};
closed = 0;
nodes = (
(411,640,l),
(578,60,l),
(728,640,l)
);
},
{
closed = 1;
nodes = (
(257,334,l),
(161,656,ls),
(152,687,o),
(123,710,o),
(89,710,cs),
(48,710,o),
(14,676,o),
(14,635,cs),
(14,628,o),
(15,620,o),
(17,614,cs),
(267,-228,l),
(484,615,ls),
(485,621,o),
(486,628,o),
(486,634,cs),
(486,675,o),
(452,709,o),
(411,709,cs),
(376,709,o),
(347,685,o),
(338,653,cs)
);
},
{
closed = 1;
nodes = (
(574,338,l),
(483,654,ls),
(474,685,o),
(445,708,o),
(411,708,cs),
(370,708,o),
(336,674,o),
(336,633,cs),
(336,626,o),
(337,619,o),
(339,612,cs),
(582,-232,l),
(801,614,ls),
(802,620,o),
(803,627,o),
(803,633,cs),
(803,674,o),
(769,708,o),
(728,708,cs),
(693,708,o),
(664,684,o),
(655,652,cs)
);
}
);
};
layerId = "6242D68C-0A25-4F05-8F2A-2075F7C4A210";
shapes = (
{
closed = 1;
nodes = (
(283,-10,o),
(309,28,o),
(321,68,cs),
(422,393,l),
(393,393,l),
(500,68,ls),
(513,28,o),
(538,-10,o),
(581,-10,cs),
(624,-10,o),
(651,28,o),
(661,68,cs),
(799,607,ls),
(801,615,o),
(804,626,o),
(804,635,cs),
(804,677,o),
(770,710,o),
(725,710,cs),
(692,710,o),
(661,688,o),
(654,658,cs),
(550,219,l),
(581,218,l),
(478,656,ls),
(471,687,o),
(440,710,o),
(410,710,cs),
(379,710,o),
(349,687,o),
(341,656,cs),
(226,218,l),
(263,219,l),
(165,658,ls),
(158,688,o),
(127,710,o),
(94,710,cs),
(49,710,o),
(15,677,o),
(15,635,cs),
(15,626,o),
(18,615,o),
(20,607,cs),
(160,68,ls),
(170,28,o),
(197,-10,o),
(240,-10,cs)
);
}
);
width = 819;
},
{
anchors = (
{
name = bottom;
pos = (426,0);
},
{
name = top;
pos = (426,700);
}
);
associatedMasterId = "65988B1E-DCE2-4AC3-A6FF-994A1050067D";
layerId = "4846143E-31A2-49AC-9448-F95E03AC30F8";
name = "Original Skeleton";
shapes = (
{
attr = {
strokeWidth = 2;
};
closed = 0;
nodes = (
(31,702,l),
(240,0,l),
(420,701,l)
);
},
{
attr = {
strokeWidth = 2;
};
closed = 0;
nodes = (
(420,700,l),
(621,0,l),
(802,700,l)
);
}
);
width = 851;
},
{
anchors = (
{
name = bottom;
pos = (430,0);
},
{
name = top;
pos = (424,700);
}
);
background = {
shapes = (
{
attr = {
strokeWidth = 2;
};
closed = 0;
nodes = (
(35,702,l),
(244,0,l),
(424,701,l)
);
},
{
attr = {
strokeWidth = 2;
};
closed = 0;
nodes = (
(424,700,l),
(625,0,l),
(806,700,l)
);
},
{
closed = 1;
nodes = (
(242,86,l),
(63,688,ls),
(60,698,o),
(52,705,o),
(41,705,cs),
(26,705,o),
(15,691,o),
(19,676,cs),
(246,-86,l),
(441,676,ls),
(445,690,o),
(434,704,o),
(419,704,cs),
(408,704,o),
(399,696,o),
(396,686,cs)
);
},
{
closed = 1;
nodes = (
(624,87,l),
(452,686,ls),
(449,696,o),
(440,703,o),
(430,703,cs),
(415,703,o),
(404,689,o),
(407,674,c),
(626,-87,l),
(823,675,ls),
(827,689,o),
(816,703,o),
(801,703,cs),
(790,703,o),
(781,695,o),
(778,685,cs)
);
}
);
};
layerId = "3D52442A-254C-4C79-B742-A98FD72DF947";
shapes = (
{
closed = 1;
nodes = (
(253,-10,o),
(263,-3,o),
(265,5,cs),
(428,617,l),
(418,617,l),
(581,5,ls),
(583,-3,o),
(593,-10,o),
(603,-10,cs),
(613,-10,o),
(623,-3,o),
(625,5,cs),
(825,679,ls),
(827,685,o),
(827,691,o),
(825,696,cs),
(822,704,o),
(814,710,o),
(803,710,cs),
(793,710,o),
(784,704,o),
(781,695,cs),
(597,59,l),
(608,58,l),
(445,695,ls),
(443,704,o),
(434,710,o),
(423,710,cs),
(412,710,o),
(403,704,o),
(401,695,cs),
(238,58,l),
(249,59,l),
(65,695,ls),
(62,704,o),
(53,710,o),
(43,710,cs),
(32,710,o),
(24,704,o),
(21,696,cs),
(19,691,o),
(19,685,o),
(21,679,cs),
(221,5,ls),
(223,-3,o),
(233,-10,o),
(243,-10,cs)
);
}
);
width = 846;
}
);
metricLeft = A;
metricRight = A;
unicode = 87;
},
{
glyphname = W.ss02;
lastChange = "2021-08-11 18:42:52 +0000";
layers = (
{
layerId = "65988B1E-DCE2-4AC3-A6FF-994A1050067D";
shapes = (
{
closed = 1;
nodes = (
(266,-15,o),
(283,-5,o),
(289,15,cs),
(460,578,l),
(432,578,l),
(603,15,ls),
(609,-5,o),
(626,-15,o),
(642,-15,cs),
(658,-15,o),
(673,-5,o),
(678,15,cs),
(852,659,ls),
(853,662,o),
(853,665,o),
(853,668,cs),
(853,690,o),
(836,708,o),
(814,708,cs),
(794,708,o),
(778,696,o),
(774,679,cs),
(628,128,l),
(649,129,l),
(485,674,ls),
(478,697,o),
(467,709,o),
(446,709,cs),
(425,709,o),
(414,697,o),
(407,674,cs),
(243,129,l),
(264,128,l),
(109,679,ls),
(104,696,o),
(89,708,o),
(69,708,cs),
(47,708,o),
(30,690,o),
(30,668,cs),
(30,665,o),
(30,662,o),
(31,659,cs),
(214,15,ls),
(220,-5,o),
(234,-15,o),
(250,-15,cs)
);
}
);
width = 883;
},
{
layerId = "6242D68C-0A25-4F05-8F2A-2075F7C4A210";
shapes = (
{
closed = 1;
nodes = (
(325,-10,o),
(353,28,o),
(363,68,cs),
(447,393,l),
(413,393,l),
(496,68,ls),
(506,28,o),
(534,-10,o),
(577,-10,cs),
(620,-10,o),
(645,28,o),
(657,68,cs),
(824,607,ls),
(827,615,o),
(829,626,o),
(829,635,cs),
(829,677,o),
(795,710,o),
(750,710,cs),
(717,710,o),
(687,688,o),
(679,658,cs),
(563,219,l),
(594,218,l),
(503,656,ls),
(497,687,o),
(465,710,o),
(430,710,cs),
(394,710,o),
(362,687,o),
(356,656,cs),
(265,218,l),
(296,219,l),
(180,658,ls),
(172,688,o),
(142,710,o),
(109,710,cs),
(64,710,o),
(30,677,o),
(30,635,cs),
(30,626,o),
(32,615,o),
(35,607,cs),
(202,68,ls),
(214,28,o),
(239,-10,o),
(282,-10,cs)
);
}
);
width = 859;
},
{
layerId = "3D52442A-254C-4C79-B742-A98FD72DF947";
shapes = (
{
closed = 1;
nodes = (
(263,-10,o),
(273,-3,o),
(275,5,cs),
(438,617,l),
(428,617,l),
(591,5,ls),
(593,-3,o),
(603,-10,o),
(613,-10,cs),
(623,-10,o),
(633,-3,o),
(635,5,cs),
(835,679,ls),
(837,685,o),
(837,691,o),
(835,696,cs),
(832,704,o),
(824,710,o),
(813,710,cs),
(803,710,o),
(794,704,o),
(791,695,cs),
(607,59,l),
(618,58,l),
(455,695,ls),
(453,704,o),
(444,710,o),
(433,710,cs),
(422,710,o),
(413,704,o),
(411,695,cs),
(248,58,l),
(259,59,l),
(75,695,ls),
(72,704,o),
(63,710,o),
(53,710,cs),
(42,710,o),
(34,704,o),
(31,696,cs),
(29,691,o),
(29,685,o),
(31,679,cs),
(231,5,ls),
(233,-3,o),
(243,-10,o),
(253,-10,cs)
);
}
);
width = 867;
}
);
},
{
glyphname = X;
lastChange = "2021-08-18 18:37:02 +0000";
layers = (
{
anchors = (
{
name = bottom;
pos = (304,0);
},
{
name = top;
pos = (304,700);
}
);
background = {
shapes = (
{
attr = {
strokeWidth = 2;
};
closed = 0;
nodes = (
(56,700,l),
(549,0,l)
);
},
{
attr = {
strokeWidth = 2;
};
closed = 0;
nodes = (
(548,702,l),
(316,369,l)
);
},
{
attr = {
strokeWidth = 2;
};
closed = 0;
nodes = (
(304,369,l),
(48,0,l)
);
}
);
};
layerId = "65988B1E-DCE2-4AC3-A6FF-994A1050067D";
shapes = (
{
closed = 1;
nodes = (
(553,-5,o),
(570,12,o),
(570,34,cs),
(570,42,o),
(567,50,o),
(563,56,cs),
(115,688,ls),
(108,698,o),
(96,705,o),
(83,705,cs),
(61,705,o),
(44,688,o),
(44,666,cs),
(44,658,o),
(47,650,o),
(51,644,cs),
(499,12,ls),
(506,2,o),
(518,-5,o),
(531,-5,cs)
);
},
{
closed = 1;
nodes = (
(555,645,ls),
(559,651,o),
(562,659,o),
(562,667,cs),
(562,689,o),
(545,706,o),
(523,706,cs),
(510,706,o),
(498,699,o),
(491,689,cs),
(281,389,l),
(329,322,l)
);
},
{
closed = 1;
nodes = (
(82,-5,o),
(94,2,o),
(101,12,cs),
(319,322,l),
(271,389,l),
(37,56,ls),
(33,50,o),
(30,42,o),
(30,34,cs),
(30,12,o),
(47,-5,o),
(69,-5,cs)
);
}
);
width = 600;
},
{
anchors = (
{
name = bottom;
pos = (335,0);
},
{
name = top;
pos = (335,700);
}
);
background = {
shapes = (
{
attr = {
strokeWidth = 2;
};
closed = 0;
nodes = (
(126,640,l),
(534,60,l)
);
},
{
attr = {
strokeWidth = 2;
};
closed = 0;
nodes = (
(533,642,l),
(341,366,l)
);
},
{
attr = {
strokeWidth = 2;
};
closed = 0;
nodes = (
(331,366,l),
(119,60,l)
);
}
);
};
layerId = "6242D68C-0A25-4F05-8F2A-2075F7C4A210";
shapes = (
{
closed = 1;
nodes = (
(575,-10,o),
(610,25,o),
(610,68,cs),
(610,85,o),
(604,102,o),
(595,115,cs),
(204,678,ls),
(190,698,o),
(166,711,o),
(140,711,cs),
(97,711,o),
(62,676,o),
(62,633,cs),
(62,616,o),
(67,601,o),
(76,588,cs),
(469,21,ls),
(482,2,o),
(506,-10,o),
(532,-10,cs)
);
},
{
closed = 1;
nodes = (
(605,585,ls),
(615,598,o),
(620,615,o),
(620,632,cs),
(620,675,o),
(585,710,o),
(542,710,cs),
(516,710,o),
(493,698,o),
(479,679,cs),
(252,372,l),
(362,263,l)
);
},
{
closed = 1;
nodes = (
(144,-10,o),
(168,2,o),
(182,23,cs),
(365,286,l),
(252,392,l),
(54,113,ls),
(45,100,o),
(40,85,o),
(40,68,cs),
(40,25,o),
(75,-10,o),
(118,-10,cs)
);
}
);
width = 660;
},
{
associatedMasterId = "65988B1E-DCE2-4AC3-A6FF-994A1050067D";
layerId = "A3D96D5B-CEC4-41D1-AFD9-7B73061EC540";
name = "Original Skeleton";
shapes = (
{
attr = {
strokeWidth = 2;
};
closed = 0;
nodes = (
(49,700,l),
(542,0,l)
);
},
{
attr = {
strokeWidth = 2;
};
closed = 0;
nodes = (
(529,702,l),
(41,0,l)
);
}
);
width = 593;
},
{
anchors = (
{
name = bottom;
pos = (310,0);
},
{
name = top;
pos = (310,700);
}
);
layerId = "3D52442A-254C-4C79-B742-A98FD72DF947";
shapes = (
{
closed = 1;
nodes = (
(553,-6,o),
(563,4,o),
(563,17,cs),
(563,22,o),
(561,27,o),
(559,30,cs),
(90,697,ls,{
name = "💚";
}),
(86,703,o),
(79,706,o),
(71,706,cs),
(58,706,o),
(48,696,o),
(48,683,cs),
(48,678,o),
(50,673,o),
(52,670,cs),
(521,3,ls,{
name = "💚";
}),
(525,-3,o),
(532,-6,o),
(540,-6,cs)
);
},
{
closed = 1;
nodes = (
(558,672,ls,{
name = "💚";
}),
(560,675,o),
(562,680,o),
(562,685,cs),
(562,698,o),
(552,708,o),
(539,708,cs),
(531,708,o),
(524,704,o),
(520,698,cs),
(291,368,l),
(329,342,l)
);
},
{
closed = 1;
nodes = (
(71,-6,o),
(78,-2,o),
(82,4,cs),
(314,339,l),
(281,372,l),
(44,30,ls,{
name = "💚";
}),
(42,27,o),
(40,22,o),
(40,17,cs),
(40,4,o),
(50,-6,o),
(63,-6,cs)
);
}
);
width = 603;
}
);
unicode = 88;
},
{
glyphname = Y;
lastChange = "2021-08-18 18:37:02 +0000";
layers = (
{
anchors = (
{
name = bottom;
pos = (276,0);
},
{
name = top;
pos = (283,700);
},
{
name = topleft;
pos = (5,700);
}
);
background = {
shapes = (
{
attr = {
strokeWidth = 2;
};
closed = 0;
nodes = (
(515,669,l),
(279,351,l),
(57,669,l)
);
},
{
attr = {
strokeWidth = 2;
};
closed = 0;
nodes = (
(279,360,l),
(279,32,l)
);
}
);
};
layerId = "65988B1E-DCE2-4AC3-A6FF-994A1050067D";
shapes = (
{
closed = 1;
nodes = (
(299,-10,o),
(317,8,o),
(317,31,cs),
(317,341,l),
(543,646,ls),
(548,652,o),
(551,660,o),
(551,669,cs),
(551,691,o),
(534,708,o),
(512,708,cs),
(499,708,o),
(488,702,o),
(481,692,cs),
(250,382,l),
(303,381,l),
(86,691,ls),
(79,701,o),
(67,708,o),
(54,708,cs),
(32,708,o),
(15,691,o),
(15,669,cs),
(15,661,o),
(18,653,o),
(22,647,cs),
(235,341,l),
(235,31,ls),
(235,8,o),
(253,-10,o),
(276,-10,cs)
);
}
);
width = 561;
},
{
anchors = (
{
name = bottom;
pos = (300,0);
},
{
name = top;
pos = (300,700);
},
{
name = topleft;
pos = (20,700);
}
);
background = {
shapes = (
{
attr = {
strokeWidth = 2;
};
closed = 0;
nodes = (
(518,640,l),
(303,351,l),
(101,640,l)
);
},
{
attr = {
strokeWidth = 2;
};
closed = 0;
nodes = (
(303,359,l),
(303,60,l)
);
}
);
};
layerId = "6242D68C-0A25-4F05-8F2A-2075F7C4A210";
shapes = (
{
closed = 1;
nodes = (
(346,-10,o),
(381,25,o),
(381,68,cs),
(381,317,l),
(581,585,ls),
(590,598,o),
(596,615,o),
(596,632,cs),
(596,675,o),
(561,710,o),
(518,710,cs),
(492,710,o),
(469,698,o),
(455,679,cs),
(265,422,l),
(344,421,l),
(165,677,ls),
(151,697,o),
(127,710,o),
(101,710,cs),
(58,710,o),
(23,675,o),
(23,632,cs),
(23,615,o),
(28,600,o),
(37,587,cs),
(225,319,l),
(225,68,ls),
(225,25,o),
(260,-10,o),
(303,-10,cs)
);
}
);
width = 600;
},
{
anchors = (
{
name = bottom;
pos = (298,0);
},
{
name = top;
pos = (298,700);
},
{
name = topleft;
pos = (20,700);
}
);
associatedMasterId = "65988B1E-DCE2-4AC3-A6FF-994A1050067D";
layerId = "94BDF86D-5DC2-40F3-8F2B-F18C239E19A8";
name = "Original Skeleton";
shapes = (
{
attr = {
strokeWidth = 2;
};
closed = 0;
nodes = (
(565,700,l),
(305,351,l),
(61,700,l)
);
},
{
attr = {
strokeWidth = 2;
};
closed = 0;
nodes = (
(305,361,l),
(305,0,l)
);
}
);
width = 596;
},
{
anchors = (
{
name = bottom;
pos = (305,0);
},
{
name = top;
pos = (312,701);
},
{
name = topleft;
pos = (20,700);
}
);
background = {
shapes = (
{
attr = {
strokeWidth = 2;
};
closed = 0;
nodes = (
(565,700,l),
(305,351,l),
(61,700,l)
);
},
{
attr = {
strokeWidth = 2;
};
closed = 0;
nodes = (
(305,361,l),
(305,0,l)
);
}
);
};
layerId = "3D52442A-254C-4C79-B742-A98FD72DF947";
shapes = (
{
closed = 1;
nodes = (
(318,-10,o),
(328,0,o),
(328,13,cs),
(328,344,l),
(571,669,ls),
(574,673,o),
(576,678,o),
(576,683,cs),
(576,696,o),
(565,706,o),
(553,706,cs),
(545,706,o),
(539,703,o),
(534,697,cs),
(294,374,l),
(318,373,l),
(92,696,ls),
(88,702,o),
(81,706,o),
(73,706,cs),
(60,706,o),
(50,696,o),
(50,683,cs),
(50,678,o),
(52,673,o),
(54,670,cs,{
name = "💚";
}),
(282,344,l),
(282,13,ls),
(282,0,o),
(292,-10,o),
(305,-10,cs)
);
}
);
width = 600;
}
);
unicode = 89;
},
{
glyphname = Z;
kernLeft = Z;
kernRight = Z;
lastChange = "2021-08-20 20:59:35 +0000";
layers = (
{
anchors = (
{
name = bottom;
pos = (278,0);
},
{
name = center;
pos = (278,350);
},
{
name = top;
pos = (278,700);
}
);
background = {
shapes = (
{
attr = {
strokeWidth = 2;
};
closed = 0;
nodes = (
(83,669,l),
(480,669,l),
(67,32,l),
(480,32,l)
);
}
);
};
layerId = "65988B1E-DCE2-4AC3-A6FF-994A1050067D";
shapes = (
{
closed = 1;
nodes = (
(488,0,ls),
(510,0,o),
(527,17,o),
(527,39,cs),
(527,61,o),
(510,78,o),
(488,78,cs),
(95,78,l),
(118,40,l),
(501,614,ls),
(514,633,o),
(520,649,o),
(520,662,cs),
(520,686,o),
(505,700,o),
(458,700,cs),
(85,700,ls),
(63,700,o),
(46,683,o),
(46,661,cs),
(46,639,o),
(63,622,o),
(85,622,cs),
(460,622,l),
(435,659,l),
(53,86,ls,{
name = "💚";
}),
(40,67,o),
(35,51,o),
(35,38,cs),
(35,11,o),
(56,0,o),
(98,0,cs)
);
}
);
width = 562;
},
{
anchors = (
{
name = bottom;
pos = (309,0);
},
{
name = center;
pos = (299,360);
},
{
name = top;
pos = (309,700);
}
);
background = {
shapes = (
{
attr = {
strokeWidth = 2;
};
closed = 0;
nodes = (
(124,640,l),
(485,640,l),
(110,61,l),
(485,61,l)
);
}
);
};
layerId = "6242D68C-0A25-4F05-8F2A-2075F7C4A210";
shapes = (
{
closed = 1;
nodes = (
(509,0,ls),
(550,0,o),
(584,34,o),
(584,75,cs),
(584,116,o),
(550,150,o),
(509,150,cs),
(190,150,l),
(229,93,l),
(539,561,ls),
(571,609,o),
(575,622,o),
(575,641,cs),
(575,681,o),
(547,700,o),
(500,700,cs),
(111,700,ls),
(70,700,o),
(36,666,o),
(36,625,cs),
(36,584,o),
(70,550,o),
(111,550,cs),
(424,550,l),
(392,607,l),
(71,139,ls),
(38,91,o),
(35,78,o),
(35,59,cs),
(35,19,o),
(63,0,o),
(114,0,cs)
);
}
);
width = 614;
},
{
anchors = (
{
name = bottom;
pos = (293,0);
},
{
name = center;
pos = (293,350);
},
{
name = top;
pos = (293,700);
}
);
associatedMasterId = "65988B1E-DCE2-4AC3-A6FF-994A1050067D";
layerId = "B420247E-EAC0-4CAA-8F6C-05C6685B64C4";
name = "Original Skeleton";
shapes = (
{
attr = {
strokeWidth = 2;
};
closed = 0;
nodes = (
(79,700,l),
(515,700,l),
(62,0,l),
(515,0,l)
);
}
);
width = 586;
},
{
anchors = (
{
name = bottom;
pos = (278,0);
},
{
name = center;
pos = (278,350);
},
{
name = top;
pos = (278,700);
}
);
background = {
shapes = (
{
attr = {
strokeWidth = 2;
};
closed = 0;
nodes = (
(59,699,l),
(482,699,l),
(42,19,l),
(482,19,l)
);
}
);
};
layerId = "3D52442A-254C-4C79-B742-A98FD72DF947";
shapes = (
{
closed = 1;
nodes = (
(467,0,ls),
(480,0,o),
(490,10,o),
(490,23,cs),
(490,36,o),
(480,46,o),
(467,46,cs),
(78,46,l),
(87,29,l),
(460,662,ls),
(463,667,o),
(464,673,o),
(464,677,cs),
(464,690,o),
(453,700,o),
(438,700,cs),
(59,700,ls),
(46,700,o),
(36,690,o),
(36,677,cs),
(36,664,o),
(46,654,o),
(59,654,cs),
(421,654,l),
(410,671,l),
(39,38,ls),
(36,33,o),
(35,27,o),
(35,23,cs),
(35,10,o),
(46,0,o),
(60,0,cs)
);
}
);
width = 525;
}
);
unicode = 90;
},
{
glyphname = a;
lastChange = "2021-08-20 20:04:13 +0000";
layers = (
{
anchors = (
{
name = bottom;
pos = (263,0);
},
{
name = ogonek;
pos = (414,0);
},
{
name = top;
pos = (268,515);
}
);
background = {
shapes = (
{
closed = 1;
nodes = (
(490,59,o),
(477,78,o),
(460,78,cs),
(454,78,o),
(453,79,o),
(453,84,cs),
(454,349,ls),
(454,452,o),
(412,530,o),
(257,530,cs),
(154,530,o),
(84,477,o),
(84,421,cs),
(84,400,o),
(100,383,o),
(121,383,cs),
(136,383,o),
(151,389,o),
(158,405,cs),
(168,427,o),
(182,453,o),
(257,453,cs),
(355,453,o),
(374,409,o),
(374,369,cs),
(375,160,ls),
(375,131,o),
(319,62,o),
(228,62,cs),
(173,62,o),
(126,84,o),
(126,144,cs),
(126,188,o),
(168,218,o),
(239,224,cs),
(296,229,o),
(345,244,o),
(379,266,c),
(378,369,l),
(374,369,l),
(374,329,o),
(335,306,o),
(239,302,cs),
(121,297,o),
(46,230,o),
(46,143,cs),
(46,50,o),
(110,-15,o),
(231,-15,cs),
(290,-15,o),
(329,2,o),
(378,51,cs),
(379,52,o),
(380,53,o),
(381,53,cs),
(383,53,o),
(384,52,o),
(384,50,cs),
(384,20,o),
(411,-4,o),
(443,-5,cs),
(471,-5,o),
(490,14,o),
(490,39,cs)
);
}
);
};
layerId = "65988B1E-DCE2-4AC3-A6FF-994A1050067D";
shapes = (
{
closed = 1;
nodes = (
(293,-16,o),
(347,21,o),
(378,63,c),
(381,63,l),
(381,53,ls),
(381,19,o),
(408,-8,o),
(443,-8,cs),
(478,-8,o),
(496,9,o),
(496,32,cs),
(496,53,o),
(480,72,o),
(461,72,cs),
(453,72,o),
(452,78,o),
(452,90,cs),
(452,335,ls),
(452,435,o),
(417,530,o),
(266,530,cs),
(156,530,o),
(100,462,o),
(83,424,cs),
(72,400,o),
(81,366,o),
(115,366,cs),
(135,366,o),
(146,377,o),
(156,395,cs),
(169,418,o),
(201,453,o),
(267,453,cs),
(347,453,o),
(372,411,o),
(372,369,cs),
(372,322,o),
(331,305,o),
(236,304,cs),
(103,303,o),
(40,220,o),
(40,138,cs),
(40,58,o),
(100,-14,o),
(212,-15,cs)
);
},
{
closed = 1;
nodes = (
(144,61,o),
(120,109,o),
(120,143,cs),
(120,184,o),
(155,229,o),
(237,229,cs),
(300,229,o),
(350,248,o),
(371,265,c),
(374,270,o),
(375,266,o),
(375,265,cs),
(375,199,ls),
(375,125,o),
(305,63,o),
(225,62,cs)
);
}
);
width = 531;
},
{
anchors = (
{
name = bottom;
pos = (301,0);
},
{
name = ogonek;
pos = (498,0);
},
{
name = top;
pos = (293,513);
}
);
layerId = "6242D68C-0A25-4F05-8F2A-2075F7C4A210";
shapes = (
{
closed = 1;
nodes = (
(315,-15,o),
(379,8,o),
(408,69,c),
(411,69,l),
(411,67,ls,{
name = "💚";
}),
(411,16,o),
(442,-7,o),
(488,-8,cs),
(542,-9,o),
(573,23,o),
(573,63,cs),
(573,99,o),
(548,119,o),
(525,128,cs),
(512,133,o),
(509,137,o),
(509,154,cs),
(509,333,ls),
(509,456,o),
(428,529,o),
(304,529,cs),
(210,529,o),
(81,488,o),
(81,405,cs),
(81,364,o),
(113,341,o),
(150,341,cs),
(178,341,o),
(203,349,o),
(217,366,cs),
(228,380,o),
(250,402,o),
(292,402,cs),
(319,402,o),
(361,394,o),
(361,366,cs),
(361,333,o),
(327,321,o),
(246,316,cs),
(93,307,o),
(40,233,o),
(40,148,cs),
(40,36,o),
(140,-15,o),
(247,-15,cs)
);
},
{
closed = 1;
nodes = (
(224,113,o),
(187,134,o),
(187,167,cs),
(187,187,o),
(203,195,o),
(262,207,cs),
(320,219,o),
(338,224,o),
(355,234,cs),
(360,237,o),
(362,237,o),
(362,233,cs),
(362,194,ls),
(362,147,o),
(314,113,o),
(264,113,cs)
);
}
);
width = 603;
},
{
anchors = (
{
name = bottom;
pos = (273,0);
},
{
name = ogonek;
pos = (491,10);
},
{
name = top;
pos = (273,515);
}
);
associatedMasterId = "65988B1E-DCE2-4AC3-A6FF-994A1050067D";
background = {
shapes = (
{
closed = 1;
nodes = (
(500,59,o),
(487,78,o),
(470,78,cs),
(464,78,o),
(463,79,o),
(463,84,cs),
(464,349,ls),
(464,452,o),
(422,530,o),
(267,530,cs),
(164,530,o),
(94,477,o),
(94,421,cs),
(94,400,o),
(110,383,o),
(131,383,cs),
(146,383,o),
(161,389,o),
(168,405,cs),
(178,427,o),
(192,453,o),
(267,453,cs),
(365,453,o),
(384,409,o),
(384,369,cs),
(385,160,ls),
(385,131,o),
(329,62,o),
(238,62,cs),
(183,62,o),
(136,84,o),
(136,144,cs),
(136,188,o),
(178,218,o),
(249,224,cs),
(306,229,o),
(355,244,o),
(389,266,c),
(388,369,l),
(384,369,l),
(384,329,o),
(345,306,o),
(249,302,cs),
(131,297,o),
(56,230,o),
(56,143,cs),
(56,50,o),
(120,-15,o),
(241,-15,cs),
(300,-15,o),
(339,2,o),
(388,51,cs),
(389,52,o),
(390,53,o),
(391,53,cs),
(393,53,o),
(394,52,o),
(394,50,cs),
(394,20,o),
(421,-4,o),
(453,-5,cs),
(481,-5,o),
(500,14,o),
(500,39,cs)
);
}
);
};
layerId = "53B606E2-0238-4D12-B9C4-993F35BD6F5D";
name = "Original Skeleton";
shapes = (
{
attr = {
strokeWidth = 2;
};
closed = 0;
nodes = (
(91,399,l),
(91,417,o),
(113,513,o),
(262,513,cs),
(399,513,o),
(434,435,o),
(434,358,c),
(434,357,o),
(436,148,o),
(436,67,cs),
(436,7,o),
(490,7,o),
(490,7,c)
);
},
{
attr = {
strokeWidth = 2;
};
closed = 0;
nodes = (
(433,113,l),
(433,112,o),
(351,0,o),
(218,0,cs),
(107,0,o),
(61,59,o),
(61,119,cs),
(61,173,o),
(109,265,o),
(242,265,cs),
(422,265,o),
(434,365,o),
(434,365,c)
);
}
);
width = 546;
},
{
anchors = (
{
name = bottom;
pos = (242,0);
},
{
name = ogonek;
pos = (422,0);
},
{
name = top;
pos = (256,515);
}
);
background = {
shapes = (
{
closed = 1;
nodes = (
(265,-16,o),
(332,0,o),
(370,68,c),
(372,72,o),
(373,71,o),
(373,68,c),
(373,49,ls),
(373,19,o),
(397,-8,o),
(429,-8,cs),
(436,-8,ls),
(469,-8,o),
(488,9,o),
(488,32,cs),
(488,53,o),
(472,72,o),
(453,72,cs),
(446,72,o),
(446,83,o),
(446,102,cs),
(446,335,ls),
(446,435,o),
(409,530,o),
(258,530,cs),
(148,530,o),
(92,462,o),
(75,424,cs),
(64,400,o),
(74,368,o),
(109,368,cs),
(128,368,o),
(138,377,o),
(148,395,cs),
(161,418,o),
(193,453,o),
(259,453,cs),
(339,453,o),
(364,411,o),
(364,369,cs),
(364,322,o),
(323,305,o),
(228,304,cs),
(95,303,o),
(32,220,o),
(32,138,cs),
(32,58,o),
(92,-13,o),
(204,-15,cs)
);
},
{
closed = 1;
nodes = (
(112,184,o),
(147,229,o),
(229,229,cs),
(292,229,o),
(344,256,o),
(363,276,c),
(366,281,o),
(366,277,o),
(366,276,cs),
(366,254,l),
(366,170,ls),
(366,98,o),
(297,63,o),
(217,62,cs),
(136,61,o),
(112,109,o),
(112,143,cs)
);
},
{
closed = 1;
nodes = (
(132,30,o),
(95,76,o),
(95,136,cs),
(95,193,o),
(134,251,o),
(233,249,cs),
(288,248,o),
(335,264,o),
(372,290,cs),
(378,294,o),
(384,301,o),
(384,292,cs),
(384,177,ls),
(384,102,o),
(313,30,o),
(216,30,cs)
);
}
);
};
layerId = "3D52442A-254C-4C79-B742-A98FD72DF947";
shapes = (
{
closed = 1;
nodes = (
(299,-15,o),
(355,13,o),
(393,78,c),
(396,78,l),
(396,47,ls),
(396,21,o),
(405,-3,o),
(443,-3,cs),
(469,-3,o),
(481,6,o),
(481,21,cs),
(481,35,o),
(471,43,o),
(457,43,cs),
(442,43,o),
(439,50,o),
(439,70,cs),
(439,350,ls),
(439,463,o),
(387,530,o),
(259,530,cs),
(133,530,o),
(85,456,o),
(76,410,cs),
(73,395,o),
(81,384,o),
(94,384,cs),
(108,384,o),
(116,392,o),
(121,407,cs),
(134,446,o),
(169,486,o),
(259,486,cs),
(358,486,o),
(390,433,o),
(390,375,cs),
(390,323,o),
(339,289,o),
(228,288,cs),
(92,287,o),
(40,215,o),
(40,132,cs),
(40,48,o),
(99,-15,o),
(208,-15,cs)
);
},
{
closed = 1;
nodes = (
(122,29,o),
(85,76,o),
(85,136,cs),
(85,193,o),
(123,248,o),
(225,247,cs),
(297,246,o),
(350,264,o),
(387,290,cs),
(392,293,o),
(394,294,o),
(394,291,cs),
(394,197,ls),
(394,102,o),
(323,29,o),
(216,29,cs)
);
}
);
width = 511;
},
{
anchors = (
{
name = bottom;
pos = (231,0);
},
{
name = ogonek;
pos = (487,0);
},
{
name = top;
pos = (310,515);
}
);
associatedMasterId = "6242D68C-0A25-4F05-8F2A-2075F7C4A210";
layerId = "56CFEAC8-FE9D-48AA-9077-34FAA0BCD962";
name = "Extrabold Alt 1";
shapes = (
{
closed = 1;
nodes = (
(288,-17,o),
(336,14,o),
(366,59,c),
(369,59,l),
(376,45,ls),
(393,11,o),
(439,-8,o),
(487,-8,cs),
(500,-8,ls),
(551,-8,o),
(580,25,o),
(580,66,cs),
(580,107,o),
(552,132,o),
(528,132,cs),
(515,132,o),
(512,140,o),
(512,157,cs),
(512,300,ls),
(512,411,o),
(466,530,o),
(289,530,cs),
(186,530,o),
(82,480,o),
(82,404,cs),
(82,362,o),
(114,341,o),
(150,341,cs),
(183,341,o),
(197,359,o),
(209,365,cs),
(229,375,o),
(266,383,o),
(295,383,cs),
(333,383,o),
(356,369,o),
(356,345,cs),
(356,327,o),
(343,305,o),
(259,304,cs),
(114,302,o),
(38,233,o),
(38,135,cs),
(38,38,o),
(115,-12,o),
(216,-15,cs)
);
},
{
closed = 1;
nodes = (
(184,190,o),
(215,208,o),
(260,208,cs),
(290,208,o),
(325,218,o),
(358,235,c),
(362,237,o),
(362,236,o),
(362,231,cs),
(362,225,l),
(362,215,ls),
(362,154,o),
(326,118,o),
(254,117,cs),
(209,116,o),
(184,132,o),
(184,159,cs)
);
}
);
visible = 1;
width = 611;
},
{
anchors = (
{
name = bottom;
pos = (315,0);
},
{
name = ogonek;
pos = (512,0);
},
{
name = top;
pos = (307,513);
}
);
associatedMasterId = "6242D68C-0A25-4F05-8F2A-2075F7C4A210";
layerId = "F66BA857-4334-4112-8D5F-6191DD60B8F4";
name = "Extrabold Alt 2";
shapes = (
{
closed = 1;
nodes = (
(302,-16,o),
(369,0,o),
(407,63,c),
(410,63,l),
(410,50,l),
(410,5,o),
(459,-8,o),
(506,-8,cs),
(562,-8,o),
(597,25,o),
(597,66,cs),
(597,107,o),
(569,131,o),
(545,131,cs),
(532,131,o),
(529,140,o),
(529,157,cs),
(529,333,ls),
(529,456,o),
(443,529,o),
(306,529,cs),
(217,529,o),
(81,488,o),
(81,405,cs),
(81,364,o),
(113,341,o),
(150,341,cs),
(178,341,o),
(203,349,o),
(217,366,cs),
(228,380,o),
(250,402,o),
(304,402,cs),
(339,402,o),
(381,394,o),
(381,366,cs),
(381,333,o),
(347,321,o),
(266,316,cs),
(93,306,o),
(40,233,o),
(40,148,cs),
(40,38,o),
(137,-15,o),
(241,-15,cs)
);
},
{
closed = 1;
nodes = (
(224,113,o),
(187,134,o),
(187,162,cs),
(187,188,o),
(202,195,o),
(282,207,cs),
(340,216,o),
(361,221,o),
(376,234,c),
(378,235,o),
(379,235,o),
(379,233,cs),
(379,194,ls),
(379,147,o),
(334,113,o),
(272,113,cs)
);
}
);
visible = 1;
width = 611;
}
);
unicode = 97;
},
{
glyphname = a.ss01;
lastChange = "2021-08-20 21:21:07 +0000";
layers = (
{
anchors = (
{
name = bottom;
pos = (275,0);
},
{
name = ogonek;
pos = (507,0);
},
{
name = top;
pos = (273,515);
}
);
background = {
shapes = (
{
closed = 1;
nodes = (
(535,59,o),
(522,78,o),
(505,78,cs),
(499,78,o),
(498,79,o),
(498,84,cs),
(499,349,ls),
(499,452,o),
(457,530,o),
(302,530,cs),
(199,530,o),
(129,477,o),
(129,421,cs),
(129,400,o),
(145,383,o),
(166,383,cs),
(181,383,o),
(196,389,o),
(203,405,cs),
(213,427,o),
(227,453,o),
(302,453,cs),
(400,453,o),
(419,409,o),
(419,369,cs),
(420,160,ls),
(420,131,o),
(364,62,o),
(273,62,cs),
(218,62,o),
(171,84,o),
(171,144,cs),
(171,188,o),
(213,218,o),
(284,224,cs),
(341,229,o),
(390,244,o),
(424,266,c),
(423,369,l),
(419,369,l),
(419,329,o),
(380,306,o),
(284,302,cs),
(166,297,o),
(91,230,o),
(91,143,cs),
(91,50,o),
(155,-15,o),
(276,-15,cs),
(335,-15,o),
(374,2,o),
(423,51,cs),
(424,52,o),
(425,53,o),
(426,53,cs),
(428,53,o),
(429,52,o),
(429,50,cs),
(429,20,o),
(456,-4,o),
(488,-5,cs),
(516,-5,o),
(535,14,o),
(535,39,cs)
);
},
{
closed = 1;
nodes = (
(1001,92,l),
(1001,33,ls),
(1001,10,o),
(1019,-8,o),
(1041,-8,cs),
(1063,-8,o),
(1081,10,o),
(1081,33,cs),
(1081,480,ls),
(1081,502,o),
(1063,520,o),
(1041,520,cs),
(1019,520,o),
(1001,502,o),
(1001,480,cs),
(1001,427,l),
(1010,427,l),
(1009,92,l)
);
},
{
closed = 1;
nodes = (
(701,382,o),
(755,454,o),
(856,453,c),
(943,452,o),
(1001,381,o),
(1001,251,cs),
(1001,91,o),
(917,62,o),
(854,62,cs),
(758,62,o),
(701,134,o),
(701,257,cs)
);
},
{
closed = 1;
nodes = (
(974,495,o),
(923,530,o),
(848,530,cs),
(705,530,o),
(621,406,o),
(621,257,cs),
(621,113,o),
(700,-15,o),
(839,-15,cs),
(913,-15,o),
(976,11,o),
(1018,66,c),
(1017,441,l)
);
},
{
closed = 1;
nodes = (
(177,62,o),
(120,124,o),
(120,247,cs),
(120,372,o),
(174,454,o),
(272,453,cs),
(361,452,o),
(420,377,o),
(420,251,cs),
(420,91,o),
(336,62,o),
(273,62,cs)
);
},
{
closed = 1;
nodes = (
(327,-15,o),
(371,2,o),
(422,57,c),
(427,57,l),
(427,49,ls),
(427,15,o),
(453,-5,o),
(491,-5,cs),
(522,-5,o),
(540,12,o),
(540,35,cs),
(540,56,o),
(526,72,o),
(507,72,cs),
(501,72,o),
(500,77,o),
(500,102,cs),
(500,480,ls),
(500,502,o),
(482,520,o),
(460,520,cs),
(438,520,o),
(420,502,o),
(420,480,cs),
(420,435,l),
(433,435,l),
(398,487,o),
(350,530,o),
(267,530,cs),
(122,530,o),
(40,397,o),
(40,247,cs),
(40,81,o),
(124,-15,o),
(268,-15,cs)
);
}
);
};
layerId = "65988B1E-DCE2-4AC3-A6FF-994A1050067D";
shapes = (
{
closed = 1;
nodes = (
(327,-15,o),
(374,2,o),
(428,57,c),
(433,57,l),
(433,49,ls),
(433,15,o),
(453,-5,o),
(491,-5,cs),
(522,-5,o),
(540,12,o),
(540,35,cs),
(540,56,o),
(526,72,o),
(507,72,cs),
(501,72,o),
(500,77,o),
(500,102,cs),
(500,480,ls),
(500,502,o),
(482,520,o),
(460,520,cs),
(438,520,o),
(420,502,o),
(420,480,cs),
(420,435,l),
(433,435,l),
(398,487,o),
(350,530,o),
(267,530,cs),
(122,530,o),
(40,397,o),
(40,247,cs),
(40,81,o),
(124,-15,o),
(268,-15,cs)
);
},
{
closed = 1;
nodes = (
(177,59,o),
(120,124,o),
(120,247,cs),
(120,372,o),
(174,457,o),
(272,456,cs),
(361,455,o),
(420,377,o),
(420,251,cs),
(420,91,o),
(336,59,o),
(273,59,cs)
);
}
);
width = 575;
},
{
anchors = (
{
name = bottom;
pos = (315,0);
},
{
name = ogonek;
pos = (547,0);
},
{
name = top;
pos = (301,515);
}
);
layerId = "6242D68C-0A25-4F05-8F2A-2075F7C4A210";
shapes = (
{
closed = 1;
nodes = (
(346,-15,o),
(408,23,o),
(428,89,c),
(433,89,l),
(433,87,ls),
(433,21,o),
(466,-10,o),
(536,-10,cs),
(592,-10,o),
(624,13,o),
(624,53,cs),
(624,82,o),
(609,110,o),
(579,110,cs),
(562,110,o),
(559,133,o),
(559,177,cs),
(559,445,ls),
(559,488,o),
(528,520,o),
(485,520,cs),
(445,520,o),
(411,499,o),
(411,451,cs),
(411,442,l),
(431,442,l),
(395,500,o),
(343,530,o),
(272,530,cs),
(117,530,o),
(40,387,o),
(40,248,cs),
(40,114,o),
(98,-15,o),
(260,-15,cs)
);
},
{
closed = 1;
nodes = (
(234,122,o),
(195,166,o),
(195,256,cs),
(195,346,o),
(234,390,o),
(303,390,cs),
(369,390,o),
(410,348,o),
(410,259,cs),
(410,164,o),
(369,122,o),
(303,122,cs)
);
}
);
width = 654;
},
{
anchors = (
{
name = bottom;
pos = (254,0);
},
{
name = ogonek;
pos = (477,10);
},
{
name = top;
pos = (254,515);
}
);
layerId = "3D52442A-254C-4C79-B742-A98FD72DF947";
shapes = (
{
closed = 1;
nodes = (
(321,-15,o),
(376,18,o),
(413,73,c),
(415,73,l),
(415,42,ls),
(415,16,o),
(424,-8,o),
(462,-8,cs),
(488,-8,o),
(500,1,o),
(500,16,cs),
(500,30,o),
(490,38,o),
(476,38,cs),
(461,38,o),
(458,45,o),
(458,65,cs),
(458,493,ls),
(458,509,o),
(449,520,o),
(436,520,cs),
(423,520,o),
(413,509,o),
(413,493,cs),
(413,420,l),
(415,433,l),
(388,488,o),
(318,530,o),
(251,530,cs),
(122,530,o),
(35,408,o),
(35,258,cs),
(35,107,o),
(105,-15,o),
(247,-15,cs)
);
},
{
closed = 1;
nodes = (
(141,29,o),
(80,113,o),
(80,258,cs),
(80,401,o),
(159,487,o),
(254,487,cs),
(344,487,o),
(413,394,o),
(413,258,cs),
(413,113,o),
(349,31,o),
(245,30,cs)
);
}
);
width = 530;
}
);
metricLeft = "=o";
metricRight = "=a";
},
{
glyphname = a.ss02;
lastChange = "2021-08-11 18:42:52 +0000";
layers = (
{
anchors = (
{
name = bottom;
pos = (295,0);
},
{
name = ogonek;
pos = (530,10);
},
{
name = top;
pos = (295,515);
}
);
layerId = "65988B1E-DCE2-4AC3-A6FF-994A1050067D";
shapes = (
{
closed = 1;
nodes = (
(307,-16,o),
(370,12,o),
(419,52,c),
(419,132,l),
(379,98,o),
(316,63,o),
(238,62,cs),
(149,61,o),
(125,108,o),
(125,143,cs),
(125,184,o),
(160,229,o),
(256,229,cs),
(322,229,o),
(372,242,o),
(409,260,c),
(409,81,ls),
(409,24,o),
(446,-6,o),
(496,-8,cs),
(525,-9,o),
(544,9,o),
(544,32,cs),
(544,53,o),
(528,70,o),
(507,72,cs),
(495,73,o),
(489,83,o),
(489,102,cs),
(489,335,ls),
(489,425,o),
(443,530,o),
(286,530,cs),
(126,530,o),
(78,409,o),
(75,382,cs),
(72,353,o),
(91,337,o),
(113,337,cs),
(135,337,o),
(150,353,o),
(155,376,cs),
(158,389,o),
(183,453,o),
(287,453,cs),
(376,453,o),
(408,409,o),
(408,369,cs),
(408,322,o),
(362,305,o),
(256,304,cs),
(108,303,o),
(45,220,o),
(45,138,cs),
(45,58,o),
(105,-13,o),
(232,-15,cs)
);
}
);
width = 589;
},
{
layerId = "6242D68C-0A25-4F05-8F2A-2075F7C4A210";
width = 600;
},
{
layerId = "3D52442A-254C-4C79-B742-A98FD72DF947";
width = 600;
},
{
anchors = (
{
name = bottom;
pos = (300,0);
},
{
name = ogonek;
pos = (535,10);
},
{
name = top;
pos = (300,515);
}
);
associatedMasterId = "65988B1E-DCE2-4AC3-A6FF-994A1050067D";
layerId = "2892269F-6090-48A0-98C2-9DCC44BB470F";
name = "Inktrap 1";
shapes = (
{
closed = 1;
nodes = (
(298,-16,o),
(380,0,o),
(418,78,c),
(420,82,o),
(421,81,o),
(421,78,c),
(420,48,o),
(425,-8,o),
(501,-8,cs),
(530,-8,o),
(549,9,o),
(549,32,cs),
(549,53,o),
(533,71,o),
(512,72,cs),
(500,73,o),
(494,83,o),
(494,102,cs),
(494,335,ls),
(494,431,o),
(443,530,o),
(291,530,cs),
(166,530,o),
(110,457,o),
(93,419,cs),
(82,395,o),
(92,363,o),
(127,363,cs),
(146,363,o),
(156,372,o),
(166,390,cs),
(179,413,o),
(211,453,o),
(292,453,cs),
(377,453,o),
(412,411,o),
(412,369,cs),
(412,322,o),
(367,305,o),
(261,304,cs),
(113,303,o),
(50,220,o),
(50,138,cs),
(50,58,o),
(110,-13,o),
(237,-15,cs)
);
},
{
closed = 1;
nodes = (
(130,184,o),
(165,229,o),
(262,229,cs),
(318,229,o),
(379,245,o),
(411,290,c),
(414,295,o),
(414,291,o),
(414,290,cs),
(414,254,l),
(414,160,ls),
(414,98,o),
(330,63,o),
(250,62,cs),
(154,61,o),
(130,109,o),
(130,143,cs)
);
}
);
width = 589;
},
{
anchors = (
{
name = bottom;
pos = (300,0);
},
{
name = ogonek;
pos = (535,10);
},
{
name = top;
pos = (300,515);
}
);
associatedMasterId = "65988B1E-DCE2-4AC3-A6FF-994A1050067D";
layerId = "0C05A765-5A05-42BC-9845-51836952A987";
name = "Inktrap 2";
shapes = (
{
closed = 1;
nodes = (
(308,-16,o),
(383,10,o),
(426,69,c),
(429,69,l),
(427,62,o),
(425,55,o),
(425,47,cs),
(425,14,o),
(459,-8,o),
(498,-8,cs),
(530,-8,o),
(549,9,o),
(549,32,cs),
(549,53,o),
(533,71,o),
(512,72,cs),
(500,73,o),
(494,83,o),
(494,102,cs),
(494,335,ls),
(494,425,o),
(448,530,o),
(291,530,cs),
(131,530,o),
(83,409,o),
(80,382,cs),
(77,353,o),
(96,337,o),
(118,337,cs),
(140,337,o),
(155,353,o),
(160,376,cs),
(163,389,o),
(188,453,o),
(292,453,cs),
(381,453,o),
(413,409,o),
(413,369,cs),
(413,322,o),
(367,305,o),
(261,304,cs),
(113,303,o),
(50,220,o),
(50,138,cs),
(50,58,o),
(110,-14,o),
(237,-15,cs)
);
},
{
closed = 1;
nodes = (
(130,184,o),
(165,229,o),
(261,229,cs),
(327,229,o),
(385,239,o),
(417,278,c),
(420,278,l),
(418,270,o),
(414,262,o),
(414,239,cs),
(414,153,ls),
(414,108,o),
(328,63,o),
(243,62,cs),
(154,61,o),
(130,108,o),
(130,143,cs)
);
}
);
width = 589;
}
);
},
{
glyphname = aogonek;
lastChange = "2021-08-15 23:46:24 +0000";
layers = (
{
anchors = (
{
name = _ogonek;
pos = (389,8);
}
);
background = {
shapes = (
{
attr = {
lineCapEnd = "1";
lineCapStart = "1";
strokeHeight = 73;
strokeWidth = 73;
};
closed = 0;
nodes = (
(417,106,l),
(417,34,ls),
(417,-28,o),
(308,-32,o),
(308,-102,cs),
(308,-140,o),
(342,-147,o),
(372,-147,cs),
(395,-147,o),
(417,-143,o),
(439,-119,cs)
);
}
);
};
layerId = "65988B1E-DCE2-4AC3-A6FF-994A1050067D";
shapes = (
{
closed = 1;
nodes = (
(120,184,o),
(155,229,o),
(237,229,cs),
(300,229,o),
(352,256,o),
(371,276,c),
(374,281,o),
(374,277,o),
(374,276,cs),
(374,254,l),
(374,190,ls),
(374,118,o),
(305,63,o),
(225,62,cs),
(144,61,o),
(120,109,o),
(120,143,cs)
);
},
{
closed = 1;
nodes = (
(381,28,ls),
(381,6,o),
(395,-10,o),
(417,-10,cs),
(439,-10,o),
(454,6,o),
(454,28,cs),
(454,335,ls),
(454,435,o),
(417,530,o),
(266,530,cs),
(156,530,o),
(100,462,o),
(83,424,cs),
(72,400,o),
(82,368,o),
(117,368,cs),
(136,368,o),
(146,377,o),
(156,395,cs),
(169,418,o),
(201,453,o),
(267,453,cs),
(347,453,o),
(372,411,o),
(372,369,cs),
(372,322,o),
(331,305,o),
(236,304,cs),
(103,303,o),
(40,220,o),
(40,138,cs),
(40,58,o),
(100,-13,o),
(212,-15,cs),
(273,-16,o),
(343,-2,o),
(378,68,cs,{
name = "💚";
}),
(380,72,o),
(381,71,o),
(381,68,cs,{
name = "💚";
}),
(381,52,l)
);
},
{
closed = 0;
nodes = (
(385,64,l)
);
},
{
pos = (232,0);
ref = ogonekcomb;
}
);
width = 511;
},
{
layerId = "6242D68C-0A25-4F05-8F2A-2075F7C4A210";
width = 600;
},
{
layerId = "3D52442A-254C-4C79-B742-A98FD72DF947";
width = 600;
}
);
metricLeft = "=a";
metricRight = "=a";
unicode = 261;
},
{
glyphname = aogonek.ss01;
lastChange = "2021-08-11 18:42:52 +0000";
layers = (
{
anchors = (
{
name = bottom;
pos = (237,-16);
},
{
name = ogonek;
pos = (447,10);
},
{
name = top;
pos = (252,515);
}
);
layerId = "65988B1E-DCE2-4AC3-A6FF-994A1050067D";
shapes = (
{
closed = 1;
nodes = (
(420,91,l),
(420,32,ls),
(420,9,o),
(438,-9,o),
(460,-9,cs),
(482,-9,o),
(500,9,o),
(500,32,cs),
(500,479,ls),
(500,501,o),
(482,519,o),
(460,519,cs),
(438,519,o),
(420,501,o),
(420,479,cs),
(420,426,l),
(429,426,l),
(428,91,l)
);
},
{
closed = 1;
nodes = (
(120,381,o),
(174,453,o),
(275,452,cs,{
name = "💚";
}),
(362,451,o),
(420,380,o),
(420,250,cs),
(420,90,o),
(336,61,o),
(273,61,cs),
(177,61,o),
(120,133,o),
(120,256,cs)
);
},
{
closed = 1;
nodes = (
(393,494,o),
(342,529,o),
(267,529,cs),
(124,529,o),
(40,405,o),
(40,256,cs),
(40,112,o),
(119,-16,o),
(258,-16,cs),
(332,-16,o),
(395,10,o),
(437,65,c),
(436,440,l)
);
},
{
closed = 1;
nodes = (
(436,-111,o),
(428,-119,o),
(412,-119,cs),
(392,-119,o),
(388,-107,o),
(388,-99,cs),
(388,-58,o),
(500,-32,o),
(500,28,cs),
(500,106,l),
(420,106,l),
(420,23,ls),
(420,-7,o),
(318,-30,o),
(318,-107,cs),
(318,-158,o),
(363,-181,o),
(410,-183,cs),
(436,-184,o),
(472,-179,o),
(502,-144,cs),
(508,-137,o),
(512,-129,o),
(512,-119,cs),
(512,-99,o),
(498,-85,o),
(478,-85,cs),
(467,-85,o),
(458,-89,o),
(451,-96,cs)
);
}
);
width = 542;
},
{
layerId = "6242D68C-0A25-4F05-8F2A-2075F7C4A210";
width = 600;
},
{
layerId = "3D52442A-254C-4C79-B742-A98FD72DF947";
width = 600;
}
);
metricLeft = "=a.ss01";
metricRight = "=aogonek";
},
{
glyphname = ae;
lastChange = "2021-08-11 18:42:52 +0000";
layers = (
{
anchors = (
{
name = bottom;
pos = (415,0);
},
{
name = top;
pos = (435,515);
}
);
layerId = "65988B1E-DCE2-4AC3-A6FF-994A1050067D";
shapes = (
{
closed = 1;
nodes = (
(286,-15,o),
(355,17,o),
(399,81,c),
(414,81,l),
(458,17,o),
(529,-15,o),
(600,-15,cs),
(685,-15,o),
(750,32,o),
(782,80,cs),
(811,123,o),
(787,155,o),
(761,155,cs),
(737,155,o),
(726,134,o),
(719,123,cs),
(701,94,o),
(659,62,o),
(598,62,cs),
(520,62,o),
(449,115,o),
(449,261,cs),
(449,280,ls,{
name = "💚";
}),
(449,390,o),
(508,453,o),
(596,453,cs),
(688,453,o),
(715,394,o),
(720,313,c),
(435,313,l),
(434,242,l),
(738,237,ls),
(776,236,o),
(795,258,o),
(795,296,cs),
(795,449,o),
(721,530,o),
(599,530,cs),
(523,530,o),
(463,502,o),
(424,451,c),
(398,498,o),
(349,530,o),
(261,530,cs),
(151,530,o),
(95,462,o),
(78,424,cs),
(67,400,o),
(77,368,o),
(112,368,cs),
(131,368,o),
(141,377,o),
(151,395,cs),
(164,418,o),
(196,453,o),
(262,453,cs),
(342,453,o),
(367,411,o),
(367,369,cs),
(367,322,o),
(326,305,o),
(231,304,cs),
(98,303,o),
(35,220,o),
(35,138,cs),
(35,58,o),
(95,-15,o),
(215,-15,cs)
);
},
{
closed = 1;
nodes = (
(139,61,o),
(115,109,o),
(115,143,cs),
(115,184,o),
(150,229,o),
(232,229,cs),
(295,229,o),
(347,256,o),
(366,276,c),
(369,281,o),
(369,277,o),
(369,276,cs),
(369,170,ls),
(369,98,o),
(300,63,o),
(220,62,cs)
);
}
);
width = 830;
},
{
anchors = (
{
name = bottom;
pos = (300,0);
},
{
name = top;
pos = (300,515);
}
);
layerId = "6242D68C-0A25-4F05-8F2A-2075F7C4A210";
width = 600;
},
{
anchors = (
{
name = bottom;
pos = (300,0);
},
{
name = top;
pos = (300,515);
}
);
layerId = "3D52442A-254C-4C79-B742-A98FD72DF947";
width = 600;
}
);
unicode = 230;
},
{
glyphname = ae.ss01;
lastChange = "2021-08-12 13:38:16 +0000";
layers = (
{
anchors = (
{
name = bottom;
pos = (456,0);
},
{
name = top;
pos = (456,515);
}
);
background = {
shapes = (
{
closed = 1;
nodes = (
(414,92,l),
(414,33,ls),
(414,10,o),
(432,-8,o),
(454,-8,cs),
(476,-8,o),
(494,10,o),
(494,33,cs),
(494,480,ls),
(494,502,o),
(476,520,o),
(454,520,cs),
(432,520,o),
(414,502,o),
(414,480,cs),
(414,427,l),
(420,411,l),
(422,92,l)
);
},
{
closed = 1;
nodes = (
(124,382,o),
(173,454,o),
(269,453,cs,{
name = "💚";
}),
(353,452,o),
(401,381,o),
(401,251,cs),
(401,91,o),
(327,62,o),
(267,62,cs),
(176,62,o),
(124,134,o),
(124,257,cs)
);
},
{
closed = 1;
nodes = (
(400,485,o),
(332,530,o),
(257,530,cs),
(119,530,o),
(40,406,o),
(40,257,cs),
(40,113,o),
(114,-15,o),
(248,-15,cs),
(322,-15,o),
(385,11,o),
(427,96,c),
(426,418,l)
);
},
{
closed = 1;
nodes = (
(744,-15,o),
(804,32,o),
(836,80,cs),
(865,123,o),
(841,155,o),
(815,155,cs),
(791,155,o),
(780,134,o),
(773,123,cs),
(755,94,o),
(718,62,o),
(662,62,cs),
(583,62,o),
(516,115,o),
(516,260,cs),
(516,386,o),
(571,453,o),
(660,453,cs),
(750,453,o),
(796,373,o),
(797,282,c),
(826,307,l),
(507,307,l),
(507,234,l),
(814,234,ls),
(852,234,o),
(871,255,o),
(871,293,cs),
(871,422,o),
(788,530,o),
(663,530,cs),
(537,530,o),
(443,420,o),
(443,255,cs),
(443,76,o),
(549,-15,o),
(664,-15,cs)
);
}
);
};
layerId = "65988B1E-DCE2-4AC3-A6FF-994A1050067D";
shapes = (
{
closed = 1;
nodes = (
(124,382,o),
(173,454,o),
(269,453,cs,{
name = "💚";
}),
(353,452,o),
(408,371,o),
(408,251,cs),
(408,91,o),
(327,62,o),
(267,62,cs),
(176,62,o),
(124,134,o),
(124,257,cs)
);
},
{
closed = 1;
nodes = (
(40,113,o),
(114,-15,o),
(248,-15,cs),
(323,-15,o),
(406,11,o),
(429,120,c),
(414,109,l),
(414,33,ls),
(414,10,o),
(432,-8,o),
(454,-8,cs),
(476,-8,o),
(494,10,o),
(494,33,cs),
(494,109,l),
(480,115,l),
(501,23,o),
(590,-15,o),
(664,-15,cs),
(744,-15,o),
(804,32,o),
(836,80,cs),
(865,123,o),
(841,155,o),
(815,155,cs),
(791,155,o),
(780,134,o),
(773,123,cs),
(755,94,o),
(718,62,o),
(662,62,cs),
(588,62,o),
(518,109,o),
(511,234,c),
(814,234,ls),
(852,234,o),
(871,255,o),
(871,293,cs),
(871,422,o),
(788,530,o),
(663,530,cs),
(585,530,o),
(500,487,o),
(480,397,c),
(494,403,l),
(494,480,ls),
(494,502,o),
(476,520,o),
(454,520,cs),
(432,520,o),
(414,502,o),
(414,480,cs),
(414,407,l),
(425,402,l),
(417,487,o),
(330,530,o),
(257,530,cs),
(119,530,o),
(40,406,o),
(40,257,cs)
);
},
{
closed = 1;
nodes = (
(525,403,o),
(583,453,o),
(660,453,cs),
(742,453,o),
(787,387,o),
(796,307,c),
(513,307,l)
);
}
);
width = 911;
},
{
layerId = "6242D68C-0A25-4F05-8F2A-2075F7C4A210";
width = 600;
},
{
layerId = "3D52442A-254C-4C79-B742-A98FD72DF947";
width = 600;
}
);
metricLeft = "=o";
metricRight = "=o";
},
